<?xml version="1.0" encoding="utf-8" standalone="no"?>
<!DOCTYPE svg PUBLIC "-//W3C//DTD SVG 1.1//EN"
  "http://www.w3.org/Graphics/SVG/1.1/DTD/svg11.dtd">
<svg xmlns:xlink="http://www.w3.org/1999/xlink" width="1152pt" height="648pt" viewBox="0 0 1152 648" xmlns="http://www.w3.org/2000/svg" version="1.1">
 <metadata>
  <rdf:RDF xmlns:dc="http://purl.org/dc/elements/1.1/" xmlns:cc="http://creativecommons.org/ns#" xmlns:rdf="http://www.w3.org/1999/02/22-rdf-syntax-ns#">
   <cc:Work>
    <dc:type rdf:resource="http://purl.org/dc/dcmitype/StillImage"/>
    <dc:date>2025-05-09T22:28:23.535888</dc:date>
    <dc:format>image/svg+xml</dc:format>
    <dc:creator>
     <cc:Agent>
      <dc:title>Matplotlib v3.10.1, https://matplotlib.org/</dc:title>
     </cc:Agent>
    </dc:creator>
   </cc:Work>
  </rdf:RDF>
 </metadata>
 <defs>
  <style type="text/css">*{stroke-linejoin: round; stroke-linecap: butt}</style>
 </defs>
 <g id="figure_1">
  <g id="patch_1">
   <path d="M 0 648 
L 1152 648 
L 1152 0 
L 0 0 
z
" style="fill: #ffffff"/>
  </g>
  <g id="axes_1">
   <g id="patch_2">
    <path d="M 144 576.72 
L 1036.8 576.72 
L 1036.8 77.76 
L 144 77.76 
z
" style="fill: #ffffff"/>
   </g>
   <g id="matplotlib.axis_1">
    <g id="xtick_1">
     <g id="line2d_1">
      <path d="M 184.581818 576.72 
L 184.581818 77.76 
" clip-path="url(#paad48f8522)" style="fill: none; stroke: #b0b0b0; stroke-width: 0.8; stroke-linecap: square"/>
     </g>
     <g id="line2d_2">
      <defs>
       <path id="mc53f02238b" d="M 0 0 
L 0 3.5 
" style="stroke: #000000; stroke-width: 0.8"/>
      </defs>
      <g>
       <use xlink:href="#mc53f02238b" x="184.581818" y="576.72" style="stroke: #000000; stroke-width: 0.8"/>
      </g>
     </g>
     <g id="text_1">
      <!-- 0 -->
      <g transform="translate(181.400568 591.318438) scale(0.1 -0.1)">
       <defs>
        <path id="DejaVuSans-30" d="M 2034 4250 
Q 1547 4250 1301 3770 
Q 1056 3291 1056 2328 
Q 1056 1369 1301 889 
Q 1547 409 2034 409 
Q 2525 409 2770 889 
Q 3016 1369 3016 2328 
Q 3016 3291 2770 3770 
Q 2525 4250 2034 4250 
z
M 2034 4750 
Q 2819 4750 3233 4129 
Q 3647 3509 3647 2328 
Q 3647 1150 3233 529 
Q 2819 -91 2034 -91 
Q 1250 -91 836 529 
Q 422 1150 422 2328 
Q 422 3509 836 4129 
Q 1250 4750 2034 4750 
z
" transform="scale(0.015625)"/>
       </defs>
       <use xlink:href="#DejaVuSans-30"/>
      </g>
     </g>
    </g>
    <g id="xtick_2">
     <g id="line2d_3">
      <path d="M 303.940107 576.72 
L 303.940107 77.76 
" clip-path="url(#paad48f8522)" style="fill: none; stroke: #b0b0b0; stroke-width: 0.8; stroke-linecap: square"/>
     </g>
     <g id="line2d_4">
      <g>
       <use xlink:href="#mc53f02238b" x="303.940107" y="576.72" style="stroke: #000000; stroke-width: 0.8"/>
      </g>
     </g>
     <g id="text_2">
      <!-- 25 -->
      <g transform="translate(297.577607 591.318438) scale(0.1 -0.1)">
       <defs>
        <path id="DejaVuSans-32" d="M 1228 531 
L 3431 531 
L 3431 0 
L 469 0 
L 469 531 
Q 828 903 1448 1529 
Q 2069 2156 2228 2338 
Q 2531 2678 2651 2914 
Q 2772 3150 2772 3378 
Q 2772 3750 2511 3984 
Q 2250 4219 1831 4219 
Q 1534 4219 1204 4116 
Q 875 4013 500 3803 
L 500 4441 
Q 881 4594 1212 4672 
Q 1544 4750 1819 4750 
Q 2544 4750 2975 4387 
Q 3406 4025 3406 3419 
Q 3406 3131 3298 2873 
Q 3191 2616 2906 2266 
Q 2828 2175 2409 1742 
Q 1991 1309 1228 531 
z
" transform="scale(0.015625)"/>
        <path id="DejaVuSans-35" d="M 691 4666 
L 3169 4666 
L 3169 4134 
L 1269 4134 
L 1269 2991 
Q 1406 3038 1543 3061 
Q 1681 3084 1819 3084 
Q 2600 3084 3056 2656 
Q 3513 2228 3513 1497 
Q 3513 744 3044 326 
Q 2575 -91 1722 -91 
Q 1428 -91 1123 -41 
Q 819 9 494 109 
L 494 744 
Q 775 591 1075 516 
Q 1375 441 1709 441 
Q 2250 441 2565 725 
Q 2881 1009 2881 1497 
Q 2881 1984 2565 2268 
Q 2250 2553 1709 2553 
Q 1456 2553 1204 2497 
Q 953 2441 691 2322 
L 691 4666 
z
" transform="scale(0.015625)"/>
       </defs>
       <use xlink:href="#DejaVuSans-32"/>
       <use xlink:href="#DejaVuSans-35" transform="translate(63.623047 0)"/>
      </g>
     </g>
    </g>
    <g id="xtick_3">
     <g id="line2d_5">
      <path d="M 423.298396 576.72 
L 423.298396 77.76 
" clip-path="url(#paad48f8522)" style="fill: none; stroke: #b0b0b0; stroke-width: 0.8; stroke-linecap: square"/>
     </g>
     <g id="line2d_6">
      <g>
       <use xlink:href="#mc53f02238b" x="423.298396" y="576.72" style="stroke: #000000; stroke-width: 0.8"/>
      </g>
     </g>
     <g id="text_3">
      <!-- 50 -->
      <g transform="translate(416.935896 591.318438) scale(0.1 -0.1)">
       <use xlink:href="#DejaVuSans-35"/>
       <use xlink:href="#DejaVuSans-30" transform="translate(63.623047 0)"/>
      </g>
     </g>
    </g>
    <g id="xtick_4">
     <g id="line2d_7">
      <path d="M 542.656684 576.72 
L 542.656684 77.76 
" clip-path="url(#paad48f8522)" style="fill: none; stroke: #b0b0b0; stroke-width: 0.8; stroke-linecap: square"/>
     </g>
     <g id="line2d_8">
      <g>
       <use xlink:href="#mc53f02238b" x="542.656684" y="576.72" style="stroke: #000000; stroke-width: 0.8"/>
      </g>
     </g>
     <g id="text_4">
      <!-- 75 -->
      <g transform="translate(536.294184 591.318438) scale(0.1 -0.1)">
       <defs>
        <path id="DejaVuSans-37" d="M 525 4666 
L 3525 4666 
L 3525 4397 
L 1831 0 
L 1172 0 
L 2766 4134 
L 525 4134 
L 525 4666 
z
" transform="scale(0.015625)"/>
       </defs>
       <use xlink:href="#DejaVuSans-37"/>
       <use xlink:href="#DejaVuSans-35" transform="translate(63.623047 0)"/>
      </g>
     </g>
    </g>
    <g id="xtick_5">
     <g id="line2d_9">
      <path d="M 662.014973 576.72 
L 662.014973 77.76 
" clip-path="url(#paad48f8522)" style="fill: none; stroke: #b0b0b0; stroke-width: 0.8; stroke-linecap: square"/>
     </g>
     <g id="line2d_10">
      <g>
       <use xlink:href="#mc53f02238b" x="662.014973" y="576.72" style="stroke: #000000; stroke-width: 0.8"/>
      </g>
     </g>
     <g id="text_5">
      <!-- 100 -->
      <g transform="translate(652.471223 591.318438) scale(0.1 -0.1)">
       <defs>
        <path id="DejaVuSans-31" d="M 794 531 
L 1825 531 
L 1825 4091 
L 703 3866 
L 703 4441 
L 1819 4666 
L 2450 4666 
L 2450 531 
L 3481 531 
L 3481 0 
L 794 0 
L 794 531 
z
" transform="scale(0.015625)"/>
       </defs>
       <use xlink:href="#DejaVuSans-31"/>
       <use xlink:href="#DejaVuSans-30" transform="translate(63.623047 0)"/>
       <use xlink:href="#DejaVuSans-30" transform="translate(127.246094 0)"/>
      </g>
     </g>
    </g>
    <g id="xtick_6">
     <g id="line2d_11">
      <path d="M 781.373262 576.72 
L 781.373262 77.76 
" clip-path="url(#paad48f8522)" style="fill: none; stroke: #b0b0b0; stroke-width: 0.8; stroke-linecap: square"/>
     </g>
     <g id="line2d_12">
      <g>
       <use xlink:href="#mc53f02238b" x="781.373262" y="576.72" style="stroke: #000000; stroke-width: 0.8"/>
      </g>
     </g>
     <g id="text_6">
      <!-- 125 -->
      <g transform="translate(771.829512 591.318438) scale(0.1 -0.1)">
       <use xlink:href="#DejaVuSans-31"/>
       <use xlink:href="#DejaVuSans-32" transform="translate(63.623047 0)"/>
       <use xlink:href="#DejaVuSans-35" transform="translate(127.246094 0)"/>
      </g>
     </g>
    </g>
    <g id="xtick_7">
     <g id="line2d_13">
      <path d="M 900.731551 576.72 
L 900.731551 77.76 
" clip-path="url(#paad48f8522)" style="fill: none; stroke: #b0b0b0; stroke-width: 0.8; stroke-linecap: square"/>
     </g>
     <g id="line2d_14">
      <g>
       <use xlink:href="#mc53f02238b" x="900.731551" y="576.72" style="stroke: #000000; stroke-width: 0.8"/>
      </g>
     </g>
     <g id="text_7">
      <!-- 150 -->
      <g transform="translate(891.187801 591.318438) scale(0.1 -0.1)">
       <use xlink:href="#DejaVuSans-31"/>
       <use xlink:href="#DejaVuSans-35" transform="translate(63.623047 0)"/>
       <use xlink:href="#DejaVuSans-30" transform="translate(127.246094 0)"/>
      </g>
     </g>
    </g>
    <g id="xtick_8">
     <g id="line2d_15">
      <path d="M 1020.08984 576.72 
L 1020.08984 77.76 
" clip-path="url(#paad48f8522)" style="fill: none; stroke: #b0b0b0; stroke-width: 0.8; stroke-linecap: square"/>
     </g>
     <g id="line2d_16">
      <g>
       <use xlink:href="#mc53f02238b" x="1020.08984" y="576.72" style="stroke: #000000; stroke-width: 0.8"/>
      </g>
     </g>
     <g id="text_8">
      <!-- 175 -->
      <g transform="translate(1010.54609 591.318438) scale(0.1 -0.1)">
       <use xlink:href="#DejaVuSans-31"/>
       <use xlink:href="#DejaVuSans-37" transform="translate(63.623047 0)"/>
       <use xlink:href="#DejaVuSans-35" transform="translate(127.246094 0)"/>
      </g>
     </g>
    </g>
    <g id="text_9">
     <!-- Ranging Counter -->
     <g transform="translate(548.329687 604.996562) scale(0.1 -0.1)">
      <defs>
       <path id="DejaVuSans-52" d="M 2841 2188 
Q 3044 2119 3236 1894 
Q 3428 1669 3622 1275 
L 4263 0 
L 3584 0 
L 2988 1197 
Q 2756 1666 2539 1819 
Q 2322 1972 1947 1972 
L 1259 1972 
L 1259 0 
L 628 0 
L 628 4666 
L 2053 4666 
Q 2853 4666 3247 4331 
Q 3641 3997 3641 3322 
Q 3641 2881 3436 2590 
Q 3231 2300 2841 2188 
z
M 1259 4147 
L 1259 2491 
L 2053 2491 
Q 2509 2491 2742 2702 
Q 2975 2913 2975 3322 
Q 2975 3731 2742 3939 
Q 2509 4147 2053 4147 
L 1259 4147 
z
" transform="scale(0.015625)"/>
       <path id="DejaVuSans-61" d="M 2194 1759 
Q 1497 1759 1228 1600 
Q 959 1441 959 1056 
Q 959 750 1161 570 
Q 1363 391 1709 391 
Q 2188 391 2477 730 
Q 2766 1069 2766 1631 
L 2766 1759 
L 2194 1759 
z
M 3341 1997 
L 3341 0 
L 2766 0 
L 2766 531 
Q 2569 213 2275 61 
Q 1981 -91 1556 -91 
Q 1019 -91 701 211 
Q 384 513 384 1019 
Q 384 1609 779 1909 
Q 1175 2209 1959 2209 
L 2766 2209 
L 2766 2266 
Q 2766 2663 2505 2880 
Q 2244 3097 1772 3097 
Q 1472 3097 1187 3025 
Q 903 2953 641 2809 
L 641 3341 
Q 956 3463 1253 3523 
Q 1550 3584 1831 3584 
Q 2591 3584 2966 3190 
Q 3341 2797 3341 1997 
z
" transform="scale(0.015625)"/>
       <path id="DejaVuSans-6e" d="M 3513 2113 
L 3513 0 
L 2938 0 
L 2938 2094 
Q 2938 2591 2744 2837 
Q 2550 3084 2163 3084 
Q 1697 3084 1428 2787 
Q 1159 2491 1159 1978 
L 1159 0 
L 581 0 
L 581 3500 
L 1159 3500 
L 1159 2956 
Q 1366 3272 1645 3428 
Q 1925 3584 2291 3584 
Q 2894 3584 3203 3211 
Q 3513 2838 3513 2113 
z
" transform="scale(0.015625)"/>
       <path id="DejaVuSans-67" d="M 2906 1791 
Q 2906 2416 2648 2759 
Q 2391 3103 1925 3103 
Q 1463 3103 1205 2759 
Q 947 2416 947 1791 
Q 947 1169 1205 825 
Q 1463 481 1925 481 
Q 2391 481 2648 825 
Q 2906 1169 2906 1791 
z
M 3481 434 
Q 3481 -459 3084 -895 
Q 2688 -1331 1869 -1331 
Q 1566 -1331 1297 -1286 
Q 1028 -1241 775 -1147 
L 775 -588 
Q 1028 -725 1275 -790 
Q 1522 -856 1778 -856 
Q 2344 -856 2625 -561 
Q 2906 -266 2906 331 
L 2906 616 
Q 2728 306 2450 153 
Q 2172 0 1784 0 
Q 1141 0 747 490 
Q 353 981 353 1791 
Q 353 2603 747 3093 
Q 1141 3584 1784 3584 
Q 2172 3584 2450 3431 
Q 2728 3278 2906 2969 
L 2906 3500 
L 3481 3500 
L 3481 434 
z
" transform="scale(0.015625)"/>
       <path id="DejaVuSans-69" d="M 603 3500 
L 1178 3500 
L 1178 0 
L 603 0 
L 603 3500 
z
M 603 4863 
L 1178 4863 
L 1178 4134 
L 603 4134 
L 603 4863 
z
" transform="scale(0.015625)"/>
       <path id="DejaVuSans-20" transform="scale(0.015625)"/>
       <path id="DejaVuSans-43" d="M 4122 4306 
L 4122 3641 
Q 3803 3938 3442 4084 
Q 3081 4231 2675 4231 
Q 1875 4231 1450 3742 
Q 1025 3253 1025 2328 
Q 1025 1406 1450 917 
Q 1875 428 2675 428 
Q 3081 428 3442 575 
Q 3803 722 4122 1019 
L 4122 359 
Q 3791 134 3420 21 
Q 3050 -91 2638 -91 
Q 1578 -91 968 557 
Q 359 1206 359 2328 
Q 359 3453 968 4101 
Q 1578 4750 2638 4750 
Q 3056 4750 3426 4639 
Q 3797 4528 4122 4306 
z
" transform="scale(0.015625)"/>
       <path id="DejaVuSans-6f" d="M 1959 3097 
Q 1497 3097 1228 2736 
Q 959 2375 959 1747 
Q 959 1119 1226 758 
Q 1494 397 1959 397 
Q 2419 397 2687 759 
Q 2956 1122 2956 1747 
Q 2956 2369 2687 2733 
Q 2419 3097 1959 3097 
z
M 1959 3584 
Q 2709 3584 3137 3096 
Q 3566 2609 3566 1747 
Q 3566 888 3137 398 
Q 2709 -91 1959 -91 
Q 1206 -91 779 398 
Q 353 888 353 1747 
Q 353 2609 779 3096 
Q 1206 3584 1959 3584 
z
" transform="scale(0.015625)"/>
       <path id="DejaVuSans-75" d="M 544 1381 
L 544 3500 
L 1119 3500 
L 1119 1403 
Q 1119 906 1312 657 
Q 1506 409 1894 409 
Q 2359 409 2629 706 
Q 2900 1003 2900 1516 
L 2900 3500 
L 3475 3500 
L 3475 0 
L 2900 0 
L 2900 538 
Q 2691 219 2414 64 
Q 2138 -91 1772 -91 
Q 1169 -91 856 284 
Q 544 659 544 1381 
z
M 1991 3584 
L 1991 3584 
z
" transform="scale(0.015625)"/>
       <path id="DejaVuSans-74" d="M 1172 4494 
L 1172 3500 
L 2356 3500 
L 2356 3053 
L 1172 3053 
L 1172 1153 
Q 1172 725 1289 603 
Q 1406 481 1766 481 
L 2356 481 
L 2356 0 
L 1766 0 
Q 1100 0 847 248 
Q 594 497 594 1153 
L 594 3053 
L 172 3053 
L 172 3500 
L 594 3500 
L 594 4494 
L 1172 4494 
z
" transform="scale(0.015625)"/>
       <path id="DejaVuSans-65" d="M 3597 1894 
L 3597 1613 
L 953 1613 
Q 991 1019 1311 708 
Q 1631 397 2203 397 
Q 2534 397 2845 478 
Q 3156 559 3463 722 
L 3463 178 
Q 3153 47 2828 -22 
Q 2503 -91 2169 -91 
Q 1331 -91 842 396 
Q 353 884 353 1716 
Q 353 2575 817 3079 
Q 1281 3584 2069 3584 
Q 2775 3584 3186 3129 
Q 3597 2675 3597 1894 
z
M 3022 2063 
Q 3016 2534 2758 2815 
Q 2500 3097 2075 3097 
Q 1594 3097 1305 2825 
Q 1016 2553 972 2059 
L 3022 2063 
z
" transform="scale(0.015625)"/>
       <path id="DejaVuSans-72" d="M 2631 2963 
Q 2534 3019 2420 3045 
Q 2306 3072 2169 3072 
Q 1681 3072 1420 2755 
Q 1159 2438 1159 1844 
L 1159 0 
L 581 0 
L 581 3500 
L 1159 3500 
L 1159 2956 
Q 1341 3275 1631 3429 
Q 1922 3584 2338 3584 
Q 2397 3584 2469 3576 
Q 2541 3569 2628 3553 
L 2631 2963 
z
" transform="scale(0.015625)"/>
      </defs>
      <use xlink:href="#DejaVuSans-52"/>
      <use xlink:href="#DejaVuSans-61" transform="translate(67.232422 0)"/>
      <use xlink:href="#DejaVuSans-6e" transform="translate(128.511719 0)"/>
      <use xlink:href="#DejaVuSans-67" transform="translate(191.890625 0)"/>
      <use xlink:href="#DejaVuSans-69" transform="translate(255.367188 0)"/>
      <use xlink:href="#DejaVuSans-6e" transform="translate(283.150391 0)"/>
      <use xlink:href="#DejaVuSans-67" transform="translate(346.529297 0)"/>
      <use xlink:href="#DejaVuSans-20" transform="translate(410.005859 0)"/>
      <use xlink:href="#DejaVuSans-43" transform="translate(441.792969 0)"/>
      <use xlink:href="#DejaVuSans-6f" transform="translate(511.617188 0)"/>
      <use xlink:href="#DejaVuSans-75" transform="translate(572.798828 0)"/>
      <use xlink:href="#DejaVuSans-6e" transform="translate(636.177734 0)"/>
      <use xlink:href="#DejaVuSans-74" transform="translate(699.556641 0)"/>
      <use xlink:href="#DejaVuSans-65" transform="translate(738.765625 0)"/>
      <use xlink:href="#DejaVuSans-72" transform="translate(800.289062 0)"/>
     </g>
    </g>
   </g>
   <g id="matplotlib.axis_2">
    <g id="ytick_1">
     <g id="line2d_17">
      <path d="M 144 497.415382 
L 1036.8 497.415382 
" clip-path="url(#paad48f8522)" style="fill: none; stroke: #b0b0b0; stroke-width: 0.8; stroke-linecap: square"/>
     </g>
     <g id="line2d_18">
      <defs>
       <path id="ma12b9d6db7" d="M 0 0 
L -3.5 0 
" style="stroke: #000000; stroke-width: 0.8"/>
      </defs>
      <g>
       <use xlink:href="#ma12b9d6db7" x="144" y="497.415382" style="stroke: #000000; stroke-width: 0.8"/>
      </g>
     </g>
     <g id="text_10">
      <!-- −3 -->
      <g transform="translate(122.257812 501.214601) scale(0.1 -0.1)">
       <defs>
        <path id="DejaVuSans-2212" d="M 678 2272 
L 4684 2272 
L 4684 1741 
L 678 1741 
L 678 2272 
z
" transform="scale(0.015625)"/>
        <path id="DejaVuSans-33" d="M 2597 2516 
Q 3050 2419 3304 2112 
Q 3559 1806 3559 1356 
Q 3559 666 3084 287 
Q 2609 -91 1734 -91 
Q 1441 -91 1130 -33 
Q 819 25 488 141 
L 488 750 
Q 750 597 1062 519 
Q 1375 441 1716 441 
Q 2309 441 2620 675 
Q 2931 909 2931 1356 
Q 2931 1769 2642 2001 
Q 2353 2234 1838 2234 
L 1294 2234 
L 1294 2753 
L 1863 2753 
Q 2328 2753 2575 2939 
Q 2822 3125 2822 3475 
Q 2822 3834 2567 4026 
Q 2313 4219 1838 4219 
Q 1578 4219 1281 4162 
Q 984 4106 628 3988 
L 628 4550 
Q 988 4650 1302 4700 
Q 1616 4750 1894 4750 
Q 2613 4750 3031 4423 
Q 3450 4097 3450 3541 
Q 3450 3153 3228 2886 
Q 3006 2619 2597 2516 
z
" transform="scale(0.015625)"/>
       </defs>
       <use xlink:href="#DejaVuSans-2212"/>
       <use xlink:href="#DejaVuSans-33" transform="translate(83.789062 0)"/>
      </g>
     </g>
    </g>
    <g id="ytick_2">
     <g id="line2d_19">
      <path d="M 144 414.588956 
L 1036.8 414.588956 
" clip-path="url(#paad48f8522)" style="fill: none; stroke: #b0b0b0; stroke-width: 0.8; stroke-linecap: square"/>
     </g>
     <g id="line2d_20">
      <g>
       <use xlink:href="#ma12b9d6db7" x="144" y="414.588956" style="stroke: #000000; stroke-width: 0.8"/>
      </g>
     </g>
     <g id="text_11">
      <!-- −2 -->
      <g transform="translate(122.257812 418.388175) scale(0.1 -0.1)">
       <use xlink:href="#DejaVuSans-2212"/>
       <use xlink:href="#DejaVuSans-32" transform="translate(83.789062 0)"/>
      </g>
     </g>
    </g>
    <g id="ytick_3">
     <g id="line2d_21">
      <path d="M 144 331.76253 
L 1036.8 331.76253 
" clip-path="url(#paad48f8522)" style="fill: none; stroke: #b0b0b0; stroke-width: 0.8; stroke-linecap: square"/>
     </g>
     <g id="line2d_22">
      <g>
       <use xlink:href="#ma12b9d6db7" x="144" y="331.76253" style="stroke: #000000; stroke-width: 0.8"/>
      </g>
     </g>
     <g id="text_12">
      <!-- −1 -->
      <g transform="translate(122.257812 335.561749) scale(0.1 -0.1)">
       <use xlink:href="#DejaVuSans-2212"/>
       <use xlink:href="#DejaVuSans-31" transform="translate(83.789062 0)"/>
      </g>
     </g>
    </g>
    <g id="ytick_4">
     <g id="line2d_23">
      <path d="M 144 248.936104 
L 1036.8 248.936104 
" clip-path="url(#paad48f8522)" style="fill: none; stroke: #b0b0b0; stroke-width: 0.8; stroke-linecap: square"/>
     </g>
     <g id="line2d_24">
      <g>
       <use xlink:href="#ma12b9d6db7" x="144" y="248.936104" style="stroke: #000000; stroke-width: 0.8"/>
      </g>
     </g>
     <g id="text_13">
      <!-- 0 -->
      <g transform="translate(130.6375 252.735322) scale(0.1 -0.1)">
       <use xlink:href="#DejaVuSans-30"/>
      </g>
     </g>
    </g>
    <g id="ytick_5">
     <g id="line2d_25">
      <path d="M 144 166.109677 
L 1036.8 166.109677 
" clip-path="url(#paad48f8522)" style="fill: none; stroke: #b0b0b0; stroke-width: 0.8; stroke-linecap: square"/>
     </g>
     <g id="line2d_26">
      <g>
       <use xlink:href="#ma12b9d6db7" x="144" y="166.109677" style="stroke: #000000; stroke-width: 0.8"/>
      </g>
     </g>
     <g id="text_14">
      <!-- 1 -->
      <g transform="translate(130.6375 169.908896) scale(0.1 -0.1)">
       <use xlink:href="#DejaVuSans-31"/>
      </g>
     </g>
    </g>
    <g id="ytick_6">
     <g id="line2d_27">
      <path d="M 144 83.283251 
L 1036.8 83.283251 
" clip-path="url(#paad48f8522)" style="fill: none; stroke: #b0b0b0; stroke-width: 0.8; stroke-linecap: square"/>
     </g>
     <g id="line2d_28">
      <g>
       <use xlink:href="#ma12b9d6db7" x="144" y="83.283251" style="stroke: #000000; stroke-width: 0.8"/>
      </g>
     </g>
     <g id="text_15">
      <!-- 2 -->
      <g transform="translate(130.6375 87.08247) scale(0.1 -0.1)">
       <use xlink:href="#DejaVuSans-32"/>
      </g>
     </g>
    </g>
    <g id="text_16">
     <!-- Unwrapped Phase (rad) -->
     <g transform="translate(116.178125 386.178281) rotate(-90) scale(0.1 -0.1)">
      <defs>
       <path id="DejaVuSans-55" d="M 556 4666 
L 1191 4666 
L 1191 1831 
Q 1191 1081 1462 751 
Q 1734 422 2344 422 
Q 2950 422 3222 751 
Q 3494 1081 3494 1831 
L 3494 4666 
L 4128 4666 
L 4128 1753 
Q 4128 841 3676 375 
Q 3225 -91 2344 -91 
Q 1459 -91 1007 375 
Q 556 841 556 1753 
L 556 4666 
z
" transform="scale(0.015625)"/>
       <path id="DejaVuSans-77" d="M 269 3500 
L 844 3500 
L 1563 769 
L 2278 3500 
L 2956 3500 
L 3675 769 
L 4391 3500 
L 4966 3500 
L 4050 0 
L 3372 0 
L 2619 2869 
L 1863 0 
L 1184 0 
L 269 3500 
z
" transform="scale(0.015625)"/>
       <path id="DejaVuSans-70" d="M 1159 525 
L 1159 -1331 
L 581 -1331 
L 581 3500 
L 1159 3500 
L 1159 2969 
Q 1341 3281 1617 3432 
Q 1894 3584 2278 3584 
Q 2916 3584 3314 3078 
Q 3713 2572 3713 1747 
Q 3713 922 3314 415 
Q 2916 -91 2278 -91 
Q 1894 -91 1617 61 
Q 1341 213 1159 525 
z
M 3116 1747 
Q 3116 2381 2855 2742 
Q 2594 3103 2138 3103 
Q 1681 3103 1420 2742 
Q 1159 2381 1159 1747 
Q 1159 1113 1420 752 
Q 1681 391 2138 391 
Q 2594 391 2855 752 
Q 3116 1113 3116 1747 
z
" transform="scale(0.015625)"/>
       <path id="DejaVuSans-64" d="M 2906 2969 
L 2906 4863 
L 3481 4863 
L 3481 0 
L 2906 0 
L 2906 525 
Q 2725 213 2448 61 
Q 2172 -91 1784 -91 
Q 1150 -91 751 415 
Q 353 922 353 1747 
Q 353 2572 751 3078 
Q 1150 3584 1784 3584 
Q 2172 3584 2448 3432 
Q 2725 3281 2906 2969 
z
M 947 1747 
Q 947 1113 1208 752 
Q 1469 391 1925 391 
Q 2381 391 2643 752 
Q 2906 1113 2906 1747 
Q 2906 2381 2643 2742 
Q 2381 3103 1925 3103 
Q 1469 3103 1208 2742 
Q 947 2381 947 1747 
z
" transform="scale(0.015625)"/>
       <path id="DejaVuSans-50" d="M 1259 4147 
L 1259 2394 
L 2053 2394 
Q 2494 2394 2734 2622 
Q 2975 2850 2975 3272 
Q 2975 3691 2734 3919 
Q 2494 4147 2053 4147 
L 1259 4147 
z
M 628 4666 
L 2053 4666 
Q 2838 4666 3239 4311 
Q 3641 3956 3641 3272 
Q 3641 2581 3239 2228 
Q 2838 1875 2053 1875 
L 1259 1875 
L 1259 0 
L 628 0 
L 628 4666 
z
" transform="scale(0.015625)"/>
       <path id="DejaVuSans-68" d="M 3513 2113 
L 3513 0 
L 2938 0 
L 2938 2094 
Q 2938 2591 2744 2837 
Q 2550 3084 2163 3084 
Q 1697 3084 1428 2787 
Q 1159 2491 1159 1978 
L 1159 0 
L 581 0 
L 581 4863 
L 1159 4863 
L 1159 2956 
Q 1366 3272 1645 3428 
Q 1925 3584 2291 3584 
Q 2894 3584 3203 3211 
Q 3513 2838 3513 2113 
z
" transform="scale(0.015625)"/>
       <path id="DejaVuSans-73" d="M 2834 3397 
L 2834 2853 
Q 2591 2978 2328 3040 
Q 2066 3103 1784 3103 
Q 1356 3103 1142 2972 
Q 928 2841 928 2578 
Q 928 2378 1081 2264 
Q 1234 2150 1697 2047 
L 1894 2003 
Q 2506 1872 2764 1633 
Q 3022 1394 3022 966 
Q 3022 478 2636 193 
Q 2250 -91 1575 -91 
Q 1294 -91 989 -36 
Q 684 19 347 128 
L 347 722 
Q 666 556 975 473 
Q 1284 391 1588 391 
Q 1994 391 2212 530 
Q 2431 669 2431 922 
Q 2431 1156 2273 1281 
Q 2116 1406 1581 1522 
L 1381 1569 
Q 847 1681 609 1914 
Q 372 2147 372 2553 
Q 372 3047 722 3315 
Q 1072 3584 1716 3584 
Q 2034 3584 2315 3537 
Q 2597 3491 2834 3397 
z
" transform="scale(0.015625)"/>
       <path id="DejaVuSans-28" d="M 1984 4856 
Q 1566 4138 1362 3434 
Q 1159 2731 1159 2009 
Q 1159 1288 1364 580 
Q 1569 -128 1984 -844 
L 1484 -844 
Q 1016 -109 783 600 
Q 550 1309 550 2009 
Q 550 2706 781 3412 
Q 1013 4119 1484 4856 
L 1984 4856 
z
" transform="scale(0.015625)"/>
       <path id="DejaVuSans-29" d="M 513 4856 
L 1013 4856 
Q 1481 4119 1714 3412 
Q 1947 2706 1947 2009 
Q 1947 1309 1714 600 
Q 1481 -109 1013 -844 
L 513 -844 
Q 928 -128 1133 580 
Q 1338 1288 1338 2009 
Q 1338 2731 1133 3434 
Q 928 4138 513 4856 
z
" transform="scale(0.015625)"/>
      </defs>
      <use xlink:href="#DejaVuSans-55"/>
      <use xlink:href="#DejaVuSans-6e" transform="translate(73.193359 0)"/>
      <use xlink:href="#DejaVuSans-77" transform="translate(136.572266 0)"/>
      <use xlink:href="#DejaVuSans-72" transform="translate(218.359375 0)"/>
      <use xlink:href="#DejaVuSans-61" transform="translate(259.472656 0)"/>
      <use xlink:href="#DejaVuSans-70" transform="translate(320.751953 0)"/>
      <use xlink:href="#DejaVuSans-70" transform="translate(384.228516 0)"/>
      <use xlink:href="#DejaVuSans-65" transform="translate(447.705078 0)"/>
      <use xlink:href="#DejaVuSans-64" transform="translate(509.228516 0)"/>
      <use xlink:href="#DejaVuSans-20" transform="translate(572.705078 0)"/>
      <use xlink:href="#DejaVuSans-50" transform="translate(604.492188 0)"/>
      <use xlink:href="#DejaVuSans-68" transform="translate(664.794922 0)"/>
      <use xlink:href="#DejaVuSans-61" transform="translate(728.173828 0)"/>
      <use xlink:href="#DejaVuSans-73" transform="translate(789.453125 0)"/>
      <use xlink:href="#DejaVuSans-65" transform="translate(841.552734 0)"/>
      <use xlink:href="#DejaVuSans-20" transform="translate(903.076172 0)"/>
      <use xlink:href="#DejaVuSans-28" transform="translate(934.863281 0)"/>
      <use xlink:href="#DejaVuSans-72" transform="translate(973.876953 0)"/>
      <use xlink:href="#DejaVuSans-61" transform="translate(1014.990234 0)"/>
      <use xlink:href="#DejaVuSans-64" transform="translate(1076.269531 0)"/>
      <use xlink:href="#DejaVuSans-29" transform="translate(1139.746094 0)"/>
     </g>
    </g>
   </g>
   <g id="line2d_29">
    <path d="M 184.581818 112.087383 
L 194.130481 117.566848 
L 203.679144 114.687056 
L 213.227807 109.25091 
L 222.776471 117.875046 
L 232.325134 114.630652 
L 241.873797 121.051439 
L 251.42246 119.127712 
L 260.971123 117.325244 
L 270.519786 121.913165 
L 280.068449 113.100351 
L 289.617112 123.568286 
L 299.165775 113.705066 
L 308.714439 119.779888 
L 318.263102 114.905801 
L 327.811765 115.58945 
L 337.360428 111.134383 
L 346.909091 116.731378 
L 356.457754 115.041968 
L 366.006417 119.704681 
L 375.55508 115.062923 
L 385.103743 119.491817 
L 394.652406 115.070294 
L 404.20107 116.646481 
L 413.749733 117.691502 
L 423.298396 108.572727 
L 432.847059 118.815705 
L 442.395722 114.662623 
L 451.944385 109.862086 
L 461.493048 116.037707 
L 471.041711 110.178483 
L 480.590374 113.973755 
L 490.139037 118.47562 
L 499.687701 109.008808 
L 509.236364 114.860164 
L 518.785027 107.912186 
L 528.33369 112.913743 
L 537.882353 114.393105 
L 547.431016 108.655305 
L 556.979679 116.865971 
L 566.528342 116.074813 
L 576.077005 108.881007 
L 585.625668 113.382375 
L 595.174332 124.172173 
L 604.722995 121.353424 
L 614.271658 112.330479 
L 623.820321 109.669514 
L 633.368984 112.365929 
L 642.917647 121.490005 
L 652.46631 111.560359 
L 662.014973 104.874693 
L 671.563636 115.148234 
L 681.112299 107.924444 
L 690.660963 120.718228 
L 700.209626 115.081476 
L 709.758289 115.582327 
L 719.306952 115.807449 
L 728.855615 113.578176 
L 738.404278 111.50619 
L 747.952941 119.534307 
L 757.501604 115.261623 
L 767.050267 120.574027 
L 776.59893 100.44 
L 786.147594 112.726224 
L 795.696257 116.297533 
L 805.24492 115.401103 
L 814.793583 105.696413 
L 824.342246 114.953178 
L 833.890909 114.930483 
L 843.439572 116.676216 
L 852.988235 118.716562 
L 862.536898 115.352484 
L 872.085561 110.338752 
L 881.634225 116.269455 
L 891.182888 112.04655 
L 900.731551 119.622269 
L 910.280214 115.786743 
L 919.828877 118.04865 
L 929.37754 114.748348 
L 938.926203 108.7923 
L 948.474866 110.897913 
L 958.023529 122.960008 
L 967.572193 112.81667 
L 977.120856 114.842439 
L 986.669519 117.161579 
L 996.218182 112.5286 
" clip-path="url(#paad48f8522)" style="fill: none; stroke: #1f77b4; stroke-width: 1.5; stroke-linecap: square"/>
   </g>
   <g id="line2d_30">
    <path d="M 184.581818 168.194833 
L 194.130481 173.806406 
L 203.679144 170.777692 
L 213.227807 164.874818 
L 222.776471 170.999998 
L 232.325134 167.294592 
L 241.873797 173.555359 
L 251.42246 169.324088 
L 260.971123 173.214363 
L 270.519786 181.579749 
L 280.068449 174.833288 
L 289.617112 173.696247 
L 299.165775 170.94202 
L 308.714439 166.889157 
L 318.263102 171.829836 
L 327.811765 167.030956 
L 337.360428 163.399266 
L 346.909091 172.696283 
L 356.457754 167.320931 
L 366.006417 171.812111 
L 375.55508 165.918514 
L 385.103743 169.853515 
L 394.652406 165.650239 
L 404.20107 171.172608 
L 413.749733 168.477105 
L 423.298396 167.467948 
L 432.847059 172.603932 
L 442.395722 166.867374 
L 451.944385 166.076878 
L 461.493048 167.963002 
L 471.041711 164.865376 
L 480.590374 166.158131 
L 490.139037 165.897973 
L 499.687701 164.743621 
L 509.236364 164.75207 
L 518.785027 169.411967 
L 528.33369 170.472394 
L 537.882353 168.722768 
L 547.431016 169.156033 
L 556.979679 171.404025 
L 566.528342 164.69583 
L 576.077005 164.429129 
L 585.625668 170.080211 
L 595.174332 172.063821 
L 604.722995 170.366376 
L 614.271658 160.762983 
L 623.820321 167.467948 
L 633.368984 171.02203 
L 642.917647 179.704724 
L 652.46631 171.812608 
L 662.014973 155.680588 
L 671.563636 165.023823 
L 681.112299 167.812009 
L 690.660963 176.551688 
L 700.209626 170.777941 
L 709.758289 175.470472 
L 719.306952 172.624804 
L 728.855615 161.588349 
L 738.404278 162.542426 
L 747.952941 167.61422 
L 757.501604 171.225452 
L 767.050267 169.089441 
L 776.59893 162.115953 
L 786.147594 172.453188 
L 795.696257 169.335767 
L 805.24492 173.317647 
L 814.793583 167.949584 
L 824.342246 168.3744 
L 833.890909 165.948083 
L 843.439572 171.05955 
L 852.988235 174.933839 
L 862.536898 178.073292 
L 872.085561 170.836664 
L 881.634225 168.113911 
L 891.182888 168.136771 
L 900.731551 174.527244 
L 910.280214 167.862036 
L 919.828877 159.315343 
L 929.37754 166.833166 
L 938.926203 167.504889 
L 948.474866 164.521315 
L 958.023529 176.182365 
L 967.572193 176.022179 
L 977.120856 174.240582 
L 986.669519 176.657789 
L 996.218182 166.324778 
" clip-path="url(#paad48f8522)" style="fill: none; stroke: #ff7f0e; stroke-width: 1.5; stroke-linecap: square"/>
   </g>
   <g id="line2d_31">
    <path d="M 184.581818 217.835526 
L 194.130481 213.147219 
L 203.679144 214.482961 
L 213.227807 210.589208 
L 222.776471 210.907096 
L 232.325134 216.449343 
L 241.873797 215.505867 
L 251.42246 217.838839 
L 260.971123 217.172004 
L 270.519786 217.867331 
L 280.068449 210.76041 
L 289.617112 215.312385 
L 299.165775 214.962195 
L 308.714439 213.545283 
L 318.263102 216.355501 
L 327.811765 216.267787 
L 337.360428 217.595412 
L 346.909091 214.872079 
L 356.457754 213.617093 
L 366.006417 212.427706 
L 375.55508 208.698363 
L 385.103743 209.09328 
L 394.652406 212.546479 
L 404.20107 217.917773 
L 413.749733 221.39963 
L 423.298396 212.486016 
L 432.847059 222.703401 
L 442.395722 214.225868 
L 451.944385 214.218993 
L 461.493048 215.689328 
L 471.041711 211.001683 
L 480.590374 218.410507 
L 490.139037 217.486247 
L 499.687701 208.892674 
L 509.236364 212.771104 
L 518.785027 213.546857 
L 528.33369 215.218791 
L 537.882353 216.913337 
L 547.431016 215.787311 
L 556.979679 212.411969 
L 566.528342 213.389486 
L 576.077005 209.050624 
L 585.625668 219.842742 
L 595.174332 220.486552 
L 604.722995 210.698124 
L 614.271658 211.3638 
L 623.820321 207.422505 
L 633.368984 213.27999 
L 642.917647 210.98429 
L 652.46631 212.63121 
L 662.014973 207.722585 
L 671.563636 214.890715 
L 681.112299 210.725043 
L 690.660963 214.445606 
L 700.209626 218.942501 
L 709.758289 210.718665 
L 719.306952 216.529353 
L 728.855615 214.208391 
L 738.404278 212.133838 
L 747.952941 214.481967 
L 757.501604 209.865388 
L 767.050267 216.604725 
L 776.59893 205.840686 
L 786.147594 217.047598 
L 795.696257 217.24986 
L 805.24492 220.73031 
L 814.793583 216.253293 
L 824.342246 218.644989 
L 833.890909 212.520886 
L 843.439572 216.408758 
L 852.988235 215.623978 
L 862.536898 213.487056 
L 872.085561 218.031328 
L 881.634225 218.874666 
L 891.182888 218.762354 
L 900.731551 207.290148 
L 910.280214 216.628911 
L 919.828877 211.733372 
L 929.37754 215.936068 
L 938.926203 209.911356 
L 948.474866 207.448098 
L 958.023529 207.939839 
L 967.572193 210.153955 
L 977.120856 213.21141 
L 986.669519 210.945444 
L 996.218182 210.918774 
" clip-path="url(#paad48f8522)" style="fill: none; stroke: #2ca02c; stroke-width: 1.5; stroke-linecap: square"/>
   </g>
   <g id="line2d_32">
    <path d="M 184.581818 272.83716 
L 194.130481 274.473644 
L 203.679144 272.869959 
L 213.227807 261.066614 
L 222.776471 267.468185 
L 232.325134 270.544359 
L 241.873797 276.246958 
L 251.42246 280.996557 
L 260.971123 272.933321 
L 270.519786 280.98082 
L 280.068449 276.216147 
L 289.617112 274.74076 
L 299.165775 268.937692 
L 308.714439 274.798324 
L 318.263102 268.546585 
L 327.811765 272.883543 
L 337.360428 271.058877 
L 346.909091 272.880395 
L 356.457754 267.501067 
L 366.006417 270.934057 
L 375.55508 265.801221 
L 385.103743 275.780397 
L 394.652406 273.730526 
L 404.20107 266.986053 
L 413.749733 267.658272 
L 423.298396 270.119956 
L 432.847059 269.781941 
L 442.395722 267.593667 
L 451.944385 266.24956 
L 461.493048 274.170748 
L 471.041711 264.717602 
L 480.590374 270.10836 
L 490.139037 272.058509 
L 499.687701 270.12799 
L 509.236364 263.087081 
L 518.785027 272.656515 
L 528.33369 273.515757 
L 537.882353 268.602824 
L 547.431016 274.034416 
L 556.979679 278.802319 
L 566.528342 271.097639 
L 576.077005 267.558218 
L 585.625668 270.298199 
L 595.174332 277.610281 
L 604.722995 276.842563 
L 614.271658 266.628325 
L 623.820321 270.205599 
L 633.368984 274.075084 
L 642.917647 273.441544 
L 652.46631 276.808687 
L 662.014973 261.564152 
L 671.563636 266.446273 
L 681.112299 273.715368 
L 690.660963 279.01452 
L 700.209626 271.662764 
L 709.758289 271.998045 
L 719.306952 269.559056 
L 728.855615 269.793454 
L 738.404278 271.018292 
L 747.952941 272.724433 
L 757.501604 276.541489 
L 767.050267 278.537026 
L 776.59893 262.175659 
L 786.147594 271.092338 
L 795.696257 264.838943 
L 805.24492 270.620725 
L 814.793583 270.690796 
L 824.342246 278.971037 
L 833.890909 262.308016 
L 843.439572 269.176977 
L 852.988235 274.854315 
L 862.536898 274.190378 
L 872.085561 268.134358 
L 881.634225 273.109328 
L 891.182888 269.938649 
L 900.731551 275.683573 
L 910.280214 273.453637 
L 919.828877 273.843252 
L 929.37754 271.618866 
L 938.926203 266.572832 
L 948.474866 262.401858 
L 958.023529 273.877625 
L 967.572193 269.202405 
L 977.120856 267.003943 
L 986.669519 272.948396 
L 996.218182 264.559156 
" clip-path="url(#paad48f8522)" style="fill: none; stroke: #d62728; stroke-width: 1.5; stroke-linecap: square"/>
   </g>
   <g id="line2d_33">
    <path d="M 184.581818 315.191944 
L 194.130481 326.162221 
L 203.679144 317.2279 
L 213.227807 322.410598 
L 222.776471 318.648622 
L 232.325134 317.178287 
L 241.873797 318.750664 
L 251.42246 321.225683 
L 260.971123 323.566607 
L 270.519786 328.767112 
L 280.068449 320.701475 
L 289.617112 317.809507 
L 299.165775 320.42881 
L 308.714439 323.9843 
L 318.263102 317.205123 
L 327.811765 313.532351 
L 337.360428 311.970824 
L 346.909091 316.851371 
L 356.457754 320.281711 
L 366.006417 325.011099 
L 375.55508 317.731402 
L 385.103743 323.691923 
L 394.652406 320.423675 
L 404.20107 320.066527 
L 413.749733 316.63536 
L 423.298396 312.216322 
L 432.847059 320.680934 
L 442.395722 309.995083 
L 451.944385 308.519944 
L 461.493048 318.334047 
L 471.041711 313.796401 
L 480.590374 318.960546 
L 490.139037 317.27594 
L 499.687701 315.783242 
L 509.236364 310.400932 
L 518.785027 319.833205 
L 528.33369 320.335382 
L 537.882353 310.44425 
L 547.431016 316.773349 
L 556.979679 318.792906 
L 566.528342 320.765831 
L 576.077005 318.863391 
L 585.625668 319.862277 
L 595.174332 327.187364 
L 604.722995 328.032856 
L 614.271658 310.901618 
L 623.820321 322.973735 
L 633.368984 314.295016 
L 642.917647 320.28726 
L 652.46631 323.989518 
L 662.014973 308.705558 
L 671.563636 324.140925 
L 681.112299 313.848665 
L 690.660963 319.583981 
L 700.209626 314.019619 
L 709.758289 320.280302 
L 719.306952 323.00554 
L 728.855615 316.678181 
L 738.404278 318.455802 
L 747.952941 324.516046 
L 757.501604 318.500777 
L 767.050267 317.215642 
L 776.59893 308.521103 
L 786.147594 316.948278 
L 795.696257 320.049879 
L 805.24492 318.615408 
L 814.793583 317.914117 
L 824.342246 317.797746 
L 833.890909 315.321816 
L 843.439572 320.295543 
L 852.988235 328.944526 
L 862.536898 316.658717 
L 872.085561 315.424603 
L 881.634225 319.924811 
L 891.182888 317.967292 
L 900.731551 327.623114 
L 910.280214 317.383034 
L 919.828877 319.272139 
L 929.37754 322.306734 
L 938.926203 317.921323 
L 948.474866 315.195505 
L 958.023529 323.653823 
L 967.572193 315.795914 
L 977.120856 321.85417 
L 986.669519 322.071921 
L 996.218182 316.942232 
" clip-path="url(#paad48f8522)" style="fill: none; stroke: #9467bd; stroke-width: 1.5; stroke-linecap: square"/>
   </g>
   <g id="line2d_34">
    <path d="M 184.581818 379.884104 
L 194.130481 377.666758 
L 203.679144 374.352541 
L 213.227807 378.8853 
L 222.776471 376.450369 
L 232.325134 373.460003 
L 241.873797 380.365657 
L 251.42246 377.942818 
L 260.971123 380.913553 
L 270.519786 385.281902 
L 280.068449 373.301142 
L 289.617112 375.874394 
L 299.165775 375.724892 
L 308.714439 381.255212 
L 318.263102 367.405889 
L 327.811765 379.885346 
L 337.360428 375.180557 
L 346.909091 376.975737 
L 356.457754 376.437034 
L 366.006417 385.622733 
L 375.55508 369.424534 
L 385.103743 377.216513 
L 394.652406 383.006991 
L 404.20107 370.920131 
L 413.749733 372.979527 
L 423.298396 374.6561 
L 432.847059 376.6195 
L 442.395722 374.886026 
L 451.944385 372.68069 
L 461.493048 376.919001 
L 471.041711 373.628555 
L 480.590374 375.914068 
L 490.139037 378.603027 
L 499.687701 371.844143 
L 509.236364 368.710073 
L 518.785027 373.828332 
L 528.33369 375.381079 
L 537.882353 370.81196 
L 547.431016 382.000982 
L 556.979679 384.818488 
L 566.528342 373.821955 
L 576.077005 371.715099 
L 585.625668 371.628877 
L 595.174332 380.633434 
L 604.722995 381.937702 
L 614.271658 373.913644 
L 623.820321 378.260126 
L 633.368984 380.150474 
L 642.917647 380.503397 
L 652.46631 377.115134 
L 662.014973 370.718863 
L 671.563636 376.621157 
L 681.112299 366.171609 
L 690.660963 380.495114 
L 700.209626 376.522593 
L 709.758289 382.6843 
L 719.306952 378.185996 
L 728.855615 369.188148 
L 738.404278 373.891281 
L 747.952941 377.75679 
L 757.501604 373.898238 
L 767.050267 378.360346 
L 776.59893 369.48682 
L 786.147594 369.187319 
L 795.696257 372.974144 
L 805.24492 373.247554 
L 814.793583 376.945091 
L 824.342246 376.683691 
L 833.890909 374.69304 
L 843.439572 372.691871 
L 852.988235 381.168576 
L 862.536898 378.275449 
L 872.085561 381.465177 
L 881.634225 377.625427 
L 891.182888 371.075265 
L 900.731551 380.579763 
L 910.280214 375.102866 
L 919.828877 372.754654 
L 929.37754 375.499687 
L 938.926203 374.647983 
L 948.474866 362.799497 
L 958.023529 374.588431 
L 967.572193 376.301861 
L 977.120856 377.557427 
L 986.669519 380.106079 
L 996.218182 377.113725 
" clip-path="url(#paad48f8522)" style="fill: none; stroke: #8c564b; stroke-width: 1.5; stroke-linecap: square"/>
   </g>
   <g id="line2d_35">
    <path d="M 184.581818 428.531708 
L 194.130481 438.495065 
L 203.679144 430.154858 
L 213.227807 433.408611 
L 222.776471 431.345239 
L 232.325134 428.829221 
L 241.873797 430.721887 
L 251.42246 432.54879 
L 260.971123 430.913631 
L 270.519786 434.105181 
L 280.068449 433.074324 
L 289.617112 433.703556 
L 299.165775 422.922868 
L 308.714439 431.394769 
L 318.263102 431.437425 
L 327.811765 431.634386 
L 337.360428 432.05208 
L 346.909091 435.589845 
L 356.457754 420.791744 
L 366.006417 434.434416 
L 375.55508 420.443045 
L 385.103743 434.094165 
L 394.652406 429.172122 
L 404.20107 429.776258 
L 413.749733 430.893338 
L 423.298396 432.516819 
L 432.847059 427.938837 
L 442.395722 426.356272 
L 451.944385 430.113196 
L 461.493048 428.413598 
L 471.041711 425.020779 
L 480.590374 432.946274 
L 490.139037 429.670323 
L 499.687701 421.544719 
L 509.236364 424.281802 
L 518.785027 427.738065 
L 528.33369 431.496397 
L 537.882353 433.803693 
L 547.431016 429.464831 
L 556.979679 432.504229 
L 566.528342 430.35389 
L 576.077005 426.770984 
L 585.625668 428.95023 
L 595.174332 436.664435 
L 604.722995 431.985156 
L 614.271658 421.097374 
L 623.820321 423.051912 
L 633.368984 430.957115 
L 642.917647 430.902201 
L 652.46631 433.669928 
L 662.014973 423.960766 
L 671.563636 428.627041 
L 681.112299 427.776663 
L 690.660963 434.554929 
L 700.209626 434.971629 
L 709.758289 433.824565 
L 719.306952 434.685132 
L 728.855615 434.233397 
L 738.404278 428.370859 
L 747.952941 435.717149 
L 757.501604 431.840044 
L 767.050267 439.673768 
L 776.59893 427.37396 
L 786.147594 432.291365 
L 795.696257 430.472331 
L 805.24492 433.674235 
L 814.793583 427.657227 
L 824.342246 430.533623 
L 833.890909 425.245901 
L 843.439572 433.859601 
L 852.988235 433.901842 
L 862.536898 436.637434 
L 872.085561 429.92137 
L 881.634225 428.597969 
L 891.182888 429.308123 
L 900.731551 431.026854 
L 910.280214 430.752865 
L 919.828877 429.971977 
L 929.37754 436.206074 
L 938.926203 426.865655 
L 948.474866 426.728991 
L 958.023529 429.166987 
L 967.572193 434.069069 
L 977.120856 432.420492 
L 986.669519 429.519082 
L 996.218182 430.654798 
" clip-path="url(#paad48f8522)" style="fill: none; stroke: #e377c2; stroke-width: 1.5; stroke-linecap: square"/>
   </g>
   <g id="line2d_36">
    <path d="M 184.581818 493.951084 
L 194.130481 496.392559 
L 203.679144 492.718461 
L 213.227807 491.062513 
L 222.776471 487.76569 
L 232.325134 488.198872 
L 241.873797 495.23829 
L 251.42246 498.612556 
L 260.971123 495.185281 
L 270.519786 491.888541 
L 280.068449 490.651031 
L 289.617112 491.849364 
L 299.165775 491.435314 
L 308.714439 489.909155 
L 318.263102 490.665526 
L 327.811765 492.766584 
L 337.360428 493.288224 
L 346.909091 499.347226 
L 356.457754 489.279591 
L 366.006417 495.107838 
L 375.55508 482.835695 
L 385.103743 489.59955 
L 394.652406 491.575208 
L 404.20107 495.587155 
L 413.749733 498.687679 
L 423.298396 493.509454 
L 432.847059 493.207303 
L 442.395722 488.627664 
L 451.944385 485.840969 
L 461.493048 494.080128 
L 471.041711 482.713857 
L 480.590374 487.383114 
L 490.139037 488.197381 
L 499.687701 484.2237 
L 509.236364 483.950539 
L 518.785027 490.557354 
L 528.33369 495.095746 
L 537.882353 487.365141 
L 547.431016 493.977506 
L 556.979679 498.535527 
L 566.528342 489.44748 
L 576.077005 483.831517 
L 585.625668 496.418484 
L 595.174332 495.611588 
L 604.722995 493.107828 
L 614.271658 486.30372 
L 623.820321 488.82653 
L 633.368984 493.870494 
L 642.917647 492.248007 
L 652.46631 500.465051 
L 662.014973 482.168611 
L 671.563636 493.585903 
L 681.112299 485.231201 
L 690.660963 498.171588 
L 700.209626 489.684281 
L 709.758289 498.434313 
L 719.306952 490.516521 
L 728.855615 486.234974 
L 738.404278 489.1937 
L 747.952941 495.415207 
L 757.501604 488.599586 
L 767.050267 492.969591 
L 776.59893 480.224012 
L 786.147594 485.554141 
L 795.696257 500.277615 
L 805.24492 493.189992 
L 814.793583 496.833941 
L 824.342246 494.688736 
L 833.890909 486.050437 
L 843.439572 489.590687 
L 852.988235 499.474447 
L 862.536898 495.621362 
L 872.085561 495.028905 
L 881.634225 496.422542 
L 891.182888 491.246719 
L 900.731551 492.106208 
L 910.280214 490.707436 
L 919.828877 490.84236 
L 929.37754 495.572577 
L 938.926203 480.642783 
L 948.474866 482.186999 
L 958.023529 497.160443 
L 967.572193 491.686113 
L 977.120856 494.846852 
L 986.669519 493.787585 
L 996.218182 493.161997 
" clip-path="url(#paad48f8522)" style="fill: none; stroke: #7f7f7f; stroke-width: 1.5; stroke-linecap: square"/>
   </g>
   <g id="line2d_37">
    <path d="M 184.581818 537.71839 
L 194.130481 546.017681 
L 203.679144 540.415715 
L 213.227807 545.648938 
L 222.776471 536.691839 
L 232.325134 544.138763 
L 241.873797 549.728139 
L 251.42246 544.383847 
L 260.971123 546.058514 
L 270.519786 549.334879 
L 280.068449 548.605096 
L 289.617112 543.121241 
L 299.165775 536.718344 
L 308.714439 550.2492 
L 318.263102 543.677006 
L 327.811765 541.290445 
L 337.360428 534.915627 
L 346.909091 540.54302 
L 356.457754 544.849911 
L 366.006417 544.287188 
L 375.55508 536.508213 
L 385.103743 538.524705 
L 394.652406 538.910594 
L 404.20107 544.621559 
L 413.749733 543.446666 
L 423.298396 536.741784 
L 432.847059 541.341384 
L 442.395722 546.651883 
L 451.944385 535.829865 
L 461.493048 544.900684 
L 471.041711 537.661654 
L 480.590374 540.793321 
L 490.139037 536.130608 
L 499.687701 534.288631 
L 509.236364 538.722992 
L 518.785027 544.850242 
L 528.33369 544.512642 
L 537.882353 541.678487 
L 547.431016 542.847002 
L 556.979679 548.835187 
L 566.528342 537.429574 
L 576.077005 535.741158 
L 585.625668 541.209441 
L 595.174332 544.917083 
L 604.722995 543.000728 
L 614.271658 534.380071 
L 623.820321 546.329936 
L 633.368984 541.239838 
L 642.917647 539.147891 
L 652.46631 549.340677 
L 662.014973 529.353418 
L 671.563636 537.933904 
L 681.112299 540.110749 
L 690.660963 540.505002 
L 700.209626 541.290611 
L 709.758289 550.152376 
L 719.306952 541.294338 
L 728.855615 539.580245 
L 738.404278 539.613045 
L 747.952941 543.876369 
L 757.501604 546.009647 
L 767.050267 554.04 
L 776.59893 530.021579 
L 786.147594 548.504461 
L 795.696257 540.142471 
L 805.24492 540.142637 
L 814.793583 540.172786 
L 824.342246 544.161955 
L 833.890909 538.124737 
L 843.439572 543.129523 
L 852.988235 546.720463 
L 862.536898 544.954852 
L 872.085561 542.819753 
L 881.634225 544.874925 
L 891.182888 541.434895 
L 900.731551 547.837874 
L 910.280214 539.873782 
L 919.828877 540.917064 
L 929.37754 535.974314 
L 938.926203 535.613108 
L 948.474866 538.207314 
L 958.023529 546.669276 
L 967.572193 541.553419 
L 977.120856 540.544925 
L 986.669519 547.589561 
L 996.218182 548.027795 
" clip-path="url(#paad48f8522)" style="fill: none; stroke: #bcbd22; stroke-width: 1.5; stroke-linecap: square"/>
   </g>
   <g id="patch_3">
    <path d="M 144 576.72 
L 144 77.76 
" style="fill: none; stroke: #000000; stroke-width: 0.8; stroke-linejoin: miter; stroke-linecap: square"/>
   </g>
   <g id="patch_4">
    <path d="M 1036.8 576.72 
L 1036.8 77.76 
" style="fill: none; stroke: #000000; stroke-width: 0.8; stroke-linejoin: miter; stroke-linecap: square"/>
   </g>
   <g id="patch_5">
    <path d="M 144 576.72 
L 1036.8 576.72 
" style="fill: none; stroke: #000000; stroke-width: 0.8; stroke-linejoin: miter; stroke-linecap: square"/>
   </g>
   <g id="patch_6">
    <path d="M 144 77.76 
L 1036.8 77.76 
" style="fill: none; stroke: #000000; stroke-width: 0.8; stroke-linejoin: miter; stroke-linecap: square"/>
   </g>
   <g id="text_17">
    <!-- Channel Phase Variation Over Ranging Counters -->
    <g transform="translate(445.562812 71.76) scale(0.12 -0.12)">
     <defs>
      <path id="DejaVuSans-6c" d="M 603 4863 
L 1178 4863 
L 1178 0 
L 603 0 
L 603 4863 
z
" transform="scale(0.015625)"/>
      <path id="DejaVuSans-56" d="M 1831 0 
L 50 4666 
L 709 4666 
L 2188 738 
L 3669 4666 
L 4325 4666 
L 2547 0 
L 1831 0 
z
" transform="scale(0.015625)"/>
      <path id="DejaVuSans-4f" d="M 2522 4238 
Q 1834 4238 1429 3725 
Q 1025 3213 1025 2328 
Q 1025 1447 1429 934 
Q 1834 422 2522 422 
Q 3209 422 3611 934 
Q 4013 1447 4013 2328 
Q 4013 3213 3611 3725 
Q 3209 4238 2522 4238 
z
M 2522 4750 
Q 3503 4750 4090 4092 
Q 4678 3434 4678 2328 
Q 4678 1225 4090 567 
Q 3503 -91 2522 -91 
Q 1538 -91 948 565 
Q 359 1222 359 2328 
Q 359 3434 948 4092 
Q 1538 4750 2522 4750 
z
" transform="scale(0.015625)"/>
      <path id="DejaVuSans-76" d="M 191 3500 
L 800 3500 
L 1894 563 
L 2988 3500 
L 3597 3500 
L 2284 0 
L 1503 0 
L 191 3500 
z
" transform="scale(0.015625)"/>
     </defs>
     <use xlink:href="#DejaVuSans-43"/>
     <use xlink:href="#DejaVuSans-68" transform="translate(69.824219 0)"/>
     <use xlink:href="#DejaVuSans-61" transform="translate(133.203125 0)"/>
     <use xlink:href="#DejaVuSans-6e" transform="translate(194.482422 0)"/>
     <use xlink:href="#DejaVuSans-6e" transform="translate(257.861328 0)"/>
     <use xlink:href="#DejaVuSans-65" transform="translate(321.240234 0)"/>
     <use xlink:href="#DejaVuSans-6c" transform="translate(382.763672 0)"/>
     <use xlink:href="#DejaVuSans-20" transform="translate(410.546875 0)"/>
     <use xlink:href="#DejaVuSans-50" transform="translate(442.333984 0)"/>
     <use xlink:href="#DejaVuSans-68" transform="translate(502.636719 0)"/>
     <use xlink:href="#DejaVuSans-61" transform="translate(566.015625 0)"/>
     <use xlink:href="#DejaVuSans-73" transform="translate(627.294922 0)"/>
     <use xlink:href="#DejaVuSans-65" transform="translate(679.394531 0)"/>
     <use xlink:href="#DejaVuSans-20" transform="translate(740.917969 0)"/>
     <use xlink:href="#DejaVuSans-56" transform="translate(772.705078 0)"/>
     <use xlink:href="#DejaVuSans-61" transform="translate(833.363281 0)"/>
     <use xlink:href="#DejaVuSans-72" transform="translate(894.642578 0)"/>
     <use xlink:href="#DejaVuSans-69" transform="translate(935.755859 0)"/>
     <use xlink:href="#DejaVuSans-61" transform="translate(963.539062 0)"/>
     <use xlink:href="#DejaVuSans-74" transform="translate(1024.818359 0)"/>
     <use xlink:href="#DejaVuSans-69" transform="translate(1064.027344 0)"/>
     <use xlink:href="#DejaVuSans-6f" transform="translate(1091.810547 0)"/>
     <use xlink:href="#DejaVuSans-6e" transform="translate(1152.992188 0)"/>
     <use xlink:href="#DejaVuSans-20" transform="translate(1216.371094 0)"/>
     <use xlink:href="#DejaVuSans-4f" transform="translate(1248.158203 0)"/>
     <use xlink:href="#DejaVuSans-76" transform="translate(1326.869141 0)"/>
     <use xlink:href="#DejaVuSans-65" transform="translate(1386.048828 0)"/>
     <use xlink:href="#DejaVuSans-72" transform="translate(1447.572266 0)"/>
     <use xlink:href="#DejaVuSans-20" transform="translate(1488.685547 0)"/>
     <use xlink:href="#DejaVuSans-52" transform="translate(1520.472656 0)"/>
     <use xlink:href="#DejaVuSans-61" transform="translate(1587.705078 0)"/>
     <use xlink:href="#DejaVuSans-6e" transform="translate(1648.984375 0)"/>
     <use xlink:href="#DejaVuSans-67" transform="translate(1712.363281 0)"/>
     <use xlink:href="#DejaVuSans-69" transform="translate(1775.839844 0)"/>
     <use xlink:href="#DejaVuSans-6e" transform="translate(1803.623047 0)"/>
     <use xlink:href="#DejaVuSans-67" transform="translate(1867.001953 0)"/>
     <use xlink:href="#DejaVuSans-20" transform="translate(1930.478516 0)"/>
     <use xlink:href="#DejaVuSans-43" transform="translate(1962.265625 0)"/>
     <use xlink:href="#DejaVuSans-6f" transform="translate(2032.089844 0)"/>
     <use xlink:href="#DejaVuSans-75" transform="translate(2093.271484 0)"/>
     <use xlink:href="#DejaVuSans-6e" transform="translate(2156.650391 0)"/>
     <use xlink:href="#DejaVuSans-74" transform="translate(2220.029297 0)"/>
     <use xlink:href="#DejaVuSans-65" transform="translate(2259.238281 0)"/>
     <use xlink:href="#DejaVuSans-72" transform="translate(2320.761719 0)"/>
     <use xlink:href="#DejaVuSans-73" transform="translate(2361.875 0)"/>
    </g>
   </g>
   <g id="legend_1">
    <g id="patch_7">
     <path d="M 940.842187 571.72 
L 1029.8 571.72 
Q 1031.8 571.72 1031.8 569.72 
L 1031.8 438.616875 
Q 1031.8 436.616875 1029.8 436.616875 
L 940.842187 436.616875 
Q 938.842187 436.616875 938.842187 438.616875 
L 938.842187 569.72 
Q 938.842187 571.72 940.842187 571.72 
z
" style="fill: #ffffff; opacity: 0.8; stroke: #cccccc; stroke-linejoin: miter"/>
    </g>
    <g id="line2d_38">
     <path d="M 942.842187 444.715313 
L 952.842187 444.715313 
L 962.842187 444.715313 
" style="fill: none; stroke: #1f77b4; stroke-width: 1.5; stroke-linecap: square"/>
    </g>
    <g id="text_18">
     <!-- Channel 2 -->
     <g transform="translate(970.842187 448.215313) scale(0.1 -0.1)">
      <use xlink:href="#DejaVuSans-43"/>
      <use xlink:href="#DejaVuSans-68" transform="translate(69.824219 0)"/>
      <use xlink:href="#DejaVuSans-61" transform="translate(133.203125 0)"/>
      <use xlink:href="#DejaVuSans-6e" transform="translate(194.482422 0)"/>
      <use xlink:href="#DejaVuSans-6e" transform="translate(257.861328 0)"/>
      <use xlink:href="#DejaVuSans-65" transform="translate(321.240234 0)"/>
      <use xlink:href="#DejaVuSans-6c" transform="translate(382.763672 0)"/>
      <use xlink:href="#DejaVuSans-20" transform="translate(410.546875 0)"/>
      <use xlink:href="#DejaVuSans-32" transform="translate(442.333984 0)"/>
     </g>
    </g>
    <g id="line2d_39">
     <path d="M 942.842187 459.393438 
L 952.842187 459.393438 
L 962.842187 459.393438 
" style="fill: none; stroke: #ff7f0e; stroke-width: 1.5; stroke-linecap: square"/>
    </g>
    <g id="text_19">
     <!-- Channel 8 -->
     <g transform="translate(970.842187 462.893438) scale(0.1 -0.1)">
      <defs>
       <path id="DejaVuSans-38" d="M 2034 2216 
Q 1584 2216 1326 1975 
Q 1069 1734 1069 1313 
Q 1069 891 1326 650 
Q 1584 409 2034 409 
Q 2484 409 2743 651 
Q 3003 894 3003 1313 
Q 3003 1734 2745 1975 
Q 2488 2216 2034 2216 
z
M 1403 2484 
Q 997 2584 770 2862 
Q 544 3141 544 3541 
Q 544 4100 942 4425 
Q 1341 4750 2034 4750 
Q 2731 4750 3128 4425 
Q 3525 4100 3525 3541 
Q 3525 3141 3298 2862 
Q 3072 2584 2669 2484 
Q 3125 2378 3379 2068 
Q 3634 1759 3634 1313 
Q 3634 634 3220 271 
Q 2806 -91 2034 -91 
Q 1263 -91 848 271 
Q 434 634 434 1313 
Q 434 1759 690 2068 
Q 947 2378 1403 2484 
z
M 1172 3481 
Q 1172 3119 1398 2916 
Q 1625 2713 2034 2713 
Q 2441 2713 2670 2916 
Q 2900 3119 2900 3481 
Q 2900 3844 2670 4047 
Q 2441 4250 2034 4250 
Q 1625 4250 1398 4047 
Q 1172 3844 1172 3481 
z
" transform="scale(0.015625)"/>
      </defs>
      <use xlink:href="#DejaVuSans-43"/>
      <use xlink:href="#DejaVuSans-68" transform="translate(69.824219 0)"/>
      <use xlink:href="#DejaVuSans-61" transform="translate(133.203125 0)"/>
      <use xlink:href="#DejaVuSans-6e" transform="translate(194.482422 0)"/>
      <use xlink:href="#DejaVuSans-6e" transform="translate(257.861328 0)"/>
      <use xlink:href="#DejaVuSans-65" transform="translate(321.240234 0)"/>
      <use xlink:href="#DejaVuSans-6c" transform="translate(382.763672 0)"/>
      <use xlink:href="#DejaVuSans-20" transform="translate(410.546875 0)"/>
      <use xlink:href="#DejaVuSans-38" transform="translate(442.333984 0)"/>
     </g>
    </g>
    <g id="line2d_40">
     <path d="M 942.842187 474.071563 
L 952.842187 474.071563 
L 962.842187 474.071563 
" style="fill: none; stroke: #2ca02c; stroke-width: 1.5; stroke-linecap: square"/>
    </g>
    <g id="text_20">
     <!-- Channel 14 -->
     <g transform="translate(970.842187 477.571563) scale(0.1 -0.1)">
      <defs>
       <path id="DejaVuSans-34" d="M 2419 4116 
L 825 1625 
L 2419 1625 
L 2419 4116 
z
M 2253 4666 
L 3047 4666 
L 3047 1625 
L 3713 1625 
L 3713 1100 
L 3047 1100 
L 3047 0 
L 2419 0 
L 2419 1100 
L 313 1100 
L 313 1709 
L 2253 4666 
z
" transform="scale(0.015625)"/>
      </defs>
      <use xlink:href="#DejaVuSans-43"/>
      <use xlink:href="#DejaVuSans-68" transform="translate(69.824219 0)"/>
      <use xlink:href="#DejaVuSans-61" transform="translate(133.203125 0)"/>
      <use xlink:href="#DejaVuSans-6e" transform="translate(194.482422 0)"/>
      <use xlink:href="#DejaVuSans-6e" transform="translate(257.861328 0)"/>
      <use xlink:href="#DejaVuSans-65" transform="translate(321.240234 0)"/>
      <use xlink:href="#DejaVuSans-6c" transform="translate(382.763672 0)"/>
      <use xlink:href="#DejaVuSans-20" transform="translate(410.546875 0)"/>
      <use xlink:href="#DejaVuSans-31" transform="translate(442.333984 0)"/>
      <use xlink:href="#DejaVuSans-34" transform="translate(505.957031 0)"/>
     </g>
    </g>
    <g id="line2d_41">
     <path d="M 942.842187 488.749688 
L 952.842187 488.749688 
L 962.842187 488.749688 
" style="fill: none; stroke: #d62728; stroke-width: 1.5; stroke-linecap: square"/>
    </g>
    <g id="text_21">
     <!-- Channel 20 -->
     <g transform="translate(970.842187 492.249688) scale(0.1 -0.1)">
      <use xlink:href="#DejaVuSans-43"/>
      <use xlink:href="#DejaVuSans-68" transform="translate(69.824219 0)"/>
      <use xlink:href="#DejaVuSans-61" transform="translate(133.203125 0)"/>
      <use xlink:href="#DejaVuSans-6e" transform="translate(194.482422 0)"/>
      <use xlink:href="#DejaVuSans-6e" transform="translate(257.861328 0)"/>
      <use xlink:href="#DejaVuSans-65" transform="translate(321.240234 0)"/>
      <use xlink:href="#DejaVuSans-6c" transform="translate(382.763672 0)"/>
      <use xlink:href="#DejaVuSans-20" transform="translate(410.546875 0)"/>
      <use xlink:href="#DejaVuSans-32" transform="translate(442.333984 0)"/>
      <use xlink:href="#DejaVuSans-30" transform="translate(505.957031 0)"/>
     </g>
    </g>
    <g id="line2d_42">
     <path d="M 942.842187 503.427813 
L 952.842187 503.427813 
L 962.842187 503.427813 
" style="fill: none; stroke: #9467bd; stroke-width: 1.5; stroke-linecap: square"/>
    </g>
    <g id="text_22">
     <!-- Channel 26 -->
     <g transform="translate(970.842187 506.927813) scale(0.1 -0.1)">
      <defs>
       <path id="DejaVuSans-36" d="M 2113 2584 
Q 1688 2584 1439 2293 
Q 1191 2003 1191 1497 
Q 1191 994 1439 701 
Q 1688 409 2113 409 
Q 2538 409 2786 701 
Q 3034 994 3034 1497 
Q 3034 2003 2786 2293 
Q 2538 2584 2113 2584 
z
M 3366 4563 
L 3366 3988 
Q 3128 4100 2886 4159 
Q 2644 4219 2406 4219 
Q 1781 4219 1451 3797 
Q 1122 3375 1075 2522 
Q 1259 2794 1537 2939 
Q 1816 3084 2150 3084 
Q 2853 3084 3261 2657 
Q 3669 2231 3669 1497 
Q 3669 778 3244 343 
Q 2819 -91 2113 -91 
Q 1303 -91 875 529 
Q 447 1150 447 2328 
Q 447 3434 972 4092 
Q 1497 4750 2381 4750 
Q 2619 4750 2861 4703 
Q 3103 4656 3366 4563 
z
" transform="scale(0.015625)"/>
      </defs>
      <use xlink:href="#DejaVuSans-43"/>
      <use xlink:href="#DejaVuSans-68" transform="translate(69.824219 0)"/>
      <use xlink:href="#DejaVuSans-61" transform="translate(133.203125 0)"/>
      <use xlink:href="#DejaVuSans-6e" transform="translate(194.482422 0)"/>
      <use xlink:href="#DejaVuSans-6e" transform="translate(257.861328 0)"/>
      <use xlink:href="#DejaVuSans-65" transform="translate(321.240234 0)"/>
      <use xlink:href="#DejaVuSans-6c" transform="translate(382.763672 0)"/>
      <use xlink:href="#DejaVuSans-20" transform="translate(410.546875 0)"/>
      <use xlink:href="#DejaVuSans-32" transform="translate(442.333984 0)"/>
      <use xlink:href="#DejaVuSans-36" transform="translate(505.957031 0)"/>
     </g>
    </g>
    <g id="line2d_43">
     <path d="M 942.842187 518.105937 
L 952.842187 518.105937 
L 962.842187 518.105937 
" style="fill: none; stroke: #8c564b; stroke-width: 1.5; stroke-linecap: square"/>
    </g>
    <g id="text_23">
     <!-- Channel 32 -->
     <g transform="translate(970.842187 521.605937) scale(0.1 -0.1)">
      <use xlink:href="#DejaVuSans-43"/>
      <use xlink:href="#DejaVuSans-68" transform="translate(69.824219 0)"/>
      <use xlink:href="#DejaVuSans-61" transform="translate(133.203125 0)"/>
      <use xlink:href="#DejaVuSans-6e" transform="translate(194.482422 0)"/>
      <use xlink:href="#DejaVuSans-6e" transform="translate(257.861328 0)"/>
      <use xlink:href="#DejaVuSans-65" transform="translate(321.240234 0)"/>
      <use xlink:href="#DejaVuSans-6c" transform="translate(382.763672 0)"/>
      <use xlink:href="#DejaVuSans-20" transform="translate(410.546875 0)"/>
      <use xlink:href="#DejaVuSans-33" transform="translate(442.333984 0)"/>
      <use xlink:href="#DejaVuSans-32" transform="translate(505.957031 0)"/>
     </g>
    </g>
    <g id="line2d_44">
     <path d="M 942.842187 532.784063 
L 952.842187 532.784063 
L 962.842187 532.784063 
" style="fill: none; stroke: #e377c2; stroke-width: 1.5; stroke-linecap: square"/>
    </g>
    <g id="text_24">
     <!-- Channel 38 -->
     <g transform="translate(970.842187 536.284063) scale(0.1 -0.1)">
      <use xlink:href="#DejaVuSans-43"/>
      <use xlink:href="#DejaVuSans-68" transform="translate(69.824219 0)"/>
      <use xlink:href="#DejaVuSans-61" transform="translate(133.203125 0)"/>
      <use xlink:href="#DejaVuSans-6e" transform="translate(194.482422 0)"/>
      <use xlink:href="#DejaVuSans-6e" transform="translate(257.861328 0)"/>
      <use xlink:href="#DejaVuSans-65" transform="translate(321.240234 0)"/>
      <use xlink:href="#DejaVuSans-6c" transform="translate(382.763672 0)"/>
      <use xlink:href="#DejaVuSans-20" transform="translate(410.546875 0)"/>
      <use xlink:href="#DejaVuSans-33" transform="translate(442.333984 0)"/>
      <use xlink:href="#DejaVuSans-38" transform="translate(505.957031 0)"/>
     </g>
    </g>
    <g id="line2d_45">
     <path d="M 942.842187 547.462188 
L 952.842187 547.462188 
L 962.842187 547.462188 
" style="fill: none; stroke: #7f7f7f; stroke-width: 1.5; stroke-linecap: square"/>
    </g>
    <g id="text_25">
     <!-- Channel 44 -->
     <g transform="translate(970.842187 550.962188) scale(0.1 -0.1)">
      <use xlink:href="#DejaVuSans-43"/>
      <use xlink:href="#DejaVuSans-68" transform="translate(69.824219 0)"/>
      <use xlink:href="#DejaVuSans-61" transform="translate(133.203125 0)"/>
      <use xlink:href="#DejaVuSans-6e" transform="translate(194.482422 0)"/>
      <use xlink:href="#DejaVuSans-6e" transform="translate(257.861328 0)"/>
      <use xlink:href="#DejaVuSans-65" transform="translate(321.240234 0)"/>
      <use xlink:href="#DejaVuSans-6c" transform="translate(382.763672 0)"/>
      <use xlink:href="#DejaVuSans-20" transform="translate(410.546875 0)"/>
      <use xlink:href="#DejaVuSans-34" transform="translate(442.333984 0)"/>
      <use xlink:href="#DejaVuSans-34" transform="translate(505.957031 0)"/>
     </g>
    </g>
    <g id="line2d_46">
     <path d="M 942.842187 562.140313 
L 952.842187 562.140313 
L 962.842187 562.140313 
" style="fill: none; stroke: #bcbd22; stroke-width: 1.5; stroke-linecap: square"/>
    </g>
    <g id="text_26">
     <!-- Channel 50 -->
     <g transform="translate(970.842187 565.640313) scale(0.1 -0.1)">
      <use xlink:href="#DejaVuSans-43"/>
      <use xlink:href="#DejaVuSans-68" transform="translate(69.824219 0)"/>
      <use xlink:href="#DejaVuSans-61" transform="translate(133.203125 0)"/>
      <use xlink:href="#DejaVuSans-6e" transform="translate(194.482422 0)"/>
      <use xlink:href="#DejaVuSans-6e" transform="translate(257.861328 0)"/>
      <use xlink:href="#DejaVuSans-65" transform="translate(321.240234 0)"/>
      <use xlink:href="#DejaVuSans-6c" transform="translate(382.763672 0)"/>
      <use xlink:href="#DejaVuSans-20" transform="translate(410.546875 0)"/>
      <use xlink:href="#DejaVuSans-35" transform="translate(442.333984 0)"/>
      <use xlink:href="#DejaVuSans-30" transform="translate(505.957031 0)"/>
     </g>
    </g>
   </g>
  </g>
 </g>
 <defs>
  <clipPath id="paad48f8522">
   <rect x="144" y="77.76" width="892.8" height="498.96"/>
  </clipPath>
 </defs>
</svg>
