<?xml version="1.0" encoding="utf-8" standalone="no"?>
<!DOCTYPE svg PUBLIC "-//W3C//DTD SVG 1.1//EN"
  "http://www.w3.org/Graphics/SVG/1.1/DTD/svg11.dtd">
<svg xmlns:xlink="http://www.w3.org/1999/xlink" width="1152pt" height="648pt" viewBox="0 0 1152 648" xmlns="http://www.w3.org/2000/svg" version="1.1">
 <metadata>
  <rdf:RDF xmlns:dc="http://purl.org/dc/elements/1.1/" xmlns:cc="http://creativecommons.org/ns#" xmlns:rdf="http://www.w3.org/1999/02/22-rdf-syntax-ns#">
   <cc:Work>
    <dc:type rdf:resource="http://purl.org/dc/dcmitype/StillImage"/>
    <dc:date>2025-05-15T15:08:28.403384</dc:date>
    <dc:format>image/svg+xml</dc:format>
    <dc:creator>
     <cc:Agent>
      <dc:title>Matplotlib v3.10.1, https://matplotlib.org/</dc:title>
     </cc:Agent>
    </dc:creator>
   </cc:Work>
  </rdf:RDF>
 </metadata>
 <defs>
  <style type="text/css">*{stroke-linejoin: round; stroke-linecap: butt}</style>
 </defs>
 <g id="figure_1">
  <g id="patch_1">
   <path d="M 0 648 
L 1152 648 
L 1152 0 
L 0 0 
z
" style="fill: #ffffff"/>
  </g>
  <g id="axes_1">
   <g id="patch_2">
    <path d="M 144 576.72 
L 1036.8 576.72 
L 1036.8 77.76 
L 144 77.76 
z
" style="fill: #ffffff"/>
   </g>
   <g id="matplotlib.axis_1">
    <g id="xtick_1">
     <g id="line2d_1">
      <path d="M 184.581818 576.72 
L 184.581818 77.76 
" clip-path="url(#pe79e04bb71)" style="fill: none; stroke: #b0b0b0; stroke-width: 0.8; stroke-linecap: square"/>
     </g>
     <g id="line2d_2">
      <defs>
       <path id="m0cc492dbc8" d="M 0 0 
L 0 3.5 
" style="stroke: #000000; stroke-width: 0.8"/>
      </defs>
      <g>
       <use xlink:href="#m0cc492dbc8" x="184.581818" y="576.72" style="stroke: #000000; stroke-width: 0.8"/>
      </g>
     </g>
     <g id="text_1">
      <!-- 0 -->
      <g transform="translate(181.400568 591.318438) scale(0.1 -0.1)">
       <defs>
        <path id="DejaVuSans-30" d="M 2034 4250 
Q 1547 4250 1301 3770 
Q 1056 3291 1056 2328 
Q 1056 1369 1301 889 
Q 1547 409 2034 409 
Q 2525 409 2770 889 
Q 3016 1369 3016 2328 
Q 3016 3291 2770 3770 
Q 2525 4250 2034 4250 
z
M 2034 4750 
Q 2819 4750 3233 4129 
Q 3647 3509 3647 2328 
Q 3647 1150 3233 529 
Q 2819 -91 2034 -91 
Q 1250 -91 836 529 
Q 422 1150 422 2328 
Q 422 3509 836 4129 
Q 1250 4750 2034 4750 
z
" transform="scale(0.015625)"/>
       </defs>
       <use xlink:href="#DejaVuSans-30"/>
      </g>
     </g>
    </g>
    <g id="xtick_2">
     <g id="line2d_3">
      <path d="M 365.750649 576.72 
L 365.750649 77.76 
" clip-path="url(#pe79e04bb71)" style="fill: none; stroke: #b0b0b0; stroke-width: 0.8; stroke-linecap: square"/>
     </g>
     <g id="line2d_4">
      <g>
       <use xlink:href="#m0cc492dbc8" x="365.750649" y="576.72" style="stroke: #000000; stroke-width: 0.8"/>
      </g>
     </g>
     <g id="text_2">
      <!-- 100 -->
      <g transform="translate(356.206899 591.318438) scale(0.1 -0.1)">
       <defs>
        <path id="DejaVuSans-31" d="M 794 531 
L 1825 531 
L 1825 4091 
L 703 3866 
L 703 4441 
L 1819 4666 
L 2450 4666 
L 2450 531 
L 3481 531 
L 3481 0 
L 794 0 
L 794 531 
z
" transform="scale(0.015625)"/>
       </defs>
       <use xlink:href="#DejaVuSans-31"/>
       <use xlink:href="#DejaVuSans-30" transform="translate(63.623047 0)"/>
       <use xlink:href="#DejaVuSans-30" transform="translate(127.246094 0)"/>
      </g>
     </g>
    </g>
    <g id="xtick_3">
     <g id="line2d_5">
      <path d="M 546.919481 576.72 
L 546.919481 77.76 
" clip-path="url(#pe79e04bb71)" style="fill: none; stroke: #b0b0b0; stroke-width: 0.8; stroke-linecap: square"/>
     </g>
     <g id="line2d_6">
      <g>
       <use xlink:href="#m0cc492dbc8" x="546.919481" y="576.72" style="stroke: #000000; stroke-width: 0.8"/>
      </g>
     </g>
     <g id="text_3">
      <!-- 200 -->
      <g transform="translate(537.375731 591.318438) scale(0.1 -0.1)">
       <defs>
        <path id="DejaVuSans-32" d="M 1228 531 
L 3431 531 
L 3431 0 
L 469 0 
L 469 531 
Q 828 903 1448 1529 
Q 2069 2156 2228 2338 
Q 2531 2678 2651 2914 
Q 2772 3150 2772 3378 
Q 2772 3750 2511 3984 
Q 2250 4219 1831 4219 
Q 1534 4219 1204 4116 
Q 875 4013 500 3803 
L 500 4441 
Q 881 4594 1212 4672 
Q 1544 4750 1819 4750 
Q 2544 4750 2975 4387 
Q 3406 4025 3406 3419 
Q 3406 3131 3298 2873 
Q 3191 2616 2906 2266 
Q 2828 2175 2409 1742 
Q 1991 1309 1228 531 
z
" transform="scale(0.015625)"/>
       </defs>
       <use xlink:href="#DejaVuSans-32"/>
       <use xlink:href="#DejaVuSans-30" transform="translate(63.623047 0)"/>
       <use xlink:href="#DejaVuSans-30" transform="translate(127.246094 0)"/>
      </g>
     </g>
    </g>
    <g id="xtick_4">
     <g id="line2d_7">
      <path d="M 728.088312 576.72 
L 728.088312 77.76 
" clip-path="url(#pe79e04bb71)" style="fill: none; stroke: #b0b0b0; stroke-width: 0.8; stroke-linecap: square"/>
     </g>
     <g id="line2d_8">
      <g>
       <use xlink:href="#m0cc492dbc8" x="728.088312" y="576.72" style="stroke: #000000; stroke-width: 0.8"/>
      </g>
     </g>
     <g id="text_4">
      <!-- 300 -->
      <g transform="translate(718.544562 591.318438) scale(0.1 -0.1)">
       <defs>
        <path id="DejaVuSans-33" d="M 2597 2516 
Q 3050 2419 3304 2112 
Q 3559 1806 3559 1356 
Q 3559 666 3084 287 
Q 2609 -91 1734 -91 
Q 1441 -91 1130 -33 
Q 819 25 488 141 
L 488 750 
Q 750 597 1062 519 
Q 1375 441 1716 441 
Q 2309 441 2620 675 
Q 2931 909 2931 1356 
Q 2931 1769 2642 2001 
Q 2353 2234 1838 2234 
L 1294 2234 
L 1294 2753 
L 1863 2753 
Q 2328 2753 2575 2939 
Q 2822 3125 2822 3475 
Q 2822 3834 2567 4026 
Q 2313 4219 1838 4219 
Q 1578 4219 1281 4162 
Q 984 4106 628 3988 
L 628 4550 
Q 988 4650 1302 4700 
Q 1616 4750 1894 4750 
Q 2613 4750 3031 4423 
Q 3450 4097 3450 3541 
Q 3450 3153 3228 2886 
Q 3006 2619 2597 2516 
z
" transform="scale(0.015625)"/>
       </defs>
       <use xlink:href="#DejaVuSans-33"/>
       <use xlink:href="#DejaVuSans-30" transform="translate(63.623047 0)"/>
       <use xlink:href="#DejaVuSans-30" transform="translate(127.246094 0)"/>
      </g>
     </g>
    </g>
    <g id="xtick_5">
     <g id="line2d_9">
      <path d="M 909.257143 576.72 
L 909.257143 77.76 
" clip-path="url(#pe79e04bb71)" style="fill: none; stroke: #b0b0b0; stroke-width: 0.8; stroke-linecap: square"/>
     </g>
     <g id="line2d_10">
      <g>
       <use xlink:href="#m0cc492dbc8" x="909.257143" y="576.72" style="stroke: #000000; stroke-width: 0.8"/>
      </g>
     </g>
     <g id="text_5">
      <!-- 400 -->
      <g transform="translate(899.713393 591.318438) scale(0.1 -0.1)">
       <defs>
        <path id="DejaVuSans-34" d="M 2419 4116 
L 825 1625 
L 2419 1625 
L 2419 4116 
z
M 2253 4666 
L 3047 4666 
L 3047 1625 
L 3713 1625 
L 3713 1100 
L 3047 1100 
L 3047 0 
L 2419 0 
L 2419 1100 
L 313 1100 
L 313 1709 
L 2253 4666 
z
" transform="scale(0.015625)"/>
       </defs>
       <use xlink:href="#DejaVuSans-34"/>
       <use xlink:href="#DejaVuSans-30" transform="translate(63.623047 0)"/>
       <use xlink:href="#DejaVuSans-30" transform="translate(127.246094 0)"/>
      </g>
     </g>
    </g>
    <g id="text_6">
     <!-- Ranging Counter -->
     <g transform="translate(548.329687 604.996562) scale(0.1 -0.1)">
      <defs>
       <path id="DejaVuSans-52" d="M 2841 2188 
Q 3044 2119 3236 1894 
Q 3428 1669 3622 1275 
L 4263 0 
L 3584 0 
L 2988 1197 
Q 2756 1666 2539 1819 
Q 2322 1972 1947 1972 
L 1259 1972 
L 1259 0 
L 628 0 
L 628 4666 
L 2053 4666 
Q 2853 4666 3247 4331 
Q 3641 3997 3641 3322 
Q 3641 2881 3436 2590 
Q 3231 2300 2841 2188 
z
M 1259 4147 
L 1259 2491 
L 2053 2491 
Q 2509 2491 2742 2702 
Q 2975 2913 2975 3322 
Q 2975 3731 2742 3939 
Q 2509 4147 2053 4147 
L 1259 4147 
z
" transform="scale(0.015625)"/>
       <path id="DejaVuSans-61" d="M 2194 1759 
Q 1497 1759 1228 1600 
Q 959 1441 959 1056 
Q 959 750 1161 570 
Q 1363 391 1709 391 
Q 2188 391 2477 730 
Q 2766 1069 2766 1631 
L 2766 1759 
L 2194 1759 
z
M 3341 1997 
L 3341 0 
L 2766 0 
L 2766 531 
Q 2569 213 2275 61 
Q 1981 -91 1556 -91 
Q 1019 -91 701 211 
Q 384 513 384 1019 
Q 384 1609 779 1909 
Q 1175 2209 1959 2209 
L 2766 2209 
L 2766 2266 
Q 2766 2663 2505 2880 
Q 2244 3097 1772 3097 
Q 1472 3097 1187 3025 
Q 903 2953 641 2809 
L 641 3341 
Q 956 3463 1253 3523 
Q 1550 3584 1831 3584 
Q 2591 3584 2966 3190 
Q 3341 2797 3341 1997 
z
" transform="scale(0.015625)"/>
       <path id="DejaVuSans-6e" d="M 3513 2113 
L 3513 0 
L 2938 0 
L 2938 2094 
Q 2938 2591 2744 2837 
Q 2550 3084 2163 3084 
Q 1697 3084 1428 2787 
Q 1159 2491 1159 1978 
L 1159 0 
L 581 0 
L 581 3500 
L 1159 3500 
L 1159 2956 
Q 1366 3272 1645 3428 
Q 1925 3584 2291 3584 
Q 2894 3584 3203 3211 
Q 3513 2838 3513 2113 
z
" transform="scale(0.015625)"/>
       <path id="DejaVuSans-67" d="M 2906 1791 
Q 2906 2416 2648 2759 
Q 2391 3103 1925 3103 
Q 1463 3103 1205 2759 
Q 947 2416 947 1791 
Q 947 1169 1205 825 
Q 1463 481 1925 481 
Q 2391 481 2648 825 
Q 2906 1169 2906 1791 
z
M 3481 434 
Q 3481 -459 3084 -895 
Q 2688 -1331 1869 -1331 
Q 1566 -1331 1297 -1286 
Q 1028 -1241 775 -1147 
L 775 -588 
Q 1028 -725 1275 -790 
Q 1522 -856 1778 -856 
Q 2344 -856 2625 -561 
Q 2906 -266 2906 331 
L 2906 616 
Q 2728 306 2450 153 
Q 2172 0 1784 0 
Q 1141 0 747 490 
Q 353 981 353 1791 
Q 353 2603 747 3093 
Q 1141 3584 1784 3584 
Q 2172 3584 2450 3431 
Q 2728 3278 2906 2969 
L 2906 3500 
L 3481 3500 
L 3481 434 
z
" transform="scale(0.015625)"/>
       <path id="DejaVuSans-69" d="M 603 3500 
L 1178 3500 
L 1178 0 
L 603 0 
L 603 3500 
z
M 603 4863 
L 1178 4863 
L 1178 4134 
L 603 4134 
L 603 4863 
z
" transform="scale(0.015625)"/>
       <path id="DejaVuSans-20" transform="scale(0.015625)"/>
       <path id="DejaVuSans-43" d="M 4122 4306 
L 4122 3641 
Q 3803 3938 3442 4084 
Q 3081 4231 2675 4231 
Q 1875 4231 1450 3742 
Q 1025 3253 1025 2328 
Q 1025 1406 1450 917 
Q 1875 428 2675 428 
Q 3081 428 3442 575 
Q 3803 722 4122 1019 
L 4122 359 
Q 3791 134 3420 21 
Q 3050 -91 2638 -91 
Q 1578 -91 968 557 
Q 359 1206 359 2328 
Q 359 3453 968 4101 
Q 1578 4750 2638 4750 
Q 3056 4750 3426 4639 
Q 3797 4528 4122 4306 
z
" transform="scale(0.015625)"/>
       <path id="DejaVuSans-6f" d="M 1959 3097 
Q 1497 3097 1228 2736 
Q 959 2375 959 1747 
Q 959 1119 1226 758 
Q 1494 397 1959 397 
Q 2419 397 2687 759 
Q 2956 1122 2956 1747 
Q 2956 2369 2687 2733 
Q 2419 3097 1959 3097 
z
M 1959 3584 
Q 2709 3584 3137 3096 
Q 3566 2609 3566 1747 
Q 3566 888 3137 398 
Q 2709 -91 1959 -91 
Q 1206 -91 779 398 
Q 353 888 353 1747 
Q 353 2609 779 3096 
Q 1206 3584 1959 3584 
z
" transform="scale(0.015625)"/>
       <path id="DejaVuSans-75" d="M 544 1381 
L 544 3500 
L 1119 3500 
L 1119 1403 
Q 1119 906 1312 657 
Q 1506 409 1894 409 
Q 2359 409 2629 706 
Q 2900 1003 2900 1516 
L 2900 3500 
L 3475 3500 
L 3475 0 
L 2900 0 
L 2900 538 
Q 2691 219 2414 64 
Q 2138 -91 1772 -91 
Q 1169 -91 856 284 
Q 544 659 544 1381 
z
M 1991 3584 
L 1991 3584 
z
" transform="scale(0.015625)"/>
       <path id="DejaVuSans-74" d="M 1172 4494 
L 1172 3500 
L 2356 3500 
L 2356 3053 
L 1172 3053 
L 1172 1153 
Q 1172 725 1289 603 
Q 1406 481 1766 481 
L 2356 481 
L 2356 0 
L 1766 0 
Q 1100 0 847 248 
Q 594 497 594 1153 
L 594 3053 
L 172 3053 
L 172 3500 
L 594 3500 
L 594 4494 
L 1172 4494 
z
" transform="scale(0.015625)"/>
       <path id="DejaVuSans-65" d="M 3597 1894 
L 3597 1613 
L 953 1613 
Q 991 1019 1311 708 
Q 1631 397 2203 397 
Q 2534 397 2845 478 
Q 3156 559 3463 722 
L 3463 178 
Q 3153 47 2828 -22 
Q 2503 -91 2169 -91 
Q 1331 -91 842 396 
Q 353 884 353 1716 
Q 353 2575 817 3079 
Q 1281 3584 2069 3584 
Q 2775 3584 3186 3129 
Q 3597 2675 3597 1894 
z
M 3022 2063 
Q 3016 2534 2758 2815 
Q 2500 3097 2075 3097 
Q 1594 3097 1305 2825 
Q 1016 2553 972 2059 
L 3022 2063 
z
" transform="scale(0.015625)"/>
       <path id="DejaVuSans-72" d="M 2631 2963 
Q 2534 3019 2420 3045 
Q 2306 3072 2169 3072 
Q 1681 3072 1420 2755 
Q 1159 2438 1159 1844 
L 1159 0 
L 581 0 
L 581 3500 
L 1159 3500 
L 1159 2956 
Q 1341 3275 1631 3429 
Q 1922 3584 2338 3584 
Q 2397 3584 2469 3576 
Q 2541 3569 2628 3553 
L 2631 2963 
z
" transform="scale(0.015625)"/>
      </defs>
      <use xlink:href="#DejaVuSans-52"/>
      <use xlink:href="#DejaVuSans-61" transform="translate(67.232422 0)"/>
      <use xlink:href="#DejaVuSans-6e" transform="translate(128.511719 0)"/>
      <use xlink:href="#DejaVuSans-67" transform="translate(191.890625 0)"/>
      <use xlink:href="#DejaVuSans-69" transform="translate(255.367188 0)"/>
      <use xlink:href="#DejaVuSans-6e" transform="translate(283.150391 0)"/>
      <use xlink:href="#DejaVuSans-67" transform="translate(346.529297 0)"/>
      <use xlink:href="#DejaVuSans-20" transform="translate(410.005859 0)"/>
      <use xlink:href="#DejaVuSans-43" transform="translate(441.792969 0)"/>
      <use xlink:href="#DejaVuSans-6f" transform="translate(511.617188 0)"/>
      <use xlink:href="#DejaVuSans-75" transform="translate(572.798828 0)"/>
      <use xlink:href="#DejaVuSans-6e" transform="translate(636.177734 0)"/>
      <use xlink:href="#DejaVuSans-74" transform="translate(699.556641 0)"/>
      <use xlink:href="#DejaVuSans-65" transform="translate(738.765625 0)"/>
      <use xlink:href="#DejaVuSans-72" transform="translate(800.289062 0)"/>
     </g>
    </g>
   </g>
   <g id="matplotlib.axis_2">
    <g id="ytick_1">
     <g id="line2d_11">
      <path d="M 144 511.290677 
L 1036.8 511.290677 
" clip-path="url(#pe79e04bb71)" style="fill: none; stroke: #b0b0b0; stroke-width: 0.8; stroke-linecap: square"/>
     </g>
     <g id="line2d_12">
      <defs>
       <path id="mfc335f448f" d="M 0 0 
L -3.5 0 
" style="stroke: #000000; stroke-width: 0.8"/>
      </defs>
      <g>
       <use xlink:href="#mfc335f448f" x="144" y="511.290677" style="stroke: #000000; stroke-width: 0.8"/>
      </g>
     </g>
     <g id="text_7">
      <!-- −10 -->
      <g transform="translate(115.895313 515.089896) scale(0.1 -0.1)">
       <defs>
        <path id="DejaVuSans-2212" d="M 678 2272 
L 4684 2272 
L 4684 1741 
L 678 1741 
L 678 2272 
z
" transform="scale(0.015625)"/>
       </defs>
       <use xlink:href="#DejaVuSans-2212"/>
       <use xlink:href="#DejaVuSans-31" transform="translate(83.789062 0)"/>
       <use xlink:href="#DejaVuSans-30" transform="translate(147.412109 0)"/>
      </g>
     </g>
    </g>
    <g id="ytick_2">
     <g id="line2d_13">
      <path d="M 144 431.489216 
L 1036.8 431.489216 
" clip-path="url(#pe79e04bb71)" style="fill: none; stroke: #b0b0b0; stroke-width: 0.8; stroke-linecap: square"/>
     </g>
     <g id="line2d_14">
      <g>
       <use xlink:href="#mfc335f448f" x="144" y="431.489216" style="stroke: #000000; stroke-width: 0.8"/>
      </g>
     </g>
     <g id="text_8">
      <!-- −8 -->
      <g transform="translate(122.257812 435.288435) scale(0.1 -0.1)">
       <defs>
        <path id="DejaVuSans-38" d="M 2034 2216 
Q 1584 2216 1326 1975 
Q 1069 1734 1069 1313 
Q 1069 891 1326 650 
Q 1584 409 2034 409 
Q 2484 409 2743 651 
Q 3003 894 3003 1313 
Q 3003 1734 2745 1975 
Q 2488 2216 2034 2216 
z
M 1403 2484 
Q 997 2584 770 2862 
Q 544 3141 544 3541 
Q 544 4100 942 4425 
Q 1341 4750 2034 4750 
Q 2731 4750 3128 4425 
Q 3525 4100 3525 3541 
Q 3525 3141 3298 2862 
Q 3072 2584 2669 2484 
Q 3125 2378 3379 2068 
Q 3634 1759 3634 1313 
Q 3634 634 3220 271 
Q 2806 -91 2034 -91 
Q 1263 -91 848 271 
Q 434 634 434 1313 
Q 434 1759 690 2068 
Q 947 2378 1403 2484 
z
M 1172 3481 
Q 1172 3119 1398 2916 
Q 1625 2713 2034 2713 
Q 2441 2713 2670 2916 
Q 2900 3119 2900 3481 
Q 2900 3844 2670 4047 
Q 2441 4250 2034 4250 
Q 1625 4250 1398 4047 
Q 1172 3844 1172 3481 
z
" transform="scale(0.015625)"/>
       </defs>
       <use xlink:href="#DejaVuSans-2212"/>
       <use xlink:href="#DejaVuSans-38" transform="translate(83.789062 0)"/>
      </g>
     </g>
    </g>
    <g id="ytick_3">
     <g id="line2d_15">
      <path d="M 144 351.687756 
L 1036.8 351.687756 
" clip-path="url(#pe79e04bb71)" style="fill: none; stroke: #b0b0b0; stroke-width: 0.8; stroke-linecap: square"/>
     </g>
     <g id="line2d_16">
      <g>
       <use xlink:href="#mfc335f448f" x="144" y="351.687756" style="stroke: #000000; stroke-width: 0.8"/>
      </g>
     </g>
     <g id="text_9">
      <!-- −6 -->
      <g transform="translate(122.257812 355.486975) scale(0.1 -0.1)">
       <defs>
        <path id="DejaVuSans-36" d="M 2113 2584 
Q 1688 2584 1439 2293 
Q 1191 2003 1191 1497 
Q 1191 994 1439 701 
Q 1688 409 2113 409 
Q 2538 409 2786 701 
Q 3034 994 3034 1497 
Q 3034 2003 2786 2293 
Q 2538 2584 2113 2584 
z
M 3366 4563 
L 3366 3988 
Q 3128 4100 2886 4159 
Q 2644 4219 2406 4219 
Q 1781 4219 1451 3797 
Q 1122 3375 1075 2522 
Q 1259 2794 1537 2939 
Q 1816 3084 2150 3084 
Q 2853 3084 3261 2657 
Q 3669 2231 3669 1497 
Q 3669 778 3244 343 
Q 2819 -91 2113 -91 
Q 1303 -91 875 529 
Q 447 1150 447 2328 
Q 447 3434 972 4092 
Q 1497 4750 2381 4750 
Q 2619 4750 2861 4703 
Q 3103 4656 3366 4563 
z
" transform="scale(0.015625)"/>
       </defs>
       <use xlink:href="#DejaVuSans-2212"/>
       <use xlink:href="#DejaVuSans-36" transform="translate(83.789062 0)"/>
      </g>
     </g>
    </g>
    <g id="ytick_4">
     <g id="line2d_17">
      <path d="M 144 271.886296 
L 1036.8 271.886296 
" clip-path="url(#pe79e04bb71)" style="fill: none; stroke: #b0b0b0; stroke-width: 0.8; stroke-linecap: square"/>
     </g>
     <g id="line2d_18">
      <g>
       <use xlink:href="#mfc335f448f" x="144" y="271.886296" style="stroke: #000000; stroke-width: 0.8"/>
      </g>
     </g>
     <g id="text_10">
      <!-- −4 -->
      <g transform="translate(122.257812 275.685514) scale(0.1 -0.1)">
       <use xlink:href="#DejaVuSans-2212"/>
       <use xlink:href="#DejaVuSans-34" transform="translate(83.789062 0)"/>
      </g>
     </g>
    </g>
    <g id="ytick_5">
     <g id="line2d_19">
      <path d="M 144 192.084835 
L 1036.8 192.084835 
" clip-path="url(#pe79e04bb71)" style="fill: none; stroke: #b0b0b0; stroke-width: 0.8; stroke-linecap: square"/>
     </g>
     <g id="line2d_20">
      <g>
       <use xlink:href="#mfc335f448f" x="144" y="192.084835" style="stroke: #000000; stroke-width: 0.8"/>
      </g>
     </g>
     <g id="text_11">
      <!-- −2 -->
      <g transform="translate(122.257812 195.884054) scale(0.1 -0.1)">
       <use xlink:href="#DejaVuSans-2212"/>
       <use xlink:href="#DejaVuSans-32" transform="translate(83.789062 0)"/>
      </g>
     </g>
    </g>
    <g id="ytick_6">
     <g id="line2d_21">
      <path d="M 144 112.283375 
L 1036.8 112.283375 
" clip-path="url(#pe79e04bb71)" style="fill: none; stroke: #b0b0b0; stroke-width: 0.8; stroke-linecap: square"/>
     </g>
     <g id="line2d_22">
      <g>
       <use xlink:href="#mfc335f448f" x="144" y="112.283375" style="stroke: #000000; stroke-width: 0.8"/>
      </g>
     </g>
     <g id="text_12">
      <!-- 0 -->
      <g transform="translate(130.6375 116.082593) scale(0.1 -0.1)">
       <use xlink:href="#DejaVuSans-30"/>
      </g>
     </g>
    </g>
    <g id="text_13">
     <!-- Unwrapped Phase (rad) -->
     <g transform="translate(109.815625 386.178281) rotate(-90) scale(0.1 -0.1)">
      <defs>
       <path id="DejaVuSans-55" d="M 556 4666 
L 1191 4666 
L 1191 1831 
Q 1191 1081 1462 751 
Q 1734 422 2344 422 
Q 2950 422 3222 751 
Q 3494 1081 3494 1831 
L 3494 4666 
L 4128 4666 
L 4128 1753 
Q 4128 841 3676 375 
Q 3225 -91 2344 -91 
Q 1459 -91 1007 375 
Q 556 841 556 1753 
L 556 4666 
z
" transform="scale(0.015625)"/>
       <path id="DejaVuSans-77" d="M 269 3500 
L 844 3500 
L 1563 769 
L 2278 3500 
L 2956 3500 
L 3675 769 
L 4391 3500 
L 4966 3500 
L 4050 0 
L 3372 0 
L 2619 2869 
L 1863 0 
L 1184 0 
L 269 3500 
z
" transform="scale(0.015625)"/>
       <path id="DejaVuSans-70" d="M 1159 525 
L 1159 -1331 
L 581 -1331 
L 581 3500 
L 1159 3500 
L 1159 2969 
Q 1341 3281 1617 3432 
Q 1894 3584 2278 3584 
Q 2916 3584 3314 3078 
Q 3713 2572 3713 1747 
Q 3713 922 3314 415 
Q 2916 -91 2278 -91 
Q 1894 -91 1617 61 
Q 1341 213 1159 525 
z
M 3116 1747 
Q 3116 2381 2855 2742 
Q 2594 3103 2138 3103 
Q 1681 3103 1420 2742 
Q 1159 2381 1159 1747 
Q 1159 1113 1420 752 
Q 1681 391 2138 391 
Q 2594 391 2855 752 
Q 3116 1113 3116 1747 
z
" transform="scale(0.015625)"/>
       <path id="DejaVuSans-64" d="M 2906 2969 
L 2906 4863 
L 3481 4863 
L 3481 0 
L 2906 0 
L 2906 525 
Q 2725 213 2448 61 
Q 2172 -91 1784 -91 
Q 1150 -91 751 415 
Q 353 922 353 1747 
Q 353 2572 751 3078 
Q 1150 3584 1784 3584 
Q 2172 3584 2448 3432 
Q 2725 3281 2906 2969 
z
M 947 1747 
Q 947 1113 1208 752 
Q 1469 391 1925 391 
Q 2381 391 2643 752 
Q 2906 1113 2906 1747 
Q 2906 2381 2643 2742 
Q 2381 3103 1925 3103 
Q 1469 3103 1208 2742 
Q 947 2381 947 1747 
z
" transform="scale(0.015625)"/>
       <path id="DejaVuSans-50" d="M 1259 4147 
L 1259 2394 
L 2053 2394 
Q 2494 2394 2734 2622 
Q 2975 2850 2975 3272 
Q 2975 3691 2734 3919 
Q 2494 4147 2053 4147 
L 1259 4147 
z
M 628 4666 
L 2053 4666 
Q 2838 4666 3239 4311 
Q 3641 3956 3641 3272 
Q 3641 2581 3239 2228 
Q 2838 1875 2053 1875 
L 1259 1875 
L 1259 0 
L 628 0 
L 628 4666 
z
" transform="scale(0.015625)"/>
       <path id="DejaVuSans-68" d="M 3513 2113 
L 3513 0 
L 2938 0 
L 2938 2094 
Q 2938 2591 2744 2837 
Q 2550 3084 2163 3084 
Q 1697 3084 1428 2787 
Q 1159 2491 1159 1978 
L 1159 0 
L 581 0 
L 581 4863 
L 1159 4863 
L 1159 2956 
Q 1366 3272 1645 3428 
Q 1925 3584 2291 3584 
Q 2894 3584 3203 3211 
Q 3513 2838 3513 2113 
z
" transform="scale(0.015625)"/>
       <path id="DejaVuSans-73" d="M 2834 3397 
L 2834 2853 
Q 2591 2978 2328 3040 
Q 2066 3103 1784 3103 
Q 1356 3103 1142 2972 
Q 928 2841 928 2578 
Q 928 2378 1081 2264 
Q 1234 2150 1697 2047 
L 1894 2003 
Q 2506 1872 2764 1633 
Q 3022 1394 3022 966 
Q 3022 478 2636 193 
Q 2250 -91 1575 -91 
Q 1294 -91 989 -36 
Q 684 19 347 128 
L 347 722 
Q 666 556 975 473 
Q 1284 391 1588 391 
Q 1994 391 2212 530 
Q 2431 669 2431 922 
Q 2431 1156 2273 1281 
Q 2116 1406 1581 1522 
L 1381 1569 
Q 847 1681 609 1914 
Q 372 2147 372 2553 
Q 372 3047 722 3315 
Q 1072 3584 1716 3584 
Q 2034 3584 2315 3537 
Q 2597 3491 2834 3397 
z
" transform="scale(0.015625)"/>
       <path id="DejaVuSans-28" d="M 1984 4856 
Q 1566 4138 1362 3434 
Q 1159 2731 1159 2009 
Q 1159 1288 1364 580 
Q 1569 -128 1984 -844 
L 1484 -844 
Q 1016 -109 783 600 
Q 550 1309 550 2009 
Q 550 2706 781 3412 
Q 1013 4119 1484 4856 
L 1984 4856 
z
" transform="scale(0.015625)"/>
       <path id="DejaVuSans-29" d="M 513 4856 
L 1013 4856 
Q 1481 4119 1714 3412 
Q 1947 2706 1947 2009 
Q 1947 1309 1714 600 
Q 1481 -109 1013 -844 
L 513 -844 
Q 928 -128 1133 580 
Q 1338 1288 1338 2009 
Q 1338 2731 1133 3434 
Q 928 4138 513 4856 
z
" transform="scale(0.015625)"/>
      </defs>
      <use xlink:href="#DejaVuSans-55"/>
      <use xlink:href="#DejaVuSans-6e" transform="translate(73.193359 0)"/>
      <use xlink:href="#DejaVuSans-77" transform="translate(136.572266 0)"/>
      <use xlink:href="#DejaVuSans-72" transform="translate(218.359375 0)"/>
      <use xlink:href="#DejaVuSans-61" transform="translate(259.472656 0)"/>
      <use xlink:href="#DejaVuSans-70" transform="translate(320.751953 0)"/>
      <use xlink:href="#DejaVuSans-70" transform="translate(384.228516 0)"/>
      <use xlink:href="#DejaVuSans-65" transform="translate(447.705078 0)"/>
      <use xlink:href="#DejaVuSans-64" transform="translate(509.228516 0)"/>
      <use xlink:href="#DejaVuSans-20" transform="translate(572.705078 0)"/>
      <use xlink:href="#DejaVuSans-50" transform="translate(604.492188 0)"/>
      <use xlink:href="#DejaVuSans-68" transform="translate(664.794922 0)"/>
      <use xlink:href="#DejaVuSans-61" transform="translate(728.173828 0)"/>
      <use xlink:href="#DejaVuSans-73" transform="translate(789.453125 0)"/>
      <use xlink:href="#DejaVuSans-65" transform="translate(841.552734 0)"/>
      <use xlink:href="#DejaVuSans-20" transform="translate(903.076172 0)"/>
      <use xlink:href="#DejaVuSans-28" transform="translate(934.863281 0)"/>
      <use xlink:href="#DejaVuSans-72" transform="translate(973.876953 0)"/>
      <use xlink:href="#DejaVuSans-61" transform="translate(1014.990234 0)"/>
      <use xlink:href="#DejaVuSans-64" transform="translate(1076.269531 0)"/>
      <use xlink:href="#DejaVuSans-29" transform="translate(1139.746094 0)"/>
     </g>
    </g>
   </g>
   <g id="line2d_23">
    <path d="M 184.581818 217.774082 
L 188.205195 218.693954 
L 191.828571 217.275762 
L 195.451948 217.776875 
L 199.075325 219.943605 
L 202.698701 216.015138 
L 206.322078 216.941913 
L 213.568831 219.368915 
L 217.192208 213.636975 
L 220.815584 221.024755 
L 224.438961 218.22516 
L 228.062338 223.057897 
L 231.685714 218.172571 
L 235.309091 216.383662 
L 238.932468 218.280183 
L 242.555844 218.210317 
L 246.179221 218.507458 
L 249.802597 218.131473 
L 257.049351 218.371795 
L 260.672727 216.741013 
L 264.296104 217.933007 
L 267.919481 218.57876 
L 271.542857 216.869094 
L 275.166234 221.896466 
L 278.78961 218.332932 
L 282.412987 219.817638 
L 286.036364 219.433753 
L 289.65974 219.796371 
L 293.283117 219.997391 
L 296.906494 218.318608 
L 300.52987 216.907438 
L 304.153247 214.787832 
L 307.776623 216.983569 
L 311.4 221.410675 
L 315.023377 221.110063 
L 318.646753 220.289744 
L 322.27013 215.617169 
L 325.893506 219.500148 
L 329.516883 224.927366 
L 333.14026 220.488569 
L 336.763636 222.919481 
L 340.387013 219.253522 
L 344.01039 213.369201 
L 347.633766 217.508144 
L 351.257143 222.209966 
L 354.880519 219.910806 
L 358.503896 217.904837 
L 362.127273 222.535317 
L 365.750649 219.936263 
L 369.374026 221.321616 
L 372.997403 218.226477 
L 376.620779 217.812906 
L 387.490909 219.140204 
L 391.114286 218.093328 
L 394.737662 212.938792 
L 398.361039 221.808485 
L 401.984416 218.743311 
L 405.607792 222.551676 
L 409.231169 218.802843 
L 412.854545 219.81269 
L 416.477922 219.705956 
L 420.101299 215.320307 
L 423.724675 217.959062 
L 427.348052 219.639082 
L 430.971429 215.214211 
L 434.594805 219.783483 
L 438.218182 218.113199 
L 441.841558 221.376679 
L 445.464935 220.160385 
L 449.088312 217.13595 
L 452.711688 217.195123 
L 456.335065 217.861625 
L 459.958442 215.977273 
L 463.581818 217.591177 
L 467.205195 220.356777 
L 470.828571 217.239333 
L 474.451948 217.910463 
L 478.075325 217.409988 
L 481.698701 217.647278 
L 485.322078 217.188499 
L 488.945455 216.121873 
L 492.568831 217.824238 
L 496.192208 222.421719 
L 499.815584 220.60871 
L 503.438961 216.096177 
L 507.062338 217.601591 
L 510.685714 219.544677 
L 514.309091 216.641899 
L 517.932468 215.490803 
L 521.555844 216.804694 
L 525.179221 213.159204 
L 528.802597 221.105514 
L 532.425974 220.308976 
L 536.049351 220.80969 
L 539.672727 218.227754 
L 543.296104 218.865647 
L 546.919481 219.770835 
L 550.542857 224.072732 
L 554.166234 221.409238 
L 557.78961 217.733463 
L 561.412987 220.041242 
L 565.036364 217.042901 
L 568.65974 219.550383 
L 572.283117 216.514297 
L 575.906494 219.113111 
L 579.52987 218.234497 
L 583.153247 218.400364 
L 586.776623 219.914318 
L 590.4 216.866061 
L 594.023377 218.504465 
L 597.646753 221.322574 
L 601.27013 219.48738 
L 604.893506 217.921196 
L 608.516883 217.038672 
L 612.14026 213.874863 
L 615.763636 218.624287 
L 619.387013 214.748729 
L 623.01039 217.145845 
L 626.633766 217.562489 
L 630.257143 216.729082 
L 633.880519 221.364829 
L 637.503896 223.184502 
L 641.127273 220.128904 
L 644.750649 217.302895 
L 648.374026 215.322342 
L 651.997403 217.980888 
L 655.620779 217.013574 
L 659.244156 217.982484 
L 662.867532 214.55948 
L 666.490909 219.31429 
L 670.114286 220.424847 
L 673.737662 219.6238 
L 677.361039 219.039374 
L 680.984416 218.956141 
L 684.607792 217.323723 
L 688.231169 222.344312 
L 691.854545 219.179306 
L 695.477922 215.619682 
L 699.101299 216.092466 
L 702.724675 216.225056 
L 706.348052 219.546233 
L 709.971429 220.806578 
L 713.594805 216.007198 
L 717.218182 219.315607 
L 720.841558 220.873092 
L 724.464935 218.994885 
L 728.088312 218.540535 
L 731.711688 218.471387 
L 735.335065 217.913376 
L 738.958442 218.307595 
L 742.581818 216.795677 
L 746.205195 214.684449 
L 749.828571 218.303804 
L 753.451948 215.527671 
L 757.075325 217.509301 
L 760.698701 216.248318 
L 764.322078 219.259307 
L 767.945455 218.394539 
L 771.568831 223.095443 
L 775.192208 217.253497 
L 778.815584 218.876021 
L 782.438961 221.004565 
L 786.062338 218.651699 
L 789.685714 219.231097 
L 793.309091 218.181349 
L 796.932468 221.134402 
L 800.555844 220.460559 
L 804.179221 218.609045 
L 807.802597 221.475474 
L 811.425974 221.045543 
L 815.049351 218.31378 
L 818.672727 217.755449 
L 822.296104 216.407243 
L 825.919481 220.254751 
L 829.542857 216.898221 
L 833.166234 220.98238 
L 836.78961 218.179913 
L 840.412987 220.876444 
L 844.036364 213.605533 
L 847.65974 219.296056 
L 851.283117 216.079937 
L 854.906494 219.521575 
L 858.52987 219.180862 
L 862.153247 219.739712 
L 865.776623 219.878806 
L 869.4 217.716226 
L 873.023377 217.927142 
L 876.646753 218.334967 
L 880.27013 214.284524 
L 883.893506 219.29031 
L 887.516883 216.817063 
L 891.14026 218.386878 
L 894.763636 219.016032 
L 898.387013 219.758745 
L 902.01039 219.639441 
L 905.633766 222.470239 
L 909.257143 216.35633 
L 912.880519 215.318033 
L 916.503896 221.610857 
L 920.127273 218.306119 
L 923.750649 219.485943 
L 927.374026 226.946741 
L 930.997403 219.47916 
L 934.620779 216.011986 
L 938.244156 219.732929 
L 941.867532 219.615701 
L 945.490909 216.478386 
L 949.114286 221.662329 
L 952.737662 226.102043 
L 956.361039 220.448309 
L 959.984416 213.685694 
L 963.607792 222.027301 
L 967.231169 218.50259 
L 970.854545 219.277143 
L 974.477922 226.251671 
L 978.101299 219.861449 
L 981.724675 226.749073 
L 985.348052 228.206208 
L 988.971429 229.101541 
L 992.594805 100.44 
L 992.594805 100.44 
" clip-path="url(#pe79e04bb71)" style="fill: none; stroke: #1f77b4; stroke-width: 1.5; stroke-linecap: square"/>
   </g>
   <g id="line2d_24">
    <path d="M 184.581818 258.999078 
L 188.205195 262.145729 
L 191.828571 256.641424 
L 195.451948 257.367417 
L 199.075325 261.738622 
L 202.698701 258.553945 
L 206.322078 259.415242 
L 209.945455 257.605625 
L 213.568831 260.913834 
L 217.192208 256.868977 
L 220.815584 259.576003 
L 224.438961 259.435193 
L 228.062338 264.500231 
L 231.685714 261.263843 
L 235.309091 259.106211 
L 238.932468 262.735223 
L 242.555844 260.649173 
L 246.179221 257.081688 
L 249.802597 259.815766 
L 253.425974 256.798034 
L 257.049351 259.675236 
L 260.672727 258.961771 
L 264.296104 261.762283 
L 267.919481 259.366484 
L 271.542857 258.13016 
L 275.166234 265.413759 
L 278.78961 260.268759 
L 282.412987 260.288231 
L 286.036364 260.049505 
L 289.65974 259.606407 
L 293.283117 260.386985 
L 296.906494 257.174098 
L 300.52987 255.908288 
L 304.153247 259.913922 
L 307.776623 261.926754 
L 311.4 259.286443 
L 315.023377 262.804411 
L 318.646753 258.950838 
L 322.27013 259.815367 
L 325.893506 258.507102 
L 329.516883 261.962106 
L 333.14026 259.147389 
L 336.763636 261.547697 
L 340.387013 260.779887 
L 344.01039 253.647353 
L 347.633766 258.690565 
L 351.257143 260.350436 
L 354.880519 262.885209 
L 358.503896 262.199795 
L 362.127273 258.729189 
L 365.750649 261.080539 
L 369.374026 262.52343 
L 372.997403 261.135722 
L 376.620779 260.559356 
L 380.244156 260.204918 
L 383.867532 260.524004 
L 387.490909 258.139097 
L 391.114286 255.962114 
L 394.737662 259.748773 
L 398.361039 261.271744 
L 401.984416 261.556036 
L 405.607792 264.060166 
L 409.231169 259.064116 
L 412.854545 260.921695 
L 416.477922 258.813938 
L 420.101299 261.115572 
L 423.724675 259.117703 
L 427.348052 259.494924 
L 430.971429 260.930952 
L 434.594805 260.29653 
L 438.218182 260.301996 
L 441.841558 263.261713 
L 445.464935 258.635862 
L 449.088312 261.683679 
L 452.711688 259.625041 
L 456.335065 262.484925 
L 459.958442 256.855411 
L 463.581818 259.864046 
L 467.205195 261.764837 
L 470.828571 257.53113 
L 474.451948 257.278159 
L 478.075325 256.657184 
L 481.698701 256.654351 
L 485.322078 258.225363 
L 488.945455 259.360419 
L 492.568831 260.878203 
L 496.192208 263.042339 
L 499.815584 263.38345 
L 503.438961 257.268104 
L 507.062338 256.73918 
L 510.685714 259.520221 
L 514.309091 261.101168 
L 517.932468 259.41644 
L 521.555844 257.95336 
L 525.179221 250.570966 
L 528.802597 261.781116 
L 532.425974 261.350787 
L 536.049351 262.091664 
L 539.672727 258.76905 
L 543.296104 258.713508 
L 546.919481 260.244978 
L 550.542857 264.599544 
L 554.166234 260.805663 
L 557.78961 258.026817 
L 561.412987 260.891649 
L 565.036364 258.336167 
L 568.65974 258.899007 
L 572.283117 256.53816 
L 575.906494 255.809972 
L 579.52987 258.472747 
L 583.153247 259.33185 
L 586.776623 261.563019 
L 590.4 260.066183 
L 594.023377 258.127526 
L 597.646753 262.677167 
L 601.27013 256.312522 
L 604.893506 257.619111 
L 608.516883 259.759107 
L 612.14026 254.687245 
L 615.763636 258.429694 
L 619.387013 260.93945 
L 623.01039 259.374065 
L 626.633766 257.391078 
L 630.257143 258.538544 
L 633.880519 260.160229 
L 637.503896 263.384886 
L 641.127273 259.978322 
L 644.750649 260.855619 
L 648.374026 258.498723 
L 655.620779 259.469946 
L 659.244156 257.536357 
L 662.867532 255.211461 
L 666.490909 261.885936 
L 670.114286 258.799095 
L 673.737662 257.297072 
L 677.361039 260.917226 
L 680.984416 266.018973 
L 684.607792 259.87059 
L 688.231169 260.531465 
L 695.477922 259.587055 
L 699.101299 258.628759 
L 702.724675 258.912693 
L 706.348052 256.985328 
L 709.971429 262.918128 
L 713.594805 261.217159 
L 717.218182 262.447339 
L 720.841558 264.589569 
L 724.464935 260.110473 
L 728.088312 259.620612 
L 731.711688 260.591277 
L 735.335065 258.421515 
L 738.958442 258.342312 
L 742.581818 256.919292 
L 746.205195 257.239097 
L 749.828571 258.410063 
L 753.451948 256.392603 
L 757.075325 259.408699 
L 760.698701 259.630307 
L 764.322078 259.661789 
L 767.945455 262.293282 
L 771.568831 265.066463 
L 775.192208 257.801537 
L 778.815584 259.358703 
L 782.438961 260.236838 
L 786.062338 260.207033 
L 789.685714 259.240916 
L 793.309091 259.947 
L 796.932468 261.544784 
L 800.555844 258.39933 
L 804.179221 257.013937 
L 807.802597 259.986701 
L 811.425974 259.325825 
L 815.049351 261.101128 
L 818.672727 259.129833 
L 822.296104 263.185063 
L 825.919481 258.700581 
L 829.542857 258.753529 
L 833.166234 259.767606 
L 836.78961 259.029921 
L 840.412987 263.069032 
L 844.036364 255.370266 
L 847.65974 264.405308 
L 851.283117 258.762068 
L 854.906494 260.178424 
L 858.52987 259.086101 
L 862.153247 259.662029 
L 865.776623 259.575085 
L 869.4 257.709327 
L 873.023377 261.201798 
L 876.646753 262.707571 
L 880.27013 255.27642 
L 883.893506 259.966032 
L 887.516883 258.963606 
L 891.14026 260.021374 
L 894.763636 263.221892 
L 898.387013 259.73788 
L 902.01039 259.482595 
L 905.633766 262.619191 
L 909.257143 255.135769 
L 912.880519 258.936673 
L 916.503896 262.439877 
L 920.127273 260.751877 
L 923.750649 261.557513 
L 927.374026 262.618553 
L 930.997403 261.650521 
L 934.620779 259.770558 
L 938.244156 263.604859 
L 941.867532 257.06094 
L 945.490909 257.739891 
L 949.114286 262.305173 
L 952.737662 266.038684 
L 956.361039 263.804283 
L 959.984416 256.988959 
L 963.607792 259.286523 
L 967.231169 258.563242 
L 970.854545 258.65262 
L 974.477922 265.135052 
L 978.101299 263.384447 
L 981.724675 266.595419 
L 985.348052 268.494215 
L 988.971429 270.622879 
L 992.594805 143.414603 
L 992.594805 143.414603 
" clip-path="url(#pe79e04bb71)" style="fill: none; stroke: #ff7f0e; stroke-width: 1.5; stroke-linecap: square"/>
   </g>
   <g id="line2d_25">
    <path d="M 184.581818 295.112949 
L 188.205195 302.27924 
L 191.828571 295.887423 
L 195.451948 297.103517 
L 199.075325 298.069394 
L 202.698701 293.342514 
L 206.322078 297.652431 
L 209.945455 299.227952 
L 213.568831 297.659254 
L 217.192208 295.71585 
L 220.815584 297.037322 
L 224.438961 299.229747 
L 228.062338 303.041863 
L 231.685714 301.600928 
L 235.309091 295.664497 
L 242.555844 299.58646 
L 246.179221 299.053067 
L 249.802597 299.926015 
L 253.425974 296.368306 
L 257.049351 298.163241 
L 260.672727 297.583922 
L 264.296104 299.034313 
L 267.919481 294.202295 
L 271.542857 294.884079 
L 275.166234 300.952661 
L 278.78961 299.593363 
L 282.412987 297.654905 
L 286.036364 299.2165 
L 289.65974 302.406324 
L 293.283117 297.502086 
L 296.906494 297.059427 
L 300.52987 295.578272 
L 304.153247 298.340639 
L 307.776623 298.093015 
L 311.4 295.796808 
L 315.023377 300.569015 
L 318.646753 298.415333 
L 322.27013 298.363542 
L 325.893506 297.487402 
L 329.516883 299.490299 
L 336.763636 300.262697 
L 340.387013 299.533511 
L 344.01039 293.480012 
L 347.633766 299.21638 
L 351.257143 301.816432 
L 354.880519 300.500426 
L 358.503896 295.805866 
L 362.127273 300.877687 
L 365.750649 295.161469 
L 369.374026 297.083407 
L 372.997403 297.459472 
L 376.620779 299.912568 
L 380.244156 298.889554 
L 383.867532 300.536456 
L 387.490909 300.748848 
L 391.114286 296.131456 
L 394.737662 295.680577 
L 398.361039 298.852606 
L 401.984416 299.268291 
L 405.607792 300.701565 
L 409.231169 298.38034 
L 412.854545 297.282392 
L 416.477922 300.958606 
L 420.101299 296.326171 
L 423.724675 296.498103 
L 427.348052 294.575287 
L 430.971429 298.72604 
L 434.594805 298.397857 
L 438.218182 297.449097 
L 445.464935 299.937107 
L 452.711688 297.831825 
L 456.335065 299.852239 
L 459.958442 296.396716 
L 463.581818 297.648322 
L 467.205195 303.156338 
L 470.828571 296.466622 
L 478.075325 293.608014 
L 481.698701 295.007691 
L 485.322078 296.612738 
L 488.945455 293.560492 
L 492.568831 297.74963 
L 496.192208 303.740166 
L 499.815584 299.225278 
L 503.438961 298.713033 
L 507.062338 299.147671 
L 510.685714 297.392239 
L 514.309091 301.445754 
L 517.932468 296.962827 
L 521.555844 295.957329 
L 525.179221 291.707183 
L 528.802597 298.771687 
L 532.425974 299.646032 
L 536.049351 302.77393 
L 539.672727 296.614454 
L 543.296104 299.467675 
L 546.919481 299.060927 
L 550.542857 303.87519 
L 554.166234 299.589293 
L 557.78961 295.940211 
L 561.412987 297.488559 
L 565.036364 296.268116 
L 568.65974 297.699554 
L 572.283117 297.316587 
L 575.906494 295.970376 
L 579.52987 298.948487 
L 583.153247 297.192855 
L 586.776623 299.91201 
L 590.4 295.909368 
L 594.023377 298.285975 
L 597.646753 302.704502 
L 601.27013 296.960034 
L 604.893506 297.595094 
L 608.516883 300.190597 
L 612.14026 295.495518 
L 615.763636 297.577897 
L 619.387013 294.421629 
L 623.01039 298.418685 
L 626.633766 296.7407 
L 630.257143 296.462432 
L 633.880519 297.414703 
L 637.503896 301.884423 
L 641.127273 301.252874 
L 644.750649 296.117011 
L 648.374026 298.834331 
L 651.997403 295.012839 
L 655.620779 297.497936 
L 659.244156 298.686579 
L 662.867532 295.233849 
L 666.490909 300.887902 
L 670.114286 296.492836 
L 673.737662 295.38208 
L 677.361039 299.71518 
L 680.984416 296.254509 
L 684.607792 298.181595 
L 688.231169 297.752742 
L 691.854545 299.206645 
L 695.477922 294.036907 
L 699.101299 297.293644 
L 702.724675 295.161588 
L 706.348052 296.902138 
L 709.971429 302.799107 
L 713.594805 298.484681 
L 717.218182 297.272257 
L 720.841558 298.955669 
L 724.464935 297.218272 
L 728.088312 296.893001 
L 731.711688 302.035527 
L 735.335065 299.084748 
L 738.958442 297.784662 
L 742.581818 297.809521 
L 746.205195 293.935798 
L 749.828571 297.391281 
L 753.451948 294.567706 
L 757.075325 299.906424 
L 760.698701 298.581241 
L 764.322078 297.462943 
L 767.945455 303.642648 
L 771.568831 305.551699 
L 775.192208 298.330744 
L 778.815584 299.625044 
L 782.438961 299.945207 
L 786.062338 298.756205 
L 789.685714 301.661378 
L 793.309091 298.997206 
L 796.932468 296.544947 
L 800.555844 295.352513 
L 804.179221 297.181403 
L 807.802597 299.881446 
L 811.425974 297.906599 
L 815.049351 298.968717 
L 818.672727 301.122478 
L 822.296104 295.560715 
L 825.919481 298.075619 
L 829.542857 298.072826 
L 833.166234 300.096471 
L 836.78961 294.744666 
L 840.412987 302.23503 
L 844.036364 298.297347 
L 847.65974 299.900439 
L 851.283117 297.961862 
L 854.906494 298.803089 
L 858.52987 298.755088 
L 862.153247 296.757139 
L 865.776623 299.513003 
L 869.4 295.701246 
L 873.023377 297.794957 
L 876.646753 298.725083 
L 880.27013 295.65951 
L 883.893506 298.523584 
L 887.516883 294.062682 
L 891.14026 297.50017 
L 894.763636 300.285401 
L 898.387013 299.588096 
L 902.01039 298.55323 
L 905.633766 297.806209 
L 909.257143 298.671137 
L 912.880519 300.368833 
L 916.503896 297.838249 
L 920.127273 302.840045 
L 923.750649 295.597384 
L 927.374026 300.701805 
L 930.997403 298.926182 
L 934.620779 293.899768 
L 938.244156 300.235605 
L 941.867532 294.595517 
L 945.490909 295.030235 
L 949.114286 300.662223 
L 952.737662 307.449098 
L 956.361039 300.756788 
L 959.984416 296.058477 
L 963.607792 298.351013 
L 967.231169 296.998858 
L 970.854545 299.151422 
L 974.477922 302.230601 
L 978.101299 299.3129 
L 981.724675 302.92647 
L 985.348052 306.2425 
L 988.971429 307.273176 
L 992.594805 182.023028 
L 992.594805 182.023028 
" clip-path="url(#pe79e04bb71)" style="fill: none; stroke: #2ca02c; stroke-width: 1.5; stroke-linecap: square"/>
   </g>
   <g id="line2d_26">
    <path d="M 184.581818 338.4141 
L 188.205195 339.819842 
L 191.828571 339.494093 
L 195.451948 341.518815 
L 199.075325 340.310222 
L 202.698701 336.94699 
L 206.322078 340.812852 
L 209.945455 343.268383 
L 213.568831 340.727903 
L 217.192208 340.38739 
L 220.815584 342.071361 
L 224.438961 343.046455 
L 228.062338 342.177736 
L 231.685714 342.940678 
L 235.309091 338.378309 
L 238.932468 341.078471 
L 242.555844 339.797019 
L 246.179221 342.395754 
L 249.802597 339.619222 
L 253.425974 336.261136 
L 257.049351 337.484852 
L 260.672727 339.524577 
L 264.296104 340.7131 
L 267.919481 340.667334 
L 271.542857 338.820329 
L 275.166234 341.997544 
L 278.78961 338.038833 
L 282.412987 340.97034 
L 286.036364 341.306783 
L 289.65974 337.594738 
L 293.283117 339.228314 
L 296.906494 341.977794 
L 300.52987 337.75087 
L 304.153247 340.410972 
L 307.776623 341.974362 
L 311.4 340.916354 
L 315.023377 341.525439 
L 318.646753 339.439389 
L 322.27013 340.349365 
L 325.893506 341.140477 
L 329.516883 340.60038 
L 333.14026 339.014366 
L 336.763636 338.532525 
L 340.387013 341.605999 
L 344.01039 337.90373 
L 347.633766 341.880476 
L 351.257143 339.759273 
L 354.880519 341.66976 
L 358.503896 342.014223 
L 362.127273 339.936392 
L 365.750649 340.648421 
L 369.374026 342.348511 
L 372.997403 340.884593 
L 376.620779 342.371534 
L 380.244156 340.812213 
L 383.867532 341.233844 
L 387.490909 343.696478 
L 391.114286 341.439453 
L 394.737662 340.873541 
L 398.361039 340.609238 
L 401.984416 337.508433 
L 405.607792 342.388252 
L 409.231169 341.105005 
L 412.854545 341.623036 
L 416.477922 339.365612 
L 420.101299 339.942816 
L 423.724675 342.216919 
L 427.348052 339.294749 
L 430.971429 340.317923 
L 434.594805 339.715342 
L 438.218182 339.324196 
L 441.841558 342.860318 
L 445.464935 340.376936 
L 449.088312 342.049096 
L 452.711688 342.459196 
L 456.335065 344.946887 
L 459.958442 337.603876 
L 463.581818 337.389369 
L 467.205195 340.715095 
L 470.828571 339.091893 
L 474.451948 338.33781 
L 478.075325 337.31671 
L 481.698701 338.798703 
L 485.322078 339.198069 
L 488.945455 335.381245 
L 492.568831 339.295786 
L 496.192208 342.977905 
L 499.815584 342.577182 
L 503.438961 336.932466 
L 507.062338 338.824718 
L 510.685714 338.499088 
L 514.309091 341.639834 
L 517.932468 339.013169 
L 521.555844 338.612646 
L 525.179221 332.676415 
L 528.802597 340.432518 
L 532.425974 339.686973 
L 536.049351 344.377543 
L 539.672727 336.307022 
L 543.296104 340.445965 
L 546.919481 339.757637 
L 550.542857 346.396241 
L 554.166234 342.594419 
L 557.78961 340.030518 
L 561.412987 340.595552 
L 565.036364 338.752578 
L 568.65974 342.390646 
L 572.283117 338.94841 
L 575.906494 335.143158 
L 579.52987 339.071345 
L 583.153247 337.69445 
L 586.776623 345.772792 
L 590.4 340.562195 
L 594.023377 339.708519 
L 597.646753 342.647567 
L 601.27013 341.458286 
L 604.893506 338.242088 
L 608.516883 339.024142 
L 612.14026 336.438096 
L 615.763636 338.953717 
L 619.387013 337.825125 
L 623.01039 340.292028 
L 626.633766 339.028212 
L 630.257143 335.394133 
L 633.880519 339.143086 
L 637.503896 339.845339 
L 641.127273 339.385523 
L 644.750649 334.584108 
L 648.374026 339.777228 
L 651.997403 341.629141 
L 655.620779 340.057451 
L 659.244156 337.194574 
L 662.867532 336.246652 
L 666.490909 338.527817 
L 670.114286 338.366738 
L 673.737662 335.696381 
L 677.361039 341.744933 
L 680.984416 339.289203 
L 684.607792 339.088502 
L 688.231169 341.259181 
L 691.854545 340.761579 
L 695.477922 335.585018 
L 699.101299 340.270641 
L 702.724675 336.277655 
L 706.348052 339.647192 
L 709.971429 340.59643 
L 713.594805 338.702343 
L 717.218182 339.22576 
L 720.841558 344.289642 
L 724.464935 335.429605 
L 728.088312 337.442557 
L 731.711688 340.29107 
L 735.335065 340.412129 
L 738.958442 335.368118 
L 742.581818 338.183793 
L 746.205195 334.821199 
L 749.828571 339.238688 
L 753.451948 340.327819 
L 757.075325 340.093043 
L 760.698701 341.433109 
L 764.322078 338.955632 
L 767.945455 343.494101 
L 771.568831 343.953199 
L 775.192208 342.392921 
L 778.815584 338.555029 
L 782.438961 340.926968 
L 786.062338 339.873868 
L 789.685714 341.146821 
L 793.309091 342.930463 
L 796.932468 336.975439 
L 800.555844 339.226159 
L 804.179221 340.609278 
L 807.802597 341.125554 
L 811.425974 340.846249 
L 815.049351 342.049336 
L 818.672727 342.527825 
L 822.296104 338.901846 
L 825.919481 337.614449 
L 829.542857 338.396783 
L 833.166234 344.027454 
L 836.78961 340.398722 
L 840.412987 343.764828 
L 844.036364 337.576982 
L 847.65974 341.441368 
L 851.283117 341.084815 
L 854.906494 344.943256 
L 858.52987 341.795487 
L 862.153247 340.175956 
L 865.776623 343.02846 
L 869.4 337.896029 
L 873.023377 340.477566 
L 876.646753 338.146924 
L 880.27013 335.413764 
L 883.893506 339.086627 
L 887.516883 340.548629 
L 891.14026 340.264137 
L 894.763636 341.389497 
L 898.387013 337.016936 
L 902.01039 336.830559 
L 905.633766 342.097216 
L 909.257143 334.58746 
L 912.880519 339.793428 
L 916.503896 343.383217 
L 920.127273 342.766352 
L 923.750649 337.689981 
L 927.374026 343.552436 
L 930.997403 340.420308 
L 934.620779 339.890746 
L 938.244156 340.951507 
L 941.867532 339.257162 
L 945.490909 337.972518 
L 949.114286 342.681523 
L 952.737662 347.619398 
L 956.361039 342.072957 
L 959.984416 340.235608 
L 963.607792 340.687284 
L 967.231169 338.043262 
L 970.854545 340.665698 
L 974.477922 345.513397 
L 978.101299 340.619653 
L 981.724675 345.302522 
L 985.348052 347.278526 
L 988.971429 348.830704 
L 992.594805 226.365867 
L 992.594805 226.365867 
" clip-path="url(#pe79e04bb71)" style="fill: none; stroke: #d62728; stroke-width: 1.5; stroke-linecap: square"/>
   </g>
   <g id="line2d_27">
    <path d="M 184.581818 376.321629 
L 188.205195 378.825041 
L 191.828571 372.172272 
L 195.451948 377.412635 
L 199.075325 378.481455 
L 202.698701 372.451497 
L 206.322078 375.410855 
L 209.945455 380.767249 
L 213.568831 376.963312 
L 217.192208 375.326066 
L 220.815584 375.799288 
L 224.438961 373.939715 
L 228.062338 381.680536 
L 231.685714 377.773337 
L 235.309091 375.34462 
L 238.932468 375.68593 
L 242.555844 376.811251 
L 246.179221 378.5277 
L 249.802597 374.558057 
L 253.425974 373.30258 
L 257.049351 375.207361 
L 260.672727 377.255186 
L 264.296104 376.488494 
L 267.919481 374.138979 
L 271.542857 373.354331 
L 275.166234 377.798754 
L 278.78961 376.482269 
L 282.412987 376.334477 
L 286.036364 377.497224 
L 293.283117 375.506896 
L 296.906494 375.580473 
L 300.52987 372.595779 
L 304.153247 374.71335 
L 307.776623 375.798211 
L 311.4 379.568551 
L 315.023377 377.126666 
L 318.646753 377.819822 
L 322.27013 374.706128 
L 325.893506 375.424222 
L 329.516883 380.724475 
L 333.14026 375.343822 
L 336.763636 376.155682 
L 340.387013 376.442728 
L 344.01039 371.433869 
L 347.633766 374.05822 
L 351.257143 374.957662 
L 354.880519 377.347437 
L 358.503896 375.274514 
L 362.127273 376.695259 
L 365.750649 373.048053 
L 369.374026 376.817116 
L 372.997403 378.42719 
L 376.620779 379.03428 
L 380.244156 377.032381 
L 383.867532 376.666371 
L 387.490909 375.445169 
L 391.114286 373.340326 
L 394.737662 375.441538 
L 398.361039 379.193085 
L 401.984416 377.054486 
L 405.607792 380.458856 
L 409.231169 379.13076 
L 412.854545 377.043034 
L 416.477922 374.238811 
L 420.101299 374.843786 
L 423.724675 377.712648 
L 427.348052 376.38559 
L 430.971429 375.846012 
L 434.594805 377.152402 
L 438.218182 375.389628 
L 441.841558 378.236226 
L 445.464935 378.013101 
L 449.088312 375.939699 
L 452.711688 377.318828 
L 456.335065 375.890063 
L 459.958442 376.161108 
L 463.581818 374.655574 
L 467.205195 377.110267 
L 470.828571 373.039275 
L 474.451948 376.617293 
L 478.075325 372.660218 
L 481.698701 368.900013 
L 485.322078 373.913899 
L 488.945455 375.025573 
L 492.568831 378.284745 
L 496.192208 376.195543 
L 499.815584 378.503002 
L 503.438961 374.825671 
L 507.062338 375.015718 
L 510.685714 376.687838 
L 514.309091 376.5987 
L 517.932468 373.789808 
L 521.555844 374.915886 
L 525.179221 370.470227 
L 528.802597 377.933938 
L 532.425974 376.21673 
L 536.049351 378.605387 
L 539.672727 373.991506 
L 546.919481 374.608491 
L 550.542857 382.634603 
L 554.166234 376.068459 
L 557.78961 374.335291 
L 561.412987 376.762931 
L 565.036364 371.940808 
L 568.65974 375.740754 
L 572.283117 374.11037 
L 575.906494 375.206802 
L 579.52987 377.393722 
L 583.153247 376.520414 
L 586.776623 376.794532 
L 590.4 375.227671 
L 594.023377 373.198439 
L 597.646753 381.226745 
L 601.27013 375.600303 
L 604.893506 376.689474 
L 608.516883 380.488702 
L 612.14026 372.252273 
L 615.763636 376.591996 
L 619.387013 374.325236 
L 623.01039 375.992687 
L 626.633766 374.894619 
L 630.257143 376.770033 
L 633.880519 376.866832 
L 637.503896 377.959115 
L 641.127273 378.010507 
L 644.750649 375.302724 
L 648.374026 376.021935 
L 651.997403 375.471624 
L 655.620779 375.245347 
L 659.244156 373.417095 
L 662.867532 374.566875 
L 666.490909 378.04542 
L 670.114286 376.856538 
L 673.737662 373.763114 
L 677.361039 379.750937 
L 680.984416 374.200027 
L 684.607792 375.994203 
L 688.231169 374.358433 
L 691.854545 376.361809 
L 695.477922 373.321972 
L 699.101299 378.650834 
L 702.724675 376.886424 
L 706.348052 373.356805 
L 709.971429 379.479812 
L 713.594805 377.932142 
L 717.218182 375.426376 
L 720.841558 378.14585 
L 724.464935 374.770488 
L 728.088312 373.700909 
L 731.711688 376.304751 
L 735.335065 376.704157 
L 738.958442 374.758957 
L 742.581818 375.59384 
L 746.205195 370.97525 
L 749.828571 374.890789 
L 753.451948 374.787007 
L 757.075325 377.550252 
L 760.698701 376.742222 
L 764.322078 373.635312 
L 767.945455 376.923053 
L 771.568831 382.958118 
L 775.192208 375.881923 
L 778.815584 379.627763 
L 782.438961 375.767128 
L 786.062338 378.074747 
L 789.685714 377.507997 
L 793.309091 376.401191 
L 796.932468 375.010491 
L 800.555844 372.636078 
L 804.179221 375.500711 
L 807.802597 375.111679 
L 811.425974 379.86222 
L 815.049351 375.900676 
L 818.672727 375.890501 
L 822.296104 377.076032 
L 825.919481 375.839309 
L 829.542857 374.380259 
L 833.166234 380.999431 
L 836.78961 373.770895 
L 840.412987 377.726534 
L 844.036364 372.28986 
L 847.65974 379.628282 
L 851.283117 376.332083 
L 854.906494 376.887341 
L 858.52987 374.421197 
L 862.153247 377.387417 
L 865.776623 375.696384 
L 869.4 376.061356 
L 873.023377 379.240647 
L 876.646753 376.406897 
L 880.27013 374.068395 
L 883.893506 378.484727 
L 887.516883 372.722384 
L 891.14026 378.955835 
L 894.763636 378.231477 
L 898.387013 378.147446 
L 902.01039 374.606416 
L 905.633766 376.782682 
L 909.257143 373.675612 
L 912.880519 375.848167 
L 916.503896 379.831257 
L 920.127273 375.064995 
L 923.750649 375.830211 
L 927.374026 381.471656 
L 930.997403 377.300913 
L 934.620779 373.834138 
L 938.244156 377.87249 
L 945.490909 372.608826 
L 949.114286 377.47073 
L 952.737662 381.294457 
L 956.361039 378.192175 
L 959.984416 376.273748 
L 963.607792 375.53339 
L 967.231169 375.75049 
L 970.854545 378.713718 
L 974.477922 382.114058 
L 978.101299 378.542504 
L 981.724675 380.579157 
L 985.348052 382.347756 
L 988.971429 389.281546 
L 988.971429 389.281546 
" clip-path="url(#pe79e04bb71)" style="fill: none; stroke: #9467bd; stroke-width: 1.5; stroke-linecap: square"/>
   </g>
   <g id="line2d_28">
    <path d="M 184.581818 417.21465 
L 188.205195 419.064408 
L 191.828571 415.27336 
L 195.451948 416.7125 
L 199.075325 416.328615 
L 202.698701 411.963355 
L 206.322078 417.66892 
L 213.568831 413.917853 
L 217.192208 413.924955 
L 220.815584 416.398202 
L 224.438961 414.602868 
L 228.062338 423.094701 
L 231.685714 413.731756 
L 235.309091 416.522772 
L 242.555844 419.25653 
L 246.179221 417.756063 
L 249.802597 415.520386 
L 253.425974 415.674722 
L 257.049351 414.352132 
L 260.672727 417.121003 
L 264.296104 416.184374 
L 267.919481 417.743096 
L 271.542857 415.879093 
L 275.166234 421.062717 
L 278.78961 419.737334 
L 282.412987 414.616714 
L 286.036364 415.866165 
L 289.65974 415.109368 
L 293.283117 416.148942 
L 296.906494 416.399279 
L 300.52987 417.465307 
L 304.153247 413.578178 
L 307.776623 418.260249 
L 311.4 418.466456 
L 315.023377 415.796419 
L 318.646753 415.613753 
L 322.27013 415.548196 
L 325.893506 414.741523 
L 333.14026 418.270783 
L 336.763636 414.894862 
L 340.387013 417.083457 
L 344.01039 412.740222 
L 347.633766 415.010614 
L 351.257143 417.789101 
L 354.880519 419.766661 
L 358.503896 416.089011 
L 362.127273 415.059532 
L 365.750649 414.986195 
L 369.374026 419.46984 
L 372.997403 417.779964 
L 376.620779 422.065262 
L 380.244156 420.527488 
L 383.867532 413.25179 
L 387.490909 421.136054 
L 391.114286 416.657477 
L 394.737662 416.315807 
L 398.361039 418.903209 
L 401.984416 416.256394 
L 405.607792 419.591417 
L 409.231169 415.532954 
L 412.854545 420.007821 
L 416.477922 417.222271 
L 420.101299 416.522333 
L 423.724675 419.255573 
L 427.348052 412.707863 
L 430.971429 416.718325 
L 434.594805 418.298274 
L 438.218182 417.183089 
L 441.841558 418.442196 
L 445.464935 417.118689 
L 449.088312 417.332358 
L 452.711688 420.210317 
L 456.335065 419.642051 
L 459.958442 415.001556 
L 463.581818 415.871273 
L 467.205195 420.82423 
L 470.828571 413.551564 
L 474.451948 419.810791 
L 478.075325 415.126206 
L 481.698701 413.514057 
L 485.322078 412.855815 
L 488.945455 416.458013 
L 492.568831 414.731508 
L 496.192208 419.959861 
L 499.815584 416.782446 
L 503.438961 417.621957 
L 507.062338 414.352651 
L 510.685714 416.624997 
L 514.309091 418.657501 
L 517.932468 415.349491 
L 521.555844 415.135383 
L 525.179221 409.419045 
L 528.802597 413.727366 
L 532.425974 413.731157 
L 536.049351 421.423459 
L 539.672727 417.536968 
L 543.296104 415.210237 
L 546.919481 418.635675 
L 550.542857 423.028426 
L 554.166234 419.988669 
L 557.78961 415.187613 
L 561.412987 417.117293 
L 565.036364 412.02963 
L 568.65974 416.496677 
L 572.283117 415.388913 
L 575.906494 415.11651 
L 579.52987 416.071654 
L 583.153247 417.436698 
L 586.776623 419.699149 
L 590.4 418.897543 
L 594.023377 414.181277 
L 597.646753 418.612213 
L 601.27013 416.578872 
L 604.893506 415.788558 
L 608.516883 417.357854 
L 612.14026 415.935074 
L 615.763636 415.635739 
L 619.387013 415.535548 
L 623.01039 418.383303 
L 626.633766 414.808038 
L 630.257143 416.181421 
L 633.880519 416.994997 
L 637.503896 422.299001 
L 641.127273 417.313764 
L 644.750649 417.795725 
L 648.374026 415.18917 
L 651.997403 420.414928 
L 655.620779 416.874377 
L 659.244156 417.096824 
L 662.867532 416.18585 
L 666.490909 419.803769 
L 670.114286 420.686852 
L 673.737662 414.093695 
L 677.361039 418.236628 
L 680.984416 417.904095 
L 684.607792 415.741196 
L 688.231169 416.445085 
L 691.854545 418.061623 
L 695.477922 413.519524 
L 699.101299 415.769645 
L 702.724675 418.384979 
L 706.348052 417.409964 
L 709.971429 421.032033 
L 713.594805 415.054545 
L 717.218182 417.23488 
L 720.841558 419.220021 
L 724.464935 413.597968 
L 728.088312 413.381746 
L 731.711688 418.166123 
L 735.335065 416.51527 
L 738.958442 412.437057 
L 742.581818 413.752544 
L 746.205195 414.172659 
L 749.828571 417.46411 
L 753.451948 416.700729 
L 757.075325 416.449953 
L 760.698701 418.755736 
L 764.322078 414.704136 
L 767.945455 418.307092 
L 771.568831 421.498313 
L 775.192208 418.729482 
L 778.815584 417.882509 
L 782.438961 415.615629 
L 786.062338 418.555714 
L 789.685714 417.277374 
L 793.309091 415.641843 
L 796.932468 414.570309 
L 800.555844 417.855815 
L 804.179221 416.096672 
L 807.802597 416.720879 
L 811.425974 416.361293 
L 815.049351 415.842265 
L 818.672727 417.745849 
L 822.296104 415.491497 
L 825.919481 415.224282 
L 829.542857 414.022791 
L 833.166234 420.529404 
L 836.78961 413.976786 
L 840.412987 418.93529 
L 844.036364 414.343314 
L 847.65974 420.26961 
L 851.283117 415.581035 
L 854.906494 420.359945 
L 858.52987 416.723752 
L 862.153247 415.994287 
L 865.776623 421.287837 
L 869.4 414.831579 
L 873.023377 416.756151 
L 876.646753 415.089218 
L 880.27013 412.96622 
L 883.893506 418.656583 
L 887.516883 416.78883 
L 891.14026 418.149325 
L 894.763636 417.217603 
L 898.387013 418.137674 
L 902.01039 417.716163 
L 905.633766 419.132519 
L 909.257143 416.774266 
L 912.880519 418.4969 
L 916.503896 422.41579 
L 920.127273 417.411042 
L 923.750649 417.966181 
L 927.374026 420.421312 
L 930.997403 418.793642 
L 934.620779 415.41409 
L 938.244156 418.510985 
L 941.867532 415.989339 
L 945.490909 416.456896 
L 952.737662 425.134786 
L 956.361039 418.476671 
L 959.984416 415.098914 
L 963.607792 417.671793 
L 967.231169 419.835051 
L 970.854545 420.011971 
L 974.477922 423.153754 
L 978.101299 420.168701 
L 981.724675 423.403812 
L 985.348052 426.450792 
L 988.971429 427.72163 
L 992.594805 324.998237 
L 992.594805 324.998237 
" clip-path="url(#pe79e04bb71)" style="fill: none; stroke: #8c564b; stroke-width: 1.5; stroke-linecap: square"/>
   </g>
   <g id="line2d_29">
    <path d="M 184.581818 458.3776 
L 188.205195 460.308636 
L 191.828571 453.617603 
L 195.451948 457.61402 
L 199.075325 457.054293 
L 202.698701 451.240557 
L 206.322078 460.338921 
L 209.945455 459.443828 
L 213.568831 458.294806 
L 217.192208 453.385061 
L 220.815584 456.068106 
L 224.438961 456.669251 
L 228.062338 459.948293 
L 231.685714 458.233678 
L 235.309091 457.360251 
L 238.932468 457.033504 
L 242.555844 459.069918 
L 246.179221 458.505602 
L 249.802597 457.217127 
L 253.425974 458.478868 
L 257.049351 456.310902 
L 260.672727 455.78936 
L 264.296104 457.376132 
L 267.919481 459.891195 
L 271.542857 455.115676 
L 275.166234 461.16722 
L 278.78961 456.242393 
L 282.412987 458.763919 
L 286.036364 459.254339 
L 289.65974 458.611099 
L 293.283117 457.234085 
L 296.906494 458.760567 
L 300.52987 457.764565 
L 304.153247 456.302842 
L 307.776623 457.991082 
L 311.4 453.547737 
L 315.023377 458.458918 
L 318.646753 458.488484 
L 322.27013 454.671301 
L 325.893506 454.073908 
L 329.516883 461.171888 
L 333.14026 458.688786 
L 336.763636 459.928422 
L 340.387013 458.882863 
L 344.01039 452.743617 
L 347.633766 456.494485 
L 351.257143 459.941031 
L 354.880519 456.140007 
L 358.503896 457.065146 
L 362.127273 457.757024 
L 365.750649 459.677287 
L 369.374026 457.545471 
L 372.997403 457.842611 
L 376.620779 460.765499 
L 380.244156 453.794922 
L 387.490909 458.832189 
L 391.114286 456.12269 
L 394.737662 455.34718 
L 398.361039 464.176892 
L 401.984416 460.657169 
L 405.607792 459.576498 
L 409.231169 459.002885 
L 412.854545 456.114032 
L 416.477922 457.017664 
L 420.101299 453.577822 
L 423.724675 458.816229 
L 427.348052 454.850216 
L 430.971429 457.151211 
L 434.594805 458.212651 
L 438.218182 457.998104 
L 441.841558 456.767167 
L 449.088312 456.21546 
L 452.711688 461.182861 
L 456.335065 458.315156 
L 459.958442 459.783104 
L 463.581818 455.930249 
L 467.205195 460.251259 
L 470.828571 453.483895 
L 478.075325 455.545008 
L 481.698701 454.144771 
L 485.322078 457.332959 
L 488.945455 456.085543 
L 492.568831 457.099979 
L 496.192208 458.693095 
L 499.815584 458.581653 
L 503.438961 452.747128 
L 507.062338 455.60019 
L 510.685714 455.625487 
L 514.309091 459.568158 
L 517.932468 458.231244 
L 521.555844 453.806014 
L 525.179221 450.179716 
L 528.802597 457.228739 
L 532.425974 456.650298 
L 536.049351 457.414716 
L 539.672727 453.496384 
L 543.296104 457.517779 
L 546.919481 458.492873 
L 550.542857 460.402722 
L 554.166234 457.361249 
L 557.78961 456.299091 
L 561.412987 459.449533 
L 565.036364 456.496121 
L 568.65974 455.514683 
L 572.283117 452.709063 
L 575.906494 454.111973 
L 579.52987 457.137645 
L 583.153247 454.670663 
L 586.776623 459.242489 
L 590.4 456.358903 
L 594.023377 454.314589 
L 597.646753 461.346015 
L 601.27013 456.083268 
L 604.893506 455.924184 
L 608.516883 458.939921 
L 612.14026 455.047605 
L 615.763636 457.134972 
L 619.387013 457.488173 
L 623.01039 454.831024 
L 626.633766 457.610429 
L 630.257143 456.148745 
L 633.880519 457.251402 
L 637.503896 461.112157 
L 641.127273 456.543444 
L 644.750649 456.292348 
L 648.374026 454.933609 
L 651.997403 457.885026 
L 655.620779 458.17263 
L 659.244156 453.495985 
L 662.867532 453.486968 
L 666.490909 456.615744 
L 670.114286 459.989071 
L 673.737662 456.476769 
L 677.361039 457.846921 
L 680.984416 455.958419 
L 684.607792 459.064292 
L 688.231169 460.614834 
L 691.854545 457.528273 
L 695.477922 455.145122 
L 699.101299 459.65187 
L 702.724675 456.104815 
L 706.348052 456.718448 
L 709.971429 459.207136 
L 713.594805 456.212666 
L 717.218182 457.928478 
L 720.841558 460.397974 
L 724.464935 456.866879 
L 731.711688 455.738247 
L 735.335065 454.21771 
L 738.958442 453.1204 
L 742.581818 457.06746 
L 746.205195 454.874157 
L 749.828571 456.99093 
L 753.451948 457.187362 
L 757.075325 458.299554 
L 760.698701 457.094233 
L 764.322078 456.083907 
L 767.945455 457.170603 
L 771.568831 460.316217 
L 775.192208 457.729772 
L 778.815584 459.930656 
L 782.438961 453.894354 
L 786.062338 456.928486 
L 789.685714 457.294974 
L 793.309091 456.744064 
L 796.932468 458.19286 
L 800.555844 457.318356 
L 804.179221 456.690877 
L 807.802597 456.825422 
L 811.425974 460.611123 
L 815.049351 457.379404 
L 818.672727 457.38076 
L 822.296104 455.095366 
L 825.919481 457.997825 
L 829.542857 455.86162 
L 833.166234 460.149592 
L 836.78961 457.119251 
L 840.412987 460.707244 
L 844.036364 454.699152 
L 847.65974 460.07777 
L 851.283117 458.377121 
L 854.906494 457.141117 
L 858.52987 458.367505 
L 862.153247 455.100513 
L 865.776623 458.04415 
L 869.4 457.236759 
L 873.023377 459.948572 
L 876.646753 459.455 
L 880.27013 452.273108 
L 883.893506 459.374839 
L 887.516883 452.882392 
L 891.14026 459.109539 
L 894.763636 457.394726 
L 898.387013 459.527739 
L 902.01039 459.222259 
L 905.633766 461.01061 
L 909.257143 454.632079 
L 912.880519 457.022252 
L 916.503896 460.705608 
L 920.127273 460.11823 
L 923.750649 454.878506 
L 927.374026 460.700262 
L 930.997403 459.319776 
L 934.620779 456.63729 
L 938.244156 457.206235 
L 941.867532 454.119235 
L 945.490909 453.409082 
L 949.114286 461.738958 
L 952.737662 465.594525 
L 956.361039 463.097178 
L 959.984416 456.339112 
L 963.607792 458.767231 
L 967.231169 457.634928 
L 970.854545 458.98481 
L 974.477922 463.597933 
L 978.101299 459.942906 
L 981.724675 467.922094 
L 985.348052 469.043185 
L 988.971429 469.348705 
L 988.971429 469.348705 
" clip-path="url(#pe79e04bb71)" style="fill: none; stroke: #e377c2; stroke-width: 1.5; stroke-linecap: square"/>
   </g>
   <g id="line2d_30">
    <path d="M 184.581818 500.197197 
L 188.205195 501.171373 
L 191.828571 497.578831 
L 195.451948 498.310091 
L 199.075325 499.251709 
L 202.698701 497.162227 
L 206.322078 496.524334 
L 209.945455 500.341597 
L 213.568831 499.570356 
L 217.192208 501.403156 
L 220.815584 500.801732 
L 224.438961 500.315103 
L 228.062338 505.661841 
L 231.685714 498.810646 
L 235.309091 494.661649 
L 238.932468 502.687281 
L 242.555844 501.198825 
L 246.179221 500.856556 
L 249.802597 501.900998 
L 253.425974 498.952054 
L 257.049351 501.200101 
L 260.672727 504.507154 
L 264.296104 499.430464 
L 267.919481 499.628412 
L 271.542857 499.170192 
L 275.166234 502.573006 
L 278.78961 502.03259 
L 282.412987 502.170447 
L 286.036364 499.945942 
L 289.65974 502.054057 
L 293.283117 497.119174 
L 296.906494 498.866308 
L 304.153247 498.654674 
L 307.776623 499.74975 
L 311.4 502.534262 
L 315.023377 501.453551 
L 318.646753 500.108218 
L 322.27013 500.651466 
L 325.893506 499.999808 
L 329.516883 503.503291 
L 333.14026 502.54703 
L 336.763636 499.359321 
L 340.387013 499.937363 
L 344.01039 494.014219 
L 347.633766 500.798261 
L 351.257143 498.152364 
L 354.880519 502.018984 
L 358.503896 503.466982 
L 362.127273 501.360662 
L 365.750649 497.41029 
L 369.374026 501.322357 
L 372.997403 499.588551 
L 376.620779 499.830788 
L 380.244156 501.847052 
L 383.867532 500.854202 
L 387.490909 503.191946 
L 391.114286 497.121888 
L 394.737662 501.209957 
L 398.361039 501.325749 
L 401.984416 500.534437 
L 405.607792 504.947099 
L 409.231169 503.99004 
L 412.854545 499.848863 
L 416.477922 504.031377 
L 420.101299 498.295328 
L 423.724675 500.645082 
L 427.348052 498.373334 
L 430.971429 501.833126 
L 434.594805 502.241191 
L 438.218182 500.567954 
L 441.841558 506.098914 
L 445.464935 496.274955 
L 449.088312 501.074773 
L 452.711688 501.241638 
L 456.335065 501.561602 
L 459.958442 501.628795 
L 463.581818 500.118672 
L 467.205195 501.695988 
L 470.828571 499.424918 
L 474.451948 498.887016 
L 478.075325 497.788749 
L 481.698701 497.616258 
L 485.322078 498.900303 
L 488.945455 497.521813 
L 492.568831 501.361899 
L 496.192208 502.415597 
L 499.815584 503.130419 
L 503.438961 497.94879 
L 507.062338 496.033116 
L 510.685714 501.291275 
L 514.309091 500.285816 
L 517.932468 501.182385 
L 521.555844 500.295113 
L 525.179221 495.651187 
L 528.802597 500.562368 
L 532.425974 501.110604 
L 536.049351 501.997996 
L 539.672727 500.164638 
L 543.296104 497.82821 
L 546.919481 500.361588 
L 550.542857 504.589668 
L 554.166234 498.179217 
L 557.78961 497.921458 
L 561.412987 502.657276 
L 565.036364 499.84599 
L 568.65974 500.681312 
L 572.283117 498.150528 
L 575.906494 496.435116 
L 579.52987 500.464093 
L 583.153247 499.29935 
L 586.776623 502.286 
L 590.4 500.408112 
L 594.023377 499.392758 
L 597.646753 503.741419 
L 601.27013 498.201761 
L 604.893506 502.663301 
L 608.516883 502.46272 
L 612.14026 495.949604 
L 615.763636 501.539178 
L 619.387013 496.468513 
L 623.01039 500.977455 
L 626.633766 500.273327 
L 630.257143 497.077199 
L 633.880519 504.2794 
L 637.503896 504.264837 
L 641.127273 500.359992 
L 644.750649 497.481114 
L 648.374026 497.836629 
L 651.997403 503.335628 
L 655.620779 497.239355 
L 659.244156 501.436074 
L 662.867532 495.802331 
L 670.114286 499.728562 
L 673.737662 496.148709 
L 677.361039 504.195888 
L 680.984416 499.315151 
L 684.607792 499.329635 
L 688.231169 502.670563 
L 691.854545 501.568106 
L 695.477922 499.30346 
L 699.101299 503.078149 
L 702.724675 497.901189 
L 706.348052 497.151374 
L 709.971429 501.509093 
L 713.594805 502.718923 
L 717.218182 500.234584 
L 720.841558 503.171956 
L 724.464935 499.208257 
L 728.088312 499.494345 
L 731.711688 500.463055 
L 735.335065 494.660132 
L 738.958442 496.552983 
L 742.581818 501.559687 
L 746.205195 498.012392 
L 749.828571 499.510106 
L 753.451948 497.791542 
L 757.075325 500.289407 
L 760.698701 499.549568 
L 764.322078 500.609331 
L 767.945455 503.223268 
L 771.568831 505.190374 
L 775.192208 501.636895 
L 778.815584 502.368235 
L 782.438961 499.768224 
L 786.062338 499.792723 
L 789.685714 501.342667 
L 793.309091 500.976378 
L 796.932468 501.962086 
L 800.555844 498.511431 
L 804.179221 499.256178 
L 807.802597 500.130602 
L 811.425974 501.968111 
L 815.049351 499.809122 
L 818.672727 502.95701 
L 822.296104 498.625626 
L 825.919481 496.930324 
L 829.542857 499.687145 
L 833.166234 501.635059 
L 836.78961 497.222876 
L 840.412987 501.140689 
L 844.036364 495.398934 
L 847.65974 500.373239 
L 851.283117 499.983289 
L 854.906494 500.098283 
L 858.52987 501.350407 
L 862.153247 498.171037 
L 865.776623 499.342403 
L 869.4 498.412796 
L 876.646753 502.051423 
L 880.27013 495.109095 
L 883.893506 499.493467 
L 887.516883 497.195145 
L 891.14026 499.52064 
L 894.763636 501.036867 
L 898.387013 504.435971 
L 902.01039 498.931186 
L 905.633766 503.789699 
L 909.257143 496.431485 
L 912.880519 500.328669 
L 916.503896 505.797384 
L 920.127273 502.252483 
L 923.750649 498.186918 
L 927.374026 501.852399 
L 930.997403 504.149164 
L 934.620779 492.711261 
L 938.244156 500.2037 
L 941.867532 498.755424 
L 945.490909 497.496795 
L 949.114286 506.22492 
L 952.737662 507.834915 
L 956.361039 505.971072 
L 959.984416 500.310515 
L 963.607792 501.44601 
L 967.231169 501.777505 
L 970.854545 501.371834 
L 974.477922 506.926574 
L 978.101299 503.83754 
L 981.724675 511.355915 
L 985.348052 513.807136 
L 988.971429 513.940405 
L 996.218182 432.213255 
L 996.218182 432.213255 
" clip-path="url(#pe79e04bb71)" style="fill: none; stroke: #7f7f7f; stroke-width: 1.5; stroke-linecap: square"/>
   </g>
   <g id="line2d_31">
    <path d="M 184.581818 534.702351 
L 188.205195 543.270434 
L 191.828571 533.147938 
L 195.451948 537.684371 
L 199.075325 537.467152 
L 202.698701 536.011134 
L 206.322078 538.130342 
L 209.945455 537.303639 
L 213.568831 541.257641 
L 217.192208 539.013465 
L 220.815584 540.12893 
L 224.438961 538.541878 
L 228.062338 542.185573 
L 235.309091 535.400733 
L 238.932468 539.259812 
L 242.555844 540.024988 
L 246.179221 537.065671 
L 249.802597 541.445973 
L 253.425974 537.83775 
L 257.049351 536.754365 
L 260.672727 537.909491 
L 264.296104 537.931357 
L 267.919481 540.186586 
L 271.542857 538.802669 
L 275.166234 540.312952 
L 278.78961 539.706062 
L 282.412987 539.299513 
L 286.036364 538.595026 
L 289.65974 536.722046 
L 293.283117 537.215697 
L 296.906494 539.089635 
L 300.52987 538.650129 
L 304.153247 537.976365 
L 307.776623 539.295164 
L 311.4 539.415425 
L 315.023377 537.106489 
L 318.646753 540.945817 
L 322.27013 534.551127 
L 325.893506 539.271543 
L 329.516883 541.351009 
L 333.14026 540.631799 
L 336.763636 540.262158 
L 340.387013 538.511394 
L 344.01039 536.385722 
L 347.633766 537.858578 
L 351.257143 538.935219 
L 354.880519 538.359452 
L 358.503896 539.11174 
L 362.127273 536.548956 
L 365.750649 539.362077 
L 369.374026 541.031963 
L 372.997403 541.711353 
L 376.620779 540.25737 
L 380.244156 539.729683 
L 383.867532 539.732037 
L 387.490909 543.449428 
L 391.114286 538.414914 
L 394.737662 536.254649 
L 398.361039 538.566936 
L 401.984416 539.458119 
L 405.607792 541.821878 
L 409.231169 537.428568 
L 412.854545 537.39964 
L 416.477922 539.562778 
L 420.101299 539.885615 
L 423.724675 537.872942 
L 427.348052 539.568364 
L 430.971429 538.845882 
L 434.594805 539.651438 
L 438.218182 539.79907 
L 441.841558 540.505353 
L 445.464935 539.372252 
L 449.088312 536.868481 
L 452.711688 539.020607 
L 456.335065 538.894122 
L 459.958442 534.83538 
L 463.581818 536.527011 
L 467.205195 543.088526 
L 470.828571 535.535757 
L 474.451948 539.247762 
L 478.075325 534.775249 
L 481.698701 536.254888 
L 485.322078 539.478109 
L 488.945455 536.733138 
L 492.568831 540.220103 
L 496.192208 542.203927 
L 499.815584 541.016721 
L 503.438961 539.550928 
L 507.062338 538.484621 
L 510.685714 540.178845 
L 514.309091 539.699398 
L 517.932468 536.885918 
L 521.555844 538.353108 
L 525.179221 534.174544 
L 528.802597 540.101358 
L 532.425974 538.083778 
L 536.049351 538.391891 
L 539.672727 539.456084 
L 543.296104 538.787228 
L 546.919481 541.939106 
L 550.542857 542.561358 
L 554.166234 537.811296 
L 557.78961 537.094319 
L 561.412987 538.816834 
L 565.036364 534.834861 
L 568.65974 538.662618 
L 572.283117 536.505584 
L 575.906494 538.942242 
L 579.52987 538.905214 
L 583.153247 538.644343 
L 586.776623 543.692344 
L 590.4 539.799549 
L 594.023377 536.588897 
L 597.646753 543.019299 
L 601.27013 537.048673 
L 604.893506 538.1072 
L 608.516883 537.789151 
L 612.14026 532.181702 
L 615.763636 539.795519 
L 619.387013 538.128347 
L 623.01039 541.194439 
L 626.633766 536.71235 
L 630.257143 536.536627 
L 633.880519 537.863047 
L 637.503896 540.017208 
L 641.127273 539.544743 
L 644.750649 535.724607 
L 648.374026 538.978312 
L 651.997403 539.912947 
L 655.620779 536.698983 
L 659.244156 537.883436 
L 662.867532 533.510635 
L 666.490909 538.391253 
L 670.114286 542.266851 
L 673.737662 535.929857 
L 677.361039 539.499097 
L 680.984416 538.263969 
L 684.607792 539.664365 
L 688.231169 539.516573 
L 691.854545 537.243029 
L 695.477922 539.269867 
L 699.101299 539.346596 
L 702.724675 536.208483 
L 706.348052 536.99345 
L 709.971429 541.686854 
L 713.594805 535.953438 
L 717.218182 540.738852 
L 720.841558 541.30261 
L 724.464935 539.8274 
L 728.088312 537.08594 
L 731.711688 539.263363 
L 735.335065 535.99286 
L 738.958442 537.315848 
L 742.581818 541.04908 
L 746.205195 536.919754 
L 749.828571 536.336684 
L 753.451948 537.784682 
L 757.075325 540.01218 
L 760.698701 539.204031 
L 764.322078 539.203791 
L 767.945455 540.720618 
L 771.568831 542.842259 
L 775.192208 539.118324 
L 778.815584 540.130965 
L 782.438961 539.888488 
L 786.062338 538.789462 
L 789.685714 540.790643 
L 793.309091 539.716276 
L 800.555844 536.04082 
L 804.179221 539.06757 
L 807.802597 539.105236 
L 811.425974 542.340308 
L 815.049351 537.929402 
L 818.672727 541.320246 
L 822.296104 535.734503 
L 825.919481 536.086068 
L 829.542857 536.968911 
L 833.166234 541.304964 
L 836.78961 536.336325 
L 840.412987 539.9159 
L 844.036364 535.748029 
L 847.65974 540.702742 
L 851.283117 542.551782 
L 854.906494 544.187392 
L 858.52987 540.644128 
L 862.153247 538.236358 
L 865.776623 541.011893 
L 869.4 537.535582 
L 873.023377 538.996387 
L 876.646753 537.691594 
L 880.27013 535.151553 
L 883.893506 538.536212 
L 887.516883 535.782344 
L 891.14026 544.59438 
L 894.763636 540.636706 
L 898.387013 539.458837 
L 902.01039 537.252087 
L 905.633766 539.041316 
L 909.257143 538.602088 
L 912.880519 538.582058 
L 916.503896 542.774587 
L 920.127273 544.930504 
L 923.750649 538.612782 
L 927.374026 541.13359 
L 930.997403 539.406088 
L 934.620779 536.021309 
L 938.244156 539.970683 
L 941.867532 538.928596 
L 945.490909 535.421162 
L 949.114286 546.62421 
L 952.737662 543.342295 
L 956.361039 542.570336 
L 959.984416 539.479505 
L 963.607792 538.039368 
L 967.231169 537.088175 
L 970.854545 539.545421 
L 974.477922 546.671173 
L 978.101299 542.718607 
L 981.724675 547.630067 
L 985.348052 549.583408 
L 988.971429 554.04 
L 996.218182 485.738209 
L 996.218182 485.738209 
" clip-path="url(#pe79e04bb71)" style="fill: none; stroke: #bcbd22; stroke-width: 1.5; stroke-linecap: square"/>
   </g>
   <g id="patch_3">
    <path d="M 144 576.72 
L 144 77.76 
" style="fill: none; stroke: #000000; stroke-width: 0.8; stroke-linejoin: miter; stroke-linecap: square"/>
   </g>
   <g id="patch_4">
    <path d="M 1036.8 576.72 
L 1036.8 77.76 
" style="fill: none; stroke: #000000; stroke-width: 0.8; stroke-linejoin: miter; stroke-linecap: square"/>
   </g>
   <g id="patch_5">
    <path d="M 144 576.72 
L 1036.8 576.72 
" style="fill: none; stroke: #000000; stroke-width: 0.8; stroke-linejoin: miter; stroke-linecap: square"/>
   </g>
   <g id="patch_6">
    <path d="M 144 77.76 
L 1036.8 77.76 
" style="fill: none; stroke: #000000; stroke-width: 0.8; stroke-linejoin: miter; stroke-linecap: square"/>
   </g>
   <g id="text_14">
    <!-- Channel Phase Variation Over Ranging Counters -->
    <g transform="translate(445.562812 71.76) scale(0.12 -0.12)">
     <defs>
      <path id="DejaVuSans-6c" d="M 603 4863 
L 1178 4863 
L 1178 0 
L 603 0 
L 603 4863 
z
" transform="scale(0.015625)"/>
      <path id="DejaVuSans-56" d="M 1831 0 
L 50 4666 
L 709 4666 
L 2188 738 
L 3669 4666 
L 4325 4666 
L 2547 0 
L 1831 0 
z
" transform="scale(0.015625)"/>
      <path id="DejaVuSans-4f" d="M 2522 4238 
Q 1834 4238 1429 3725 
Q 1025 3213 1025 2328 
Q 1025 1447 1429 934 
Q 1834 422 2522 422 
Q 3209 422 3611 934 
Q 4013 1447 4013 2328 
Q 4013 3213 3611 3725 
Q 3209 4238 2522 4238 
z
M 2522 4750 
Q 3503 4750 4090 4092 
Q 4678 3434 4678 2328 
Q 4678 1225 4090 567 
Q 3503 -91 2522 -91 
Q 1538 -91 948 565 
Q 359 1222 359 2328 
Q 359 3434 948 4092 
Q 1538 4750 2522 4750 
z
" transform="scale(0.015625)"/>
      <path id="DejaVuSans-76" d="M 191 3500 
L 800 3500 
L 1894 563 
L 2988 3500 
L 3597 3500 
L 2284 0 
L 1503 0 
L 191 3500 
z
" transform="scale(0.015625)"/>
     </defs>
     <use xlink:href="#DejaVuSans-43"/>
     <use xlink:href="#DejaVuSans-68" transform="translate(69.824219 0)"/>
     <use xlink:href="#DejaVuSans-61" transform="translate(133.203125 0)"/>
     <use xlink:href="#DejaVuSans-6e" transform="translate(194.482422 0)"/>
     <use xlink:href="#DejaVuSans-6e" transform="translate(257.861328 0)"/>
     <use xlink:href="#DejaVuSans-65" transform="translate(321.240234 0)"/>
     <use xlink:href="#DejaVuSans-6c" transform="translate(382.763672 0)"/>
     <use xlink:href="#DejaVuSans-20" transform="translate(410.546875 0)"/>
     <use xlink:href="#DejaVuSans-50" transform="translate(442.333984 0)"/>
     <use xlink:href="#DejaVuSans-68" transform="translate(502.636719 0)"/>
     <use xlink:href="#DejaVuSans-61" transform="translate(566.015625 0)"/>
     <use xlink:href="#DejaVuSans-73" transform="translate(627.294922 0)"/>
     <use xlink:href="#DejaVuSans-65" transform="translate(679.394531 0)"/>
     <use xlink:href="#DejaVuSans-20" transform="translate(740.917969 0)"/>
     <use xlink:href="#DejaVuSans-56" transform="translate(772.705078 0)"/>
     <use xlink:href="#DejaVuSans-61" transform="translate(833.363281 0)"/>
     <use xlink:href="#DejaVuSans-72" transform="translate(894.642578 0)"/>
     <use xlink:href="#DejaVuSans-69" transform="translate(935.755859 0)"/>
     <use xlink:href="#DejaVuSans-61" transform="translate(963.539062 0)"/>
     <use xlink:href="#DejaVuSans-74" transform="translate(1024.818359 0)"/>
     <use xlink:href="#DejaVuSans-69" transform="translate(1064.027344 0)"/>
     <use xlink:href="#DejaVuSans-6f" transform="translate(1091.810547 0)"/>
     <use xlink:href="#DejaVuSans-6e" transform="translate(1152.992188 0)"/>
     <use xlink:href="#DejaVuSans-20" transform="translate(1216.371094 0)"/>
     <use xlink:href="#DejaVuSans-4f" transform="translate(1248.158203 0)"/>
     <use xlink:href="#DejaVuSans-76" transform="translate(1326.869141 0)"/>
     <use xlink:href="#DejaVuSans-65" transform="translate(1386.048828 0)"/>
     <use xlink:href="#DejaVuSans-72" transform="translate(1447.572266 0)"/>
     <use xlink:href="#DejaVuSans-20" transform="translate(1488.685547 0)"/>
     <use xlink:href="#DejaVuSans-52" transform="translate(1520.472656 0)"/>
     <use xlink:href="#DejaVuSans-61" transform="translate(1587.705078 0)"/>
     <use xlink:href="#DejaVuSans-6e" transform="translate(1648.984375 0)"/>
     <use xlink:href="#DejaVuSans-67" transform="translate(1712.363281 0)"/>
     <use xlink:href="#DejaVuSans-69" transform="translate(1775.839844 0)"/>
     <use xlink:href="#DejaVuSans-6e" transform="translate(1803.623047 0)"/>
     <use xlink:href="#DejaVuSans-67" transform="translate(1867.001953 0)"/>
     <use xlink:href="#DejaVuSans-20" transform="translate(1930.478516 0)"/>
     <use xlink:href="#DejaVuSans-43" transform="translate(1962.265625 0)"/>
     <use xlink:href="#DejaVuSans-6f" transform="translate(2032.089844 0)"/>
     <use xlink:href="#DejaVuSans-75" transform="translate(2093.271484 0)"/>
     <use xlink:href="#DejaVuSans-6e" transform="translate(2156.650391 0)"/>
     <use xlink:href="#DejaVuSans-74" transform="translate(2220.029297 0)"/>
     <use xlink:href="#DejaVuSans-65" transform="translate(2259.238281 0)"/>
     <use xlink:href="#DejaVuSans-72" transform="translate(2320.761719 0)"/>
     <use xlink:href="#DejaVuSans-73" transform="translate(2361.875 0)"/>
    </g>
   </g>
   <g id="legend_1">
    <g id="patch_7">
     <path d="M 940.842187 217.863125 
L 1029.8 217.863125 
Q 1031.8 217.863125 1031.8 215.863125 
L 1031.8 84.76 
Q 1031.8 82.76 1029.8 82.76 
L 940.842187 82.76 
Q 938.842187 82.76 938.842187 84.76 
L 938.842187 215.863125 
Q 938.842187 217.863125 940.842187 217.863125 
z
" style="fill: #ffffff; opacity: 0.8; stroke: #cccccc; stroke-linejoin: miter"/>
    </g>
    <g id="line2d_32">
     <path d="M 942.842187 90.858438 
L 952.842187 90.858438 
L 962.842187 90.858438 
" style="fill: none; stroke: #1f77b4; stroke-width: 1.5; stroke-linecap: square"/>
    </g>
    <g id="text_15">
     <!-- Channel 2 -->
     <g transform="translate(970.842187 94.358438) scale(0.1 -0.1)">
      <use xlink:href="#DejaVuSans-43"/>
      <use xlink:href="#DejaVuSans-68" transform="translate(69.824219 0)"/>
      <use xlink:href="#DejaVuSans-61" transform="translate(133.203125 0)"/>
      <use xlink:href="#DejaVuSans-6e" transform="translate(194.482422 0)"/>
      <use xlink:href="#DejaVuSans-6e" transform="translate(257.861328 0)"/>
      <use xlink:href="#DejaVuSans-65" transform="translate(321.240234 0)"/>
      <use xlink:href="#DejaVuSans-6c" transform="translate(382.763672 0)"/>
      <use xlink:href="#DejaVuSans-20" transform="translate(410.546875 0)"/>
      <use xlink:href="#DejaVuSans-32" transform="translate(442.333984 0)"/>
     </g>
    </g>
    <g id="line2d_33">
     <path d="M 942.842187 105.536563 
L 952.842187 105.536563 
L 962.842187 105.536563 
" style="fill: none; stroke: #ff7f0e; stroke-width: 1.5; stroke-linecap: square"/>
    </g>
    <g id="text_16">
     <!-- Channel 8 -->
     <g transform="translate(970.842187 109.036563) scale(0.1 -0.1)">
      <use xlink:href="#DejaVuSans-43"/>
      <use xlink:href="#DejaVuSans-68" transform="translate(69.824219 0)"/>
      <use xlink:href="#DejaVuSans-61" transform="translate(133.203125 0)"/>
      <use xlink:href="#DejaVuSans-6e" transform="translate(194.482422 0)"/>
      <use xlink:href="#DejaVuSans-6e" transform="translate(257.861328 0)"/>
      <use xlink:href="#DejaVuSans-65" transform="translate(321.240234 0)"/>
      <use xlink:href="#DejaVuSans-6c" transform="translate(382.763672 0)"/>
      <use xlink:href="#DejaVuSans-20" transform="translate(410.546875 0)"/>
      <use xlink:href="#DejaVuSans-38" transform="translate(442.333984 0)"/>
     </g>
    </g>
    <g id="line2d_34">
     <path d="M 942.842187 120.214688 
L 952.842187 120.214688 
L 962.842187 120.214688 
" style="fill: none; stroke: #2ca02c; stroke-width: 1.5; stroke-linecap: square"/>
    </g>
    <g id="text_17">
     <!-- Channel 14 -->
     <g transform="translate(970.842187 123.714688) scale(0.1 -0.1)">
      <use xlink:href="#DejaVuSans-43"/>
      <use xlink:href="#DejaVuSans-68" transform="translate(69.824219 0)"/>
      <use xlink:href="#DejaVuSans-61" transform="translate(133.203125 0)"/>
      <use xlink:href="#DejaVuSans-6e" transform="translate(194.482422 0)"/>
      <use xlink:href="#DejaVuSans-6e" transform="translate(257.861328 0)"/>
      <use xlink:href="#DejaVuSans-65" transform="translate(321.240234 0)"/>
      <use xlink:href="#DejaVuSans-6c" transform="translate(382.763672 0)"/>
      <use xlink:href="#DejaVuSans-20" transform="translate(410.546875 0)"/>
      <use xlink:href="#DejaVuSans-31" transform="translate(442.333984 0)"/>
      <use xlink:href="#DejaVuSans-34" transform="translate(505.957031 0)"/>
     </g>
    </g>
    <g id="line2d_35">
     <path d="M 942.842187 134.892813 
L 952.842187 134.892813 
L 962.842187 134.892813 
" style="fill: none; stroke: #d62728; stroke-width: 1.5; stroke-linecap: square"/>
    </g>
    <g id="text_18">
     <!-- Channel 20 -->
     <g transform="translate(970.842187 138.392813) scale(0.1 -0.1)">
      <use xlink:href="#DejaVuSans-43"/>
      <use xlink:href="#DejaVuSans-68" transform="translate(69.824219 0)"/>
      <use xlink:href="#DejaVuSans-61" transform="translate(133.203125 0)"/>
      <use xlink:href="#DejaVuSans-6e" transform="translate(194.482422 0)"/>
      <use xlink:href="#DejaVuSans-6e" transform="translate(257.861328 0)"/>
      <use xlink:href="#DejaVuSans-65" transform="translate(321.240234 0)"/>
      <use xlink:href="#DejaVuSans-6c" transform="translate(382.763672 0)"/>
      <use xlink:href="#DejaVuSans-20" transform="translate(410.546875 0)"/>
      <use xlink:href="#DejaVuSans-32" transform="translate(442.333984 0)"/>
      <use xlink:href="#DejaVuSans-30" transform="translate(505.957031 0)"/>
     </g>
    </g>
    <g id="line2d_36">
     <path d="M 942.842187 149.570938 
L 952.842187 149.570938 
L 962.842187 149.570938 
" style="fill: none; stroke: #9467bd; stroke-width: 1.5; stroke-linecap: square"/>
    </g>
    <g id="text_19">
     <!-- Channel 26 -->
     <g transform="translate(970.842187 153.070938) scale(0.1 -0.1)">
      <use xlink:href="#DejaVuSans-43"/>
      <use xlink:href="#DejaVuSans-68" transform="translate(69.824219 0)"/>
      <use xlink:href="#DejaVuSans-61" transform="translate(133.203125 0)"/>
      <use xlink:href="#DejaVuSans-6e" transform="translate(194.482422 0)"/>
      <use xlink:href="#DejaVuSans-6e" transform="translate(257.861328 0)"/>
      <use xlink:href="#DejaVuSans-65" transform="translate(321.240234 0)"/>
      <use xlink:href="#DejaVuSans-6c" transform="translate(382.763672 0)"/>
      <use xlink:href="#DejaVuSans-20" transform="translate(410.546875 0)"/>
      <use xlink:href="#DejaVuSans-32" transform="translate(442.333984 0)"/>
      <use xlink:href="#DejaVuSans-36" transform="translate(505.957031 0)"/>
     </g>
    </g>
    <g id="line2d_37">
     <path d="M 942.842187 164.249063 
L 952.842187 164.249063 
L 962.842187 164.249063 
" style="fill: none; stroke: #8c564b; stroke-width: 1.5; stroke-linecap: square"/>
    </g>
    <g id="text_20">
     <!-- Channel 32 -->
     <g transform="translate(970.842187 167.749063) scale(0.1 -0.1)">
      <use xlink:href="#DejaVuSans-43"/>
      <use xlink:href="#DejaVuSans-68" transform="translate(69.824219 0)"/>
      <use xlink:href="#DejaVuSans-61" transform="translate(133.203125 0)"/>
      <use xlink:href="#DejaVuSans-6e" transform="translate(194.482422 0)"/>
      <use xlink:href="#DejaVuSans-6e" transform="translate(257.861328 0)"/>
      <use xlink:href="#DejaVuSans-65" transform="translate(321.240234 0)"/>
      <use xlink:href="#DejaVuSans-6c" transform="translate(382.763672 0)"/>
      <use xlink:href="#DejaVuSans-20" transform="translate(410.546875 0)"/>
      <use xlink:href="#DejaVuSans-33" transform="translate(442.333984 0)"/>
      <use xlink:href="#DejaVuSans-32" transform="translate(505.957031 0)"/>
     </g>
    </g>
    <g id="line2d_38">
     <path d="M 942.842187 178.927188 
L 952.842187 178.927188 
L 962.842187 178.927188 
" style="fill: none; stroke: #e377c2; stroke-width: 1.5; stroke-linecap: square"/>
    </g>
    <g id="text_21">
     <!-- Channel 38 -->
     <g transform="translate(970.842187 182.427188) scale(0.1 -0.1)">
      <use xlink:href="#DejaVuSans-43"/>
      <use xlink:href="#DejaVuSans-68" transform="translate(69.824219 0)"/>
      <use xlink:href="#DejaVuSans-61" transform="translate(133.203125 0)"/>
      <use xlink:href="#DejaVuSans-6e" transform="translate(194.482422 0)"/>
      <use xlink:href="#DejaVuSans-6e" transform="translate(257.861328 0)"/>
      <use xlink:href="#DejaVuSans-65" transform="translate(321.240234 0)"/>
      <use xlink:href="#DejaVuSans-6c" transform="translate(382.763672 0)"/>
      <use xlink:href="#DejaVuSans-20" transform="translate(410.546875 0)"/>
      <use xlink:href="#DejaVuSans-33" transform="translate(442.333984 0)"/>
      <use xlink:href="#DejaVuSans-38" transform="translate(505.957031 0)"/>
     </g>
    </g>
    <g id="line2d_39">
     <path d="M 942.842187 193.605313 
L 952.842187 193.605313 
L 962.842187 193.605313 
" style="fill: none; stroke: #7f7f7f; stroke-width: 1.5; stroke-linecap: square"/>
    </g>
    <g id="text_22">
     <!-- Channel 44 -->
     <g transform="translate(970.842187 197.105313) scale(0.1 -0.1)">
      <use xlink:href="#DejaVuSans-43"/>
      <use xlink:href="#DejaVuSans-68" transform="translate(69.824219 0)"/>
      <use xlink:href="#DejaVuSans-61" transform="translate(133.203125 0)"/>
      <use xlink:href="#DejaVuSans-6e" transform="translate(194.482422 0)"/>
      <use xlink:href="#DejaVuSans-6e" transform="translate(257.861328 0)"/>
      <use xlink:href="#DejaVuSans-65" transform="translate(321.240234 0)"/>
      <use xlink:href="#DejaVuSans-6c" transform="translate(382.763672 0)"/>
      <use xlink:href="#DejaVuSans-20" transform="translate(410.546875 0)"/>
      <use xlink:href="#DejaVuSans-34" transform="translate(442.333984 0)"/>
      <use xlink:href="#DejaVuSans-34" transform="translate(505.957031 0)"/>
     </g>
    </g>
    <g id="line2d_40">
     <path d="M 942.842187 208.283437 
L 952.842187 208.283437 
L 962.842187 208.283437 
" style="fill: none; stroke: #bcbd22; stroke-width: 1.5; stroke-linecap: square"/>
    </g>
    <g id="text_23">
     <!-- Channel 50 -->
     <g transform="translate(970.842187 211.783437) scale(0.1 -0.1)">
      <defs>
       <path id="DejaVuSans-35" d="M 691 4666 
L 3169 4666 
L 3169 4134 
L 1269 4134 
L 1269 2991 
Q 1406 3038 1543 3061 
Q 1681 3084 1819 3084 
Q 2600 3084 3056 2656 
Q 3513 2228 3513 1497 
Q 3513 744 3044 326 
Q 2575 -91 1722 -91 
Q 1428 -91 1123 -41 
Q 819 9 494 109 
L 494 744 
Q 775 591 1075 516 
Q 1375 441 1709 441 
Q 2250 441 2565 725 
Q 2881 1009 2881 1497 
Q 2881 1984 2565 2268 
Q 2250 2553 1709 2553 
Q 1456 2553 1204 2497 
Q 953 2441 691 2322 
L 691 4666 
z
" transform="scale(0.015625)"/>
      </defs>
      <use xlink:href="#DejaVuSans-43"/>
      <use xlink:href="#DejaVuSans-68" transform="translate(69.824219 0)"/>
      <use xlink:href="#DejaVuSans-61" transform="translate(133.203125 0)"/>
      <use xlink:href="#DejaVuSans-6e" transform="translate(194.482422 0)"/>
      <use xlink:href="#DejaVuSans-6e" transform="translate(257.861328 0)"/>
      <use xlink:href="#DejaVuSans-65" transform="translate(321.240234 0)"/>
      <use xlink:href="#DejaVuSans-6c" transform="translate(382.763672 0)"/>
      <use xlink:href="#DejaVuSans-20" transform="translate(410.546875 0)"/>
      <use xlink:href="#DejaVuSans-35" transform="translate(442.333984 0)"/>
      <use xlink:href="#DejaVuSans-30" transform="translate(505.957031 0)"/>
     </g>
    </g>
   </g>
  </g>
 </g>
 <defs>
  <clipPath id="pe79e04bb71">
   <rect x="144" y="77.76" width="892.8" height="498.96"/>
  </clipPath>
 </defs>
</svg>
