<?xml version="1.0" encoding="utf-8" standalone="no"?>
<!DOCTYPE svg PUBLIC "-//W3C//DTD SVG 1.1//EN"
  "http://www.w3.org/Graphics/SVG/1.1/DTD/svg11.dtd">
<svg xmlns:xlink="http://www.w3.org/1999/xlink" width="735.242839pt" height="588.194271pt" viewBox="0 0 735.242839 588.194271" xmlns="http://www.w3.org/2000/svg" version="1.1">
 <metadata>
  <rdf:RDF xmlns:dc="http://purl.org/dc/elements/1.1/" xmlns:cc="http://creativecommons.org/ns#" xmlns:rdf="http://www.w3.org/1999/02/22-rdf-syntax-ns#">
   <cc:Work>
    <dc:type rdf:resource="http://purl.org/dc/dcmitype/StillImage"/>
    <dc:date>2025-05-17T15:58:49.269907</dc:date>
    <dc:format>image/svg+xml</dc:format>
    <dc:creator>
     <cc:Agent>
      <dc:title>Matplotlib v3.10.1, https://matplotlib.org/</dc:title>
     </cc:Agent>
    </dc:creator>
   </cc:Work>
  </rdf:RDF>
 </metadata>
 <defs>
  <style type="text/css">*{stroke-linejoin: round; stroke-linecap: butt}</style>
 </defs>
 <g id="figure_1">
  <g id="patch_1">
   <path d="M 0 588.194271 
L 735.242839 588.194271 
L 735.242839 0 
L 0 0 
z
" style="fill: #ffffff"/>
  </g>
  <g id="axes_1">
   <g id="patch_2">
    <path d="M 82.19 265.967136 
L 724.442839 265.967136 
L 724.442839 32.64 
L 82.19 32.64 
z
" style="fill: #ffffff"/>
   </g>
   <g id="matplotlib.axis_1">
    <g id="xtick_1">
     <g id="line2d_1">
      <path d="M 87.055552 265.967136 
L 87.055552 32.64 
" clip-path="url(#pd52e7679e1)" style="fill: none; stroke: #b0b0b0; stroke-width: 0.8; stroke-linecap: square"/>
     </g>
     <g id="line2d_2">
      <defs>
       <path id="m50fcd255d0" d="M 0 0 
L 0 3.5 
" style="stroke: #000000; stroke-width: 0.8"/>
      </defs>
      <g>
       <use xlink:href="#m50fcd255d0" x="87.055552" y="265.967136" style="stroke: #000000; stroke-width: 0.8"/>
      </g>
     </g>
    </g>
    <g id="xtick_2">
     <g id="line2d_3">
      <path d="M 208.694347 265.967136 
L 208.694347 32.64 
" clip-path="url(#pd52e7679e1)" style="fill: none; stroke: #b0b0b0; stroke-width: 0.8; stroke-linecap: square"/>
     </g>
     <g id="line2d_4">
      <g>
       <use xlink:href="#m50fcd255d0" x="208.694347" y="265.967136" style="stroke: #000000; stroke-width: 0.8"/>
      </g>
     </g>
    </g>
    <g id="xtick_3">
     <g id="line2d_5">
      <path d="M 330.333142 265.967136 
L 330.333142 32.64 
" clip-path="url(#pd52e7679e1)" style="fill: none; stroke: #b0b0b0; stroke-width: 0.8; stroke-linecap: square"/>
     </g>
     <g id="line2d_6">
      <g>
       <use xlink:href="#m50fcd255d0" x="330.333142" y="265.967136" style="stroke: #000000; stroke-width: 0.8"/>
      </g>
     </g>
    </g>
    <g id="xtick_4">
     <g id="line2d_7">
      <path d="M 451.971938 265.967136 
L 451.971938 32.64 
" clip-path="url(#pd52e7679e1)" style="fill: none; stroke: #b0b0b0; stroke-width: 0.8; stroke-linecap: square"/>
     </g>
     <g id="line2d_8">
      <g>
       <use xlink:href="#m50fcd255d0" x="451.971938" y="265.967136" style="stroke: #000000; stroke-width: 0.8"/>
      </g>
     </g>
    </g>
    <g id="xtick_5">
     <g id="line2d_9">
      <path d="M 573.610733 265.967136 
L 573.610733 32.64 
" clip-path="url(#pd52e7679e1)" style="fill: none; stroke: #b0b0b0; stroke-width: 0.8; stroke-linecap: square"/>
     </g>
     <g id="line2d_10">
      <g>
       <use xlink:href="#m50fcd255d0" x="573.610733" y="265.967136" style="stroke: #000000; stroke-width: 0.8"/>
      </g>
     </g>
    </g>
    <g id="xtick_6">
     <g id="line2d_11">
      <path d="M 695.249528 265.967136 
L 695.249528 32.64 
" clip-path="url(#pd52e7679e1)" style="fill: none; stroke: #b0b0b0; stroke-width: 0.8; stroke-linecap: square"/>
     </g>
     <g id="line2d_12">
      <g>
       <use xlink:href="#m50fcd255d0" x="695.249528" y="265.967136" style="stroke: #000000; stroke-width: 0.8"/>
      </g>
     </g>
    </g>
   </g>
   <g id="matplotlib.axis_2">
    <g id="ytick_1">
     <g id="line2d_13">
      <path d="M 82.19 229.126561 
L 724.442839 229.126561 
" clip-path="url(#pd52e7679e1)" style="fill: none; stroke: #b0b0b0; stroke-width: 0.8; stroke-linecap: square"/>
     </g>
     <g id="line2d_14">
      <defs>
       <path id="m6586431f6f" d="M 0 0 
L -3.5 0 
" style="stroke: #000000; stroke-width: 0.8"/>
      </defs>
      <g>
       <use xlink:href="#m6586431f6f" x="82.19" y="229.126561" style="stroke: #000000; stroke-width: 0.8"/>
      </g>
     </g>
     <g id="text_1">
      <!-- −2 -->
      <g transform="translate(54.550938 234.445467) scale(0.14 -0.14)">
       <defs>
        <path id="DejaVuSans-2212" d="M 678 2272 
L 4684 2272 
L 4684 1741 
L 678 1741 
L 678 2272 
z
" transform="scale(0.015625)"/>
        <path id="DejaVuSans-32" d="M 1228 531 
L 3431 531 
L 3431 0 
L 469 0 
L 469 531 
Q 828 903 1448 1529 
Q 2069 2156 2228 2338 
Q 2531 2678 2651 2914 
Q 2772 3150 2772 3378 
Q 2772 3750 2511 3984 
Q 2250 4219 1831 4219 
Q 1534 4219 1204 4116 
Q 875 4013 500 3803 
L 500 4441 
Q 881 4594 1212 4672 
Q 1544 4750 1819 4750 
Q 2544 4750 2975 4387 
Q 3406 4025 3406 3419 
Q 3406 3131 3298 2873 
Q 3191 2616 2906 2266 
Q 2828 2175 2409 1742 
Q 1991 1309 1228 531 
z
" transform="scale(0.015625)"/>
       </defs>
       <use xlink:href="#DejaVuSans-2212"/>
       <use xlink:href="#DejaVuSans-32" transform="translate(83.789062 0)"/>
      </g>
     </g>
    </g>
    <g id="ytick_2">
     <g id="line2d_15">
      <path d="M 82.19 190.753399 
L 724.442839 190.753399 
" clip-path="url(#pd52e7679e1)" style="fill: none; stroke: #b0b0b0; stroke-width: 0.8; stroke-linecap: square"/>
     </g>
     <g id="line2d_16">
      <g>
       <use xlink:href="#m6586431f6f" x="82.19" y="190.753399" style="stroke: #000000; stroke-width: 0.8"/>
      </g>
     </g>
     <g id="text_2">
      <!-- −1 -->
      <g transform="translate(54.550938 196.072306) scale(0.14 -0.14)">
       <defs>
        <path id="DejaVuSans-31" d="M 794 531 
L 1825 531 
L 1825 4091 
L 703 3866 
L 703 4441 
L 1819 4666 
L 2450 4666 
L 2450 531 
L 3481 531 
L 3481 0 
L 794 0 
L 794 531 
z
" transform="scale(0.015625)"/>
       </defs>
       <use xlink:href="#DejaVuSans-2212"/>
       <use xlink:href="#DejaVuSans-31" transform="translate(83.789062 0)"/>
      </g>
     </g>
    </g>
    <g id="ytick_3">
     <g id="line2d_17">
      <path d="M 82.19 152.380238 
L 724.442839 152.380238 
" clip-path="url(#pd52e7679e1)" style="fill: none; stroke: #b0b0b0; stroke-width: 0.8; stroke-linecap: square"/>
     </g>
     <g id="line2d_18">
      <g>
       <use xlink:href="#m6586431f6f" x="82.19" y="152.380238" style="stroke: #000000; stroke-width: 0.8"/>
      </g>
     </g>
     <g id="text_3">
      <!-- 0 -->
      <g transform="translate(66.2825 157.699144) scale(0.14 -0.14)">
       <defs>
        <path id="DejaVuSans-30" d="M 2034 4250 
Q 1547 4250 1301 3770 
Q 1056 3291 1056 2328 
Q 1056 1369 1301 889 
Q 1547 409 2034 409 
Q 2525 409 2770 889 
Q 3016 1369 3016 2328 
Q 3016 3291 2770 3770 
Q 2525 4250 2034 4250 
z
M 2034 4750 
Q 2819 4750 3233 4129 
Q 3647 3509 3647 2328 
Q 3647 1150 3233 529 
Q 2819 -91 2034 -91 
Q 1250 -91 836 529 
Q 422 1150 422 2328 
Q 422 3509 836 4129 
Q 1250 4750 2034 4750 
z
" transform="scale(0.015625)"/>
       </defs>
       <use xlink:href="#DejaVuSans-30"/>
      </g>
     </g>
    </g>
    <g id="ytick_4">
     <g id="line2d_19">
      <path d="M 82.19 114.007076 
L 724.442839 114.007076 
" clip-path="url(#pd52e7679e1)" style="fill: none; stroke: #b0b0b0; stroke-width: 0.8; stroke-linecap: square"/>
     </g>
     <g id="line2d_20">
      <g>
       <use xlink:href="#m6586431f6f" x="82.19" y="114.007076" style="stroke: #000000; stroke-width: 0.8"/>
      </g>
     </g>
     <g id="text_4">
      <!-- 1 -->
      <g transform="translate(66.2825 119.325982) scale(0.14 -0.14)">
       <use xlink:href="#DejaVuSans-31"/>
      </g>
     </g>
    </g>
    <g id="ytick_5">
     <g id="line2d_21">
      <path d="M 82.19 75.633914 
L 724.442839 75.633914 
" clip-path="url(#pd52e7679e1)" style="fill: none; stroke: #b0b0b0; stroke-width: 0.8; stroke-linecap: square"/>
     </g>
     <g id="line2d_22">
      <g>
       <use xlink:href="#m6586431f6f" x="82.19" y="75.633914" style="stroke: #000000; stroke-width: 0.8"/>
      </g>
     </g>
     <g id="text_5">
      <!-- 2 -->
      <g transform="translate(66.2825 80.95282) scale(0.14 -0.14)">
       <use xlink:href="#DejaVuSans-32"/>
      </g>
     </g>
    </g>
    <g id="ytick_6">
     <g id="line2d_23">
      <path d="M 82.19 37.260753 
L 724.442839 37.260753 
" clip-path="url(#pd52e7679e1)" style="fill: none; stroke: #b0b0b0; stroke-width: 0.8; stroke-linecap: square"/>
     </g>
     <g id="line2d_24">
      <g>
       <use xlink:href="#m6586431f6f" x="82.19" y="37.260753" style="stroke: #000000; stroke-width: 0.8"/>
      </g>
     </g>
     <g id="text_6">
      <!-- 3 -->
      <g transform="translate(66.2825 42.579659) scale(0.14 -0.14)">
       <defs>
        <path id="DejaVuSans-33" d="M 2597 2516 
Q 3050 2419 3304 2112 
Q 3559 1806 3559 1356 
Q 3559 666 3084 287 
Q 2609 -91 1734 -91 
Q 1441 -91 1130 -33 
Q 819 25 488 141 
L 488 750 
Q 750 597 1062 519 
Q 1375 441 1716 441 
Q 2309 441 2620 675 
Q 2931 909 2931 1356 
Q 2931 1769 2642 2001 
Q 2353 2234 1838 2234 
L 1294 2234 
L 1294 2753 
L 1863 2753 
Q 2328 2753 2575 2939 
Q 2822 3125 2822 3475 
Q 2822 3834 2567 4026 
Q 2313 4219 1838 4219 
Q 1578 4219 1281 4162 
Q 984 4106 628 3988 
L 628 4550 
Q 988 4650 1302 4700 
Q 1616 4750 1894 4750 
Q 2613 4750 3031 4423 
Q 3450 4097 3450 3541 
Q 3450 3153 3228 2886 
Q 3006 2619 2597 2516 
z
" transform="scale(0.015625)"/>
       </defs>
       <use xlink:href="#DejaVuSans-33"/>
      </g>
     </g>
    </g>
    <g id="text_7">
     <!-- Phase (rad) -->
     <g transform="translate(46.8075 200.987474) rotate(-90) scale(0.18 -0.18)">
      <defs>
       <path id="DejaVuSans-50" d="M 1259 4147 
L 1259 2394 
L 2053 2394 
Q 2494 2394 2734 2622 
Q 2975 2850 2975 3272 
Q 2975 3691 2734 3919 
Q 2494 4147 2053 4147 
L 1259 4147 
z
M 628 4666 
L 2053 4666 
Q 2838 4666 3239 4311 
Q 3641 3956 3641 3272 
Q 3641 2581 3239 2228 
Q 2838 1875 2053 1875 
L 1259 1875 
L 1259 0 
L 628 0 
L 628 4666 
z
" transform="scale(0.015625)"/>
       <path id="DejaVuSans-68" d="M 3513 2113 
L 3513 0 
L 2938 0 
L 2938 2094 
Q 2938 2591 2744 2837 
Q 2550 3084 2163 3084 
Q 1697 3084 1428 2787 
Q 1159 2491 1159 1978 
L 1159 0 
L 581 0 
L 581 4863 
L 1159 4863 
L 1159 2956 
Q 1366 3272 1645 3428 
Q 1925 3584 2291 3584 
Q 2894 3584 3203 3211 
Q 3513 2838 3513 2113 
z
" transform="scale(0.015625)"/>
       <path id="DejaVuSans-61" d="M 2194 1759 
Q 1497 1759 1228 1600 
Q 959 1441 959 1056 
Q 959 750 1161 570 
Q 1363 391 1709 391 
Q 2188 391 2477 730 
Q 2766 1069 2766 1631 
L 2766 1759 
L 2194 1759 
z
M 3341 1997 
L 3341 0 
L 2766 0 
L 2766 531 
Q 2569 213 2275 61 
Q 1981 -91 1556 -91 
Q 1019 -91 701 211 
Q 384 513 384 1019 
Q 384 1609 779 1909 
Q 1175 2209 1959 2209 
L 2766 2209 
L 2766 2266 
Q 2766 2663 2505 2880 
Q 2244 3097 1772 3097 
Q 1472 3097 1187 3025 
Q 903 2953 641 2809 
L 641 3341 
Q 956 3463 1253 3523 
Q 1550 3584 1831 3584 
Q 2591 3584 2966 3190 
Q 3341 2797 3341 1997 
z
" transform="scale(0.015625)"/>
       <path id="DejaVuSans-73" d="M 2834 3397 
L 2834 2853 
Q 2591 2978 2328 3040 
Q 2066 3103 1784 3103 
Q 1356 3103 1142 2972 
Q 928 2841 928 2578 
Q 928 2378 1081 2264 
Q 1234 2150 1697 2047 
L 1894 2003 
Q 2506 1872 2764 1633 
Q 3022 1394 3022 966 
Q 3022 478 2636 193 
Q 2250 -91 1575 -91 
Q 1294 -91 989 -36 
Q 684 19 347 128 
L 347 722 
Q 666 556 975 473 
Q 1284 391 1588 391 
Q 1994 391 2212 530 
Q 2431 669 2431 922 
Q 2431 1156 2273 1281 
Q 2116 1406 1581 1522 
L 1381 1569 
Q 847 1681 609 1914 
Q 372 2147 372 2553 
Q 372 3047 722 3315 
Q 1072 3584 1716 3584 
Q 2034 3584 2315 3537 
Q 2597 3491 2834 3397 
z
" transform="scale(0.015625)"/>
       <path id="DejaVuSans-65" d="M 3597 1894 
L 3597 1613 
L 953 1613 
Q 991 1019 1311 708 
Q 1631 397 2203 397 
Q 2534 397 2845 478 
Q 3156 559 3463 722 
L 3463 178 
Q 3153 47 2828 -22 
Q 2503 -91 2169 -91 
Q 1331 -91 842 396 
Q 353 884 353 1716 
Q 353 2575 817 3079 
Q 1281 3584 2069 3584 
Q 2775 3584 3186 3129 
Q 3597 2675 3597 1894 
z
M 3022 2063 
Q 3016 2534 2758 2815 
Q 2500 3097 2075 3097 
Q 1594 3097 1305 2825 
Q 1016 2553 972 2059 
L 3022 2063 
z
" transform="scale(0.015625)"/>
       <path id="DejaVuSans-20" transform="scale(0.015625)"/>
       <path id="DejaVuSans-28" d="M 1984 4856 
Q 1566 4138 1362 3434 
Q 1159 2731 1159 2009 
Q 1159 1288 1364 580 
Q 1569 -128 1984 -844 
L 1484 -844 
Q 1016 -109 783 600 
Q 550 1309 550 2009 
Q 550 2706 781 3412 
Q 1013 4119 1484 4856 
L 1984 4856 
z
" transform="scale(0.015625)"/>
       <path id="DejaVuSans-72" d="M 2631 2963 
Q 2534 3019 2420 3045 
Q 2306 3072 2169 3072 
Q 1681 3072 1420 2755 
Q 1159 2438 1159 1844 
L 1159 0 
L 581 0 
L 581 3500 
L 1159 3500 
L 1159 2956 
Q 1341 3275 1631 3429 
Q 1922 3584 2338 3584 
Q 2397 3584 2469 3576 
Q 2541 3569 2628 3553 
L 2631 2963 
z
" transform="scale(0.015625)"/>
       <path id="DejaVuSans-64" d="M 2906 2969 
L 2906 4863 
L 3481 4863 
L 3481 0 
L 2906 0 
L 2906 525 
Q 2725 213 2448 61 
Q 2172 -91 1784 -91 
Q 1150 -91 751 415 
Q 353 922 353 1747 
Q 353 2572 751 3078 
Q 1150 3584 1784 3584 
Q 2172 3584 2448 3432 
Q 2725 3281 2906 2969 
z
M 947 1747 
Q 947 1113 1208 752 
Q 1469 391 1925 391 
Q 2381 391 2643 752 
Q 2906 1113 2906 1747 
Q 2906 2381 2643 2742 
Q 2381 3103 1925 3103 
Q 1469 3103 1208 2742 
Q 947 2381 947 1747 
z
" transform="scale(0.015625)"/>
       <path id="DejaVuSans-29" d="M 513 4856 
L 1013 4856 
Q 1481 4119 1714 3412 
Q 1947 2706 1947 2009 
Q 1947 1309 1714 600 
Q 1481 -109 1013 -844 
L 513 -844 
Q 928 -128 1133 580 
Q 1338 1288 1338 2009 
Q 1338 2731 1133 3434 
Q 928 4138 513 4856 
z
" transform="scale(0.015625)"/>
      </defs>
      <use xlink:href="#DejaVuSans-50"/>
      <use xlink:href="#DejaVuSans-68" transform="translate(60.302734 0)"/>
      <use xlink:href="#DejaVuSans-61" transform="translate(123.681641 0)"/>
      <use xlink:href="#DejaVuSans-73" transform="translate(184.960938 0)"/>
      <use xlink:href="#DejaVuSans-65" transform="translate(237.060547 0)"/>
      <use xlink:href="#DejaVuSans-20" transform="translate(298.583984 0)"/>
      <use xlink:href="#DejaVuSans-28" transform="translate(330.371094 0)"/>
      <use xlink:href="#DejaVuSans-72" transform="translate(369.384766 0)"/>
      <use xlink:href="#DejaVuSans-61" transform="translate(410.498047 0)"/>
      <use xlink:href="#DejaVuSans-64" transform="translate(471.777344 0)"/>
      <use xlink:href="#DejaVuSans-29" transform="translate(535.253906 0)"/>
     </g>
    </g>
   </g>
   <g id="line2d_25">
    <path d="M 111.383311 187.266844 
L 147.874949 241.821141 
L 184.366588 158.855713 
L 220.858227 188.405809 
L 257.349865 56.628054 
L 293.841504 227.012228 
L 330.333142 249.628859 
L 403.31642 141.089527 
L 439.808058 141.00828 
L 476.299697 235.069696 
L 512.791335 90.807918 
L 549.282974 255.361357 
L 585.774613 234.422238 
L 622.266251 231.610751 
L 658.75789 84.903485 
L 695.249528 43.245779 
" clip-path="url(#pd52e7679e1)" style="fill: none; stroke: #1f77b4; stroke-width: 1.5; stroke-linecap: square"/>
    <defs>
     <path id="md7f3e40293" d="M 0 3 
C 0.795609 3 1.55874 2.683901 2.12132 2.12132 
C 2.683901 1.55874 3 0.795609 3 0 
C 3 -0.795609 2.683901 -1.55874 2.12132 -2.12132 
C 1.55874 -2.683901 0.795609 -3 0 -3 
C -0.795609 -3 -1.55874 -2.683901 -2.12132 -2.12132 
C -2.683901 -1.55874 -3 -0.795609 -3 0 
C -3 0.795609 -2.683901 1.55874 -2.12132 2.12132 
C -1.55874 2.683901 -0.795609 3 0 3 
z
" style="stroke: #1f77b4"/>
    </defs>
    <g clip-path="url(#pd52e7679e1)">
     <use xlink:href="#md7f3e40293" x="111.383311" y="187.266844" style="fill: #1f77b4; stroke: #1f77b4"/>
     <use xlink:href="#md7f3e40293" x="147.874949" y="241.821141" style="fill: #1f77b4; stroke: #1f77b4"/>
     <use xlink:href="#md7f3e40293" x="184.366588" y="158.855713" style="fill: #1f77b4; stroke: #1f77b4"/>
     <use xlink:href="#md7f3e40293" x="220.858227" y="188.405809" style="fill: #1f77b4; stroke: #1f77b4"/>
     <use xlink:href="#md7f3e40293" x="257.349865" y="56.628054" style="fill: #1f77b4; stroke: #1f77b4"/>
     <use xlink:href="#md7f3e40293" x="293.841504" y="227.012228" style="fill: #1f77b4; stroke: #1f77b4"/>
     <use xlink:href="#md7f3e40293" x="330.333142" y="249.628859" style="fill: #1f77b4; stroke: #1f77b4"/>
     <use xlink:href="#md7f3e40293" x="403.31642" y="141.089527" style="fill: #1f77b4; stroke: #1f77b4"/>
     <use xlink:href="#md7f3e40293" x="439.808058" y="141.00828" style="fill: #1f77b4; stroke: #1f77b4"/>
     <use xlink:href="#md7f3e40293" x="476.299697" y="235.069696" style="fill: #1f77b4; stroke: #1f77b4"/>
     <use xlink:href="#md7f3e40293" x="512.791335" y="90.807918" style="fill: #1f77b4; stroke: #1f77b4"/>
     <use xlink:href="#md7f3e40293" x="549.282974" y="255.361357" style="fill: #1f77b4; stroke: #1f77b4"/>
     <use xlink:href="#md7f3e40293" x="585.774613" y="234.422238" style="fill: #1f77b4; stroke: #1f77b4"/>
     <use xlink:href="#md7f3e40293" x="622.266251" y="231.610751" style="fill: #1f77b4; stroke: #1f77b4"/>
     <use xlink:href="#md7f3e40293" x="658.75789" y="84.903485" style="fill: #1f77b4; stroke: #1f77b4"/>
     <use xlink:href="#md7f3e40293" x="695.249528" y="43.245779" style="fill: #1f77b4; stroke: #1f77b4"/>
    </g>
   </g>
   <g id="line2d_26">
    <path d="M 111.383311 84.373348 
L 147.874949 65.752586 
L 184.366588 183.09114 
L 220.858227 183.635797 
L 257.349865 106.375472 
L 293.841504 217.612449 
L 330.333142 229.667542 
L 403.31642 166.000154 
L 439.808058 199.678473 
L 476.299697 137.417856 
L 512.791335 77.502583 
L 549.282974 188.007696 
L 585.774613 246.574414 
L 622.266251 44.107012 
L 658.75789 227.887549 
L 695.249528 60.257808 
" clip-path="url(#pd52e7679e1)" style="fill: none; stroke-dasharray: 5.55,2.4; stroke-dashoffset: 0; stroke: #ff7f0e; stroke-width: 1.5"/>
    <defs>
     <path id="m96c06128ef" d="M -3 3 
L 3 3 
L 3 -3 
L -3 -3 
z
" style="stroke: #ff7f0e; stroke-linejoin: miter"/>
    </defs>
    <g clip-path="url(#pd52e7679e1)">
     <use xlink:href="#m96c06128ef" x="111.383311" y="84.373348" style="fill: #ff7f0e; stroke: #ff7f0e; stroke-linejoin: miter"/>
     <use xlink:href="#m96c06128ef" x="147.874949" y="65.752586" style="fill: #ff7f0e; stroke: #ff7f0e; stroke-linejoin: miter"/>
     <use xlink:href="#m96c06128ef" x="184.366588" y="183.09114" style="fill: #ff7f0e; stroke: #ff7f0e; stroke-linejoin: miter"/>
     <use xlink:href="#m96c06128ef" x="220.858227" y="183.635797" style="fill: #ff7f0e; stroke: #ff7f0e; stroke-linejoin: miter"/>
     <use xlink:href="#m96c06128ef" x="257.349865" y="106.375472" style="fill: #ff7f0e; stroke: #ff7f0e; stroke-linejoin: miter"/>
     <use xlink:href="#m96c06128ef" x="293.841504" y="217.612449" style="fill: #ff7f0e; stroke: #ff7f0e; stroke-linejoin: miter"/>
     <use xlink:href="#m96c06128ef" x="330.333142" y="229.667542" style="fill: #ff7f0e; stroke: #ff7f0e; stroke-linejoin: miter"/>
     <use xlink:href="#m96c06128ef" x="403.31642" y="166.000154" style="fill: #ff7f0e; stroke: #ff7f0e; stroke-linejoin: miter"/>
     <use xlink:href="#m96c06128ef" x="439.808058" y="199.678473" style="fill: #ff7f0e; stroke: #ff7f0e; stroke-linejoin: miter"/>
     <use xlink:href="#m96c06128ef" x="476.299697" y="137.417856" style="fill: #ff7f0e; stroke: #ff7f0e; stroke-linejoin: miter"/>
     <use xlink:href="#m96c06128ef" x="512.791335" y="77.502583" style="fill: #ff7f0e; stroke: #ff7f0e; stroke-linejoin: miter"/>
     <use xlink:href="#m96c06128ef" x="549.282974" y="188.007696" style="fill: #ff7f0e; stroke: #ff7f0e; stroke-linejoin: miter"/>
     <use xlink:href="#m96c06128ef" x="585.774613" y="246.574414" style="fill: #ff7f0e; stroke: #ff7f0e; stroke-linejoin: miter"/>
     <use xlink:href="#m96c06128ef" x="622.266251" y="44.107012" style="fill: #ff7f0e; stroke: #ff7f0e; stroke-linejoin: miter"/>
     <use xlink:href="#m96c06128ef" x="658.75789" y="227.887549" style="fill: #ff7f0e; stroke: #ff7f0e; stroke-linejoin: miter"/>
     <use xlink:href="#m96c06128ef" x="695.249528" y="60.257808" style="fill: #ff7f0e; stroke: #ff7f0e; stroke-linejoin: miter"/>
    </g>
   </g>
   <g id="patch_3">
    <path d="M 82.19 265.967136 
L 82.19 32.64 
" style="fill: none; stroke: #000000; stroke-width: 0.8; stroke-linejoin: miter; stroke-linecap: square"/>
   </g>
   <g id="patch_4">
    <path d="M 724.442839 265.967136 
L 724.442839 32.64 
" style="fill: none; stroke: #000000; stroke-width: 0.8; stroke-linejoin: miter; stroke-linecap: square"/>
   </g>
   <g id="patch_5">
    <path d="M 82.19 265.967136 
L 724.442839 265.967136 
" style="fill: none; stroke: #000000; stroke-width: 0.8; stroke-linejoin: miter; stroke-linecap: square"/>
   </g>
   <g id="patch_6">
    <path d="M 82.19 32.64 
L 724.442839 32.64 
" style="fill: none; stroke: #000000; stroke-width: 0.8; stroke-linejoin: miter; stroke-linecap: square"/>
   </g>
   <g id="text_8">
    <!-- Subevent 0: Local and Peer Phase vs Channel -->
    <g transform="translate(174.961732 26.64) scale(0.2 -0.2)">
     <defs>
      <path id="DejaVuSans-53" d="M 3425 4513 
L 3425 3897 
Q 3066 4069 2747 4153 
Q 2428 4238 2131 4238 
Q 1616 4238 1336 4038 
Q 1056 3838 1056 3469 
Q 1056 3159 1242 3001 
Q 1428 2844 1947 2747 
L 2328 2669 
Q 3034 2534 3370 2195 
Q 3706 1856 3706 1288 
Q 3706 609 3251 259 
Q 2797 -91 1919 -91 
Q 1588 -91 1214 -16 
Q 841 59 441 206 
L 441 856 
Q 825 641 1194 531 
Q 1563 422 1919 422 
Q 2459 422 2753 634 
Q 3047 847 3047 1241 
Q 3047 1584 2836 1778 
Q 2625 1972 2144 2069 
L 1759 2144 
Q 1053 2284 737 2584 
Q 422 2884 422 3419 
Q 422 4038 858 4394 
Q 1294 4750 2059 4750 
Q 2388 4750 2728 4690 
Q 3069 4631 3425 4513 
z
" transform="scale(0.015625)"/>
      <path id="DejaVuSans-75" d="M 544 1381 
L 544 3500 
L 1119 3500 
L 1119 1403 
Q 1119 906 1312 657 
Q 1506 409 1894 409 
Q 2359 409 2629 706 
Q 2900 1003 2900 1516 
L 2900 3500 
L 3475 3500 
L 3475 0 
L 2900 0 
L 2900 538 
Q 2691 219 2414 64 
Q 2138 -91 1772 -91 
Q 1169 -91 856 284 
Q 544 659 544 1381 
z
M 1991 3584 
L 1991 3584 
z
" transform="scale(0.015625)"/>
      <path id="DejaVuSans-62" d="M 3116 1747 
Q 3116 2381 2855 2742 
Q 2594 3103 2138 3103 
Q 1681 3103 1420 2742 
Q 1159 2381 1159 1747 
Q 1159 1113 1420 752 
Q 1681 391 2138 391 
Q 2594 391 2855 752 
Q 3116 1113 3116 1747 
z
M 1159 2969 
Q 1341 3281 1617 3432 
Q 1894 3584 2278 3584 
Q 2916 3584 3314 3078 
Q 3713 2572 3713 1747 
Q 3713 922 3314 415 
Q 2916 -91 2278 -91 
Q 1894 -91 1617 61 
Q 1341 213 1159 525 
L 1159 0 
L 581 0 
L 581 4863 
L 1159 4863 
L 1159 2969 
z
" transform="scale(0.015625)"/>
      <path id="DejaVuSans-76" d="M 191 3500 
L 800 3500 
L 1894 563 
L 2988 3500 
L 3597 3500 
L 2284 0 
L 1503 0 
L 191 3500 
z
" transform="scale(0.015625)"/>
      <path id="DejaVuSans-6e" d="M 3513 2113 
L 3513 0 
L 2938 0 
L 2938 2094 
Q 2938 2591 2744 2837 
Q 2550 3084 2163 3084 
Q 1697 3084 1428 2787 
Q 1159 2491 1159 1978 
L 1159 0 
L 581 0 
L 581 3500 
L 1159 3500 
L 1159 2956 
Q 1366 3272 1645 3428 
Q 1925 3584 2291 3584 
Q 2894 3584 3203 3211 
Q 3513 2838 3513 2113 
z
" transform="scale(0.015625)"/>
      <path id="DejaVuSans-74" d="M 1172 4494 
L 1172 3500 
L 2356 3500 
L 2356 3053 
L 1172 3053 
L 1172 1153 
Q 1172 725 1289 603 
Q 1406 481 1766 481 
L 2356 481 
L 2356 0 
L 1766 0 
Q 1100 0 847 248 
Q 594 497 594 1153 
L 594 3053 
L 172 3053 
L 172 3500 
L 594 3500 
L 594 4494 
L 1172 4494 
z
" transform="scale(0.015625)"/>
      <path id="DejaVuSans-3a" d="M 750 794 
L 1409 794 
L 1409 0 
L 750 0 
L 750 794 
z
M 750 3309 
L 1409 3309 
L 1409 2516 
L 750 2516 
L 750 3309 
z
" transform="scale(0.015625)"/>
      <path id="DejaVuSans-4c" d="M 628 4666 
L 1259 4666 
L 1259 531 
L 3531 531 
L 3531 0 
L 628 0 
L 628 4666 
z
" transform="scale(0.015625)"/>
      <path id="DejaVuSans-6f" d="M 1959 3097 
Q 1497 3097 1228 2736 
Q 959 2375 959 1747 
Q 959 1119 1226 758 
Q 1494 397 1959 397 
Q 2419 397 2687 759 
Q 2956 1122 2956 1747 
Q 2956 2369 2687 2733 
Q 2419 3097 1959 3097 
z
M 1959 3584 
Q 2709 3584 3137 3096 
Q 3566 2609 3566 1747 
Q 3566 888 3137 398 
Q 2709 -91 1959 -91 
Q 1206 -91 779 398 
Q 353 888 353 1747 
Q 353 2609 779 3096 
Q 1206 3584 1959 3584 
z
" transform="scale(0.015625)"/>
      <path id="DejaVuSans-63" d="M 3122 3366 
L 3122 2828 
Q 2878 2963 2633 3030 
Q 2388 3097 2138 3097 
Q 1578 3097 1268 2742 
Q 959 2388 959 1747 
Q 959 1106 1268 751 
Q 1578 397 2138 397 
Q 2388 397 2633 464 
Q 2878 531 3122 666 
L 3122 134 
Q 2881 22 2623 -34 
Q 2366 -91 2075 -91 
Q 1284 -91 818 406 
Q 353 903 353 1747 
Q 353 2603 823 3093 
Q 1294 3584 2113 3584 
Q 2378 3584 2631 3529 
Q 2884 3475 3122 3366 
z
" transform="scale(0.015625)"/>
      <path id="DejaVuSans-6c" d="M 603 4863 
L 1178 4863 
L 1178 0 
L 603 0 
L 603 4863 
z
" transform="scale(0.015625)"/>
      <path id="DejaVuSans-43" d="M 4122 4306 
L 4122 3641 
Q 3803 3938 3442 4084 
Q 3081 4231 2675 4231 
Q 1875 4231 1450 3742 
Q 1025 3253 1025 2328 
Q 1025 1406 1450 917 
Q 1875 428 2675 428 
Q 3081 428 3442 575 
Q 3803 722 4122 1019 
L 4122 359 
Q 3791 134 3420 21 
Q 3050 -91 2638 -91 
Q 1578 -91 968 557 
Q 359 1206 359 2328 
Q 359 3453 968 4101 
Q 1578 4750 2638 4750 
Q 3056 4750 3426 4639 
Q 3797 4528 4122 4306 
z
" transform="scale(0.015625)"/>
     </defs>
     <use xlink:href="#DejaVuSans-53"/>
     <use xlink:href="#DejaVuSans-75" transform="translate(63.476562 0)"/>
     <use xlink:href="#DejaVuSans-62" transform="translate(126.855469 0)"/>
     <use xlink:href="#DejaVuSans-65" transform="translate(190.332031 0)"/>
     <use xlink:href="#DejaVuSans-76" transform="translate(251.855469 0)"/>
     <use xlink:href="#DejaVuSans-65" transform="translate(311.035156 0)"/>
     <use xlink:href="#DejaVuSans-6e" transform="translate(372.558594 0)"/>
     <use xlink:href="#DejaVuSans-74" transform="translate(435.9375 0)"/>
     <use xlink:href="#DejaVuSans-20" transform="translate(475.146484 0)"/>
     <use xlink:href="#DejaVuSans-30" transform="translate(506.933594 0)"/>
     <use xlink:href="#DejaVuSans-3a" transform="translate(570.556641 0)"/>
     <use xlink:href="#DejaVuSans-20" transform="translate(604.248047 0)"/>
     <use xlink:href="#DejaVuSans-4c" transform="translate(636.035156 0)"/>
     <use xlink:href="#DejaVuSans-6f" transform="translate(689.998047 0)"/>
     <use xlink:href="#DejaVuSans-63" transform="translate(751.179688 0)"/>
     <use xlink:href="#DejaVuSans-61" transform="translate(806.160156 0)"/>
     <use xlink:href="#DejaVuSans-6c" transform="translate(867.439453 0)"/>
     <use xlink:href="#DejaVuSans-20" transform="translate(895.222656 0)"/>
     <use xlink:href="#DejaVuSans-61" transform="translate(927.009766 0)"/>
     <use xlink:href="#DejaVuSans-6e" transform="translate(988.289062 0)"/>
     <use xlink:href="#DejaVuSans-64" transform="translate(1051.667969 0)"/>
     <use xlink:href="#DejaVuSans-20" transform="translate(1115.144531 0)"/>
     <use xlink:href="#DejaVuSans-50" transform="translate(1146.931641 0)"/>
     <use xlink:href="#DejaVuSans-65" transform="translate(1203.609375 0)"/>
     <use xlink:href="#DejaVuSans-65" transform="translate(1265.132812 0)"/>
     <use xlink:href="#DejaVuSans-72" transform="translate(1326.65625 0)"/>
     <use xlink:href="#DejaVuSans-20" transform="translate(1367.769531 0)"/>
     <use xlink:href="#DejaVuSans-50" transform="translate(1399.556641 0)"/>
     <use xlink:href="#DejaVuSans-68" transform="translate(1459.859375 0)"/>
     <use xlink:href="#DejaVuSans-61" transform="translate(1523.238281 0)"/>
     <use xlink:href="#DejaVuSans-73" transform="translate(1584.517578 0)"/>
     <use xlink:href="#DejaVuSans-65" transform="translate(1636.617188 0)"/>
     <use xlink:href="#DejaVuSans-20" transform="translate(1698.140625 0)"/>
     <use xlink:href="#DejaVuSans-76" transform="translate(1729.927734 0)"/>
     <use xlink:href="#DejaVuSans-73" transform="translate(1789.107422 0)"/>
     <use xlink:href="#DejaVuSans-20" transform="translate(1841.207031 0)"/>
     <use xlink:href="#DejaVuSans-43" transform="translate(1872.994141 0)"/>
     <use xlink:href="#DejaVuSans-68" transform="translate(1942.818359 0)"/>
     <use xlink:href="#DejaVuSans-61" transform="translate(2006.197266 0)"/>
     <use xlink:href="#DejaVuSans-6e" transform="translate(2067.476562 0)"/>
     <use xlink:href="#DejaVuSans-6e" transform="translate(2130.855469 0)"/>
     <use xlink:href="#DejaVuSans-65" transform="translate(2194.234375 0)"/>
     <use xlink:href="#DejaVuSans-6c" transform="translate(2255.757812 0)"/>
    </g>
   </g>
   <g id="legend_1">
    <g id="patch_7">
     <path d="M 624.760339 92.41 
L 713.242839 92.41 
Q 716.442839 92.41 716.442839 89.21 
L 716.442839 43.84 
Q 716.442839 40.64 713.242839 40.64 
L 624.760339 40.64 
Q 621.560339 40.64 621.560339 43.84 
L 621.560339 89.21 
Q 621.560339 92.41 624.760339 92.41 
z
" style="fill: #ffffff; opacity: 0.8; stroke: #cccccc; stroke-linejoin: miter"/>
    </g>
    <g id="line2d_27">
     <path d="M 627.960339 53.5975 
L 643.960339 53.5975 
L 659.960339 53.5975 
" style="fill: none; stroke: #1f77b4; stroke-width: 1.5; stroke-linecap: square"/>
     <g>
      <use xlink:href="#md7f3e40293" x="643.960339" y="53.5975" style="fill: #1f77b4; stroke: #1f77b4"/>
     </g>
    </g>
    <g id="text_9">
     <!-- local -->
     <g transform="translate(672.760339 59.1975) scale(0.16 -0.16)">
      <use xlink:href="#DejaVuSans-6c"/>
      <use xlink:href="#DejaVuSans-6f" transform="translate(27.783203 0)"/>
      <use xlink:href="#DejaVuSans-63" transform="translate(88.964844 0)"/>
      <use xlink:href="#DejaVuSans-61" transform="translate(143.945312 0)"/>
      <use xlink:href="#DejaVuSans-6c" transform="translate(205.224609 0)"/>
     </g>
    </g>
    <g id="line2d_28">
     <path d="M 627.960339 77.0825 
L 643.960339 77.0825 
L 659.960339 77.0825 
" style="fill: none; stroke-dasharray: 5.55,2.4; stroke-dashoffset: 0; stroke: #ff7f0e; stroke-width: 1.5"/>
     <g>
      <use xlink:href="#m96c06128ef" x="643.960339" y="77.0825" style="fill: #ff7f0e; stroke: #ff7f0e; stroke-linejoin: miter"/>
     </g>
    </g>
    <g id="text_10">
     <!-- peer -->
     <g transform="translate(672.760339 82.6825) scale(0.16 -0.16)">
      <defs>
       <path id="DejaVuSans-70" d="M 1159 525 
L 1159 -1331 
L 581 -1331 
L 581 3500 
L 1159 3500 
L 1159 2969 
Q 1341 3281 1617 3432 
Q 1894 3584 2278 3584 
Q 2916 3584 3314 3078 
Q 3713 2572 3713 1747 
Q 3713 922 3314 415 
Q 2916 -91 2278 -91 
Q 1894 -91 1617 61 
Q 1341 213 1159 525 
z
M 3116 1747 
Q 3116 2381 2855 2742 
Q 2594 3103 2138 3103 
Q 1681 3103 1420 2742 
Q 1159 2381 1159 1747 
Q 1159 1113 1420 752 
Q 1681 391 2138 391 
Q 2594 391 2855 752 
Q 3116 1113 3116 1747 
z
" transform="scale(0.015625)"/>
      </defs>
      <use xlink:href="#DejaVuSans-70"/>
      <use xlink:href="#DejaVuSans-65" transform="translate(63.476562 0)"/>
      <use xlink:href="#DejaVuSans-65" transform="translate(125 0)"/>
      <use xlink:href="#DejaVuSans-72" transform="translate(186.523438 0)"/>
     </g>
    </g>
   </g>
  </g>
  <g id="axes_2">
   <g id="patch_8">
    <path d="M 82.19 535.434271 
L 724.442839 535.434271 
L 724.442839 302.107136 
L 82.19 302.107136 
z
" style="fill: #ffffff"/>
   </g>
   <g id="matplotlib.axis_3">
    <g id="xtick_7">
     <g id="line2d_29">
      <path d="M 87.055552 535.434271 
L 87.055552 302.107136 
" clip-path="url(#p3109c23ef3)" style="fill: none; stroke: #b0b0b0; stroke-width: 0.8; stroke-linecap: square"/>
     </g>
     <g id="line2d_30">
      <g>
       <use xlink:href="#m50fcd255d0" x="87.055552" y="535.434271" style="stroke: #000000; stroke-width: 0.8"/>
      </g>
     </g>
     <g id="text_11">
      <!-- 0 -->
      <g transform="translate(82.601802 553.072084) scale(0.14 -0.14)">
       <use xlink:href="#DejaVuSans-30"/>
      </g>
     </g>
    </g>
    <g id="xtick_8">
     <g id="line2d_31">
      <path d="M 208.694347 535.434271 
L 208.694347 302.107136 
" clip-path="url(#p3109c23ef3)" style="fill: none; stroke: #b0b0b0; stroke-width: 0.8; stroke-linecap: square"/>
     </g>
     <g id="line2d_32">
      <g>
       <use xlink:href="#m50fcd255d0" x="208.694347" y="535.434271" style="stroke: #000000; stroke-width: 0.8"/>
      </g>
     </g>
     <g id="text_12">
      <!-- 10 -->
      <g transform="translate(199.786847 553.072084) scale(0.14 -0.14)">
       <use xlink:href="#DejaVuSans-31"/>
       <use xlink:href="#DejaVuSans-30" transform="translate(63.623047 0)"/>
      </g>
     </g>
    </g>
    <g id="xtick_9">
     <g id="line2d_33">
      <path d="M 330.333142 535.434271 
L 330.333142 302.107136 
" clip-path="url(#p3109c23ef3)" style="fill: none; stroke: #b0b0b0; stroke-width: 0.8; stroke-linecap: square"/>
     </g>
     <g id="line2d_34">
      <g>
       <use xlink:href="#m50fcd255d0" x="330.333142" y="535.434271" style="stroke: #000000; stroke-width: 0.8"/>
      </g>
     </g>
     <g id="text_13">
      <!-- 20 -->
      <g transform="translate(321.425642 553.072084) scale(0.14 -0.14)">
       <use xlink:href="#DejaVuSans-32"/>
       <use xlink:href="#DejaVuSans-30" transform="translate(63.623047 0)"/>
      </g>
     </g>
    </g>
    <g id="xtick_10">
     <g id="line2d_35">
      <path d="M 451.971938 535.434271 
L 451.971938 302.107136 
" clip-path="url(#p3109c23ef3)" style="fill: none; stroke: #b0b0b0; stroke-width: 0.8; stroke-linecap: square"/>
     </g>
     <g id="line2d_36">
      <g>
       <use xlink:href="#m50fcd255d0" x="451.971938" y="535.434271" style="stroke: #000000; stroke-width: 0.8"/>
      </g>
     </g>
     <g id="text_14">
      <!-- 30 -->
      <g transform="translate(443.064438 553.072084) scale(0.14 -0.14)">
       <use xlink:href="#DejaVuSans-33"/>
       <use xlink:href="#DejaVuSans-30" transform="translate(63.623047 0)"/>
      </g>
     </g>
    </g>
    <g id="xtick_11">
     <g id="line2d_37">
      <path d="M 573.610733 535.434271 
L 573.610733 302.107136 
" clip-path="url(#p3109c23ef3)" style="fill: none; stroke: #b0b0b0; stroke-width: 0.8; stroke-linecap: square"/>
     </g>
     <g id="line2d_38">
      <g>
       <use xlink:href="#m50fcd255d0" x="573.610733" y="535.434271" style="stroke: #000000; stroke-width: 0.8"/>
      </g>
     </g>
     <g id="text_15">
      <!-- 40 -->
      <g transform="translate(564.703233 553.072084) scale(0.14 -0.14)">
       <defs>
        <path id="DejaVuSans-34" d="M 2419 4116 
L 825 1625 
L 2419 1625 
L 2419 4116 
z
M 2253 4666 
L 3047 4666 
L 3047 1625 
L 3713 1625 
L 3713 1100 
L 3047 1100 
L 3047 0 
L 2419 0 
L 2419 1100 
L 313 1100 
L 313 1709 
L 2253 4666 
z
" transform="scale(0.015625)"/>
       </defs>
       <use xlink:href="#DejaVuSans-34"/>
       <use xlink:href="#DejaVuSans-30" transform="translate(63.623047 0)"/>
      </g>
     </g>
    </g>
    <g id="xtick_12">
     <g id="line2d_39">
      <path d="M 695.249528 535.434271 
L 695.249528 302.107136 
" clip-path="url(#p3109c23ef3)" style="fill: none; stroke: #b0b0b0; stroke-width: 0.8; stroke-linecap: square"/>
     </g>
     <g id="line2d_40">
      <g>
       <use xlink:href="#m50fcd255d0" x="695.249528" y="535.434271" style="stroke: #000000; stroke-width: 0.8"/>
      </g>
     </g>
     <g id="text_16">
      <!-- 50 -->
      <g transform="translate(686.342028 553.072084) scale(0.14 -0.14)">
       <defs>
        <path id="DejaVuSans-35" d="M 691 4666 
L 3169 4666 
L 3169 4134 
L 1269 4134 
L 1269 2991 
Q 1406 3038 1543 3061 
Q 1681 3084 1819 3084 
Q 2600 3084 3056 2656 
Q 3513 2228 3513 1497 
Q 3513 744 3044 326 
Q 2575 -91 1722 -91 
Q 1428 -91 1123 -41 
Q 819 9 494 109 
L 494 744 
Q 775 591 1075 516 
Q 1375 441 1709 441 
Q 2250 441 2565 725 
Q 2881 1009 2881 1497 
Q 2881 1984 2565 2268 
Q 2250 2553 1709 2553 
Q 1456 2553 1204 2497 
Q 953 2441 691 2322 
L 691 4666 
z
" transform="scale(0.015625)"/>
       </defs>
       <use xlink:href="#DejaVuSans-35"/>
       <use xlink:href="#DejaVuSans-30" transform="translate(63.623047 0)"/>
      </g>
     </g>
    </g>
    <g id="text_17">
     <!-- Channel -->
     <g transform="translate(366.367201 573.660834) scale(0.18 -0.18)">
      <use xlink:href="#DejaVuSans-43"/>
      <use xlink:href="#DejaVuSans-68" transform="translate(69.824219 0)"/>
      <use xlink:href="#DejaVuSans-61" transform="translate(133.203125 0)"/>
      <use xlink:href="#DejaVuSans-6e" transform="translate(194.482422 0)"/>
      <use xlink:href="#DejaVuSans-6e" transform="translate(257.861328 0)"/>
      <use xlink:href="#DejaVuSans-65" transform="translate(321.240234 0)"/>
      <use xlink:href="#DejaVuSans-6c" transform="translate(382.763672 0)"/>
     </g>
    </g>
   </g>
   <g id="matplotlib.axis_4">
    <g id="ytick_7">
     <g id="line2d_41">
      <path d="M 82.19 530.622178 
L 724.442839 530.622178 
" clip-path="url(#p3109c23ef3)" style="fill: none; stroke: #b0b0b0; stroke-width: 0.8; stroke-linecap: square"/>
     </g>
     <g id="line2d_42">
      <g>
       <use xlink:href="#m6586431f6f" x="82.19" y="530.622178" style="stroke: #000000; stroke-width: 0.8"/>
      </g>
     </g>
     <g id="text_18">
      <!-- −14 -->
      <g transform="translate(45.643438 535.941084) scale(0.14 -0.14)">
       <use xlink:href="#DejaVuSans-2212"/>
       <use xlink:href="#DejaVuSans-31" transform="translate(83.789062 0)"/>
       <use xlink:href="#DejaVuSans-34" transform="translate(147.412109 0)"/>
      </g>
     </g>
    </g>
    <g id="ytick_8">
     <g id="line2d_43">
      <path d="M 82.19 501.300017 
L 724.442839 501.300017 
" clip-path="url(#p3109c23ef3)" style="fill: none; stroke: #b0b0b0; stroke-width: 0.8; stroke-linecap: square"/>
     </g>
     <g id="line2d_44">
      <g>
       <use xlink:href="#m6586431f6f" x="82.19" y="501.300017" style="stroke: #000000; stroke-width: 0.8"/>
      </g>
     </g>
     <g id="text_19">
      <!-- −12 -->
      <g transform="translate(45.643438 506.618923) scale(0.14 -0.14)">
       <use xlink:href="#DejaVuSans-2212"/>
       <use xlink:href="#DejaVuSans-31" transform="translate(83.789062 0)"/>
       <use xlink:href="#DejaVuSans-32" transform="translate(147.412109 0)"/>
      </g>
     </g>
    </g>
    <g id="ytick_9">
     <g id="line2d_45">
      <path d="M 82.19 471.977855 
L 724.442839 471.977855 
" clip-path="url(#p3109c23ef3)" style="fill: none; stroke: #b0b0b0; stroke-width: 0.8; stroke-linecap: square"/>
     </g>
     <g id="line2d_46">
      <g>
       <use xlink:href="#m6586431f6f" x="82.19" y="471.977855" style="stroke: #000000; stroke-width: 0.8"/>
      </g>
     </g>
     <g id="text_20">
      <!-- −10 -->
      <g transform="translate(45.643438 477.296762) scale(0.14 -0.14)">
       <use xlink:href="#DejaVuSans-2212"/>
       <use xlink:href="#DejaVuSans-31" transform="translate(83.789062 0)"/>
       <use xlink:href="#DejaVuSans-30" transform="translate(147.412109 0)"/>
      </g>
     </g>
    </g>
    <g id="ytick_10">
     <g id="line2d_47">
      <path d="M 82.19 442.655694 
L 724.442839 442.655694 
" clip-path="url(#p3109c23ef3)" style="fill: none; stroke: #b0b0b0; stroke-width: 0.8; stroke-linecap: square"/>
     </g>
     <g id="line2d_48">
      <g>
       <use xlink:href="#m6586431f6f" x="82.19" y="442.655694" style="stroke: #000000; stroke-width: 0.8"/>
      </g>
     </g>
     <g id="text_21">
      <!-- −8 -->
      <g transform="translate(54.550938 447.9746) scale(0.14 -0.14)">
       <defs>
        <path id="DejaVuSans-38" d="M 2034 2216 
Q 1584 2216 1326 1975 
Q 1069 1734 1069 1313 
Q 1069 891 1326 650 
Q 1584 409 2034 409 
Q 2484 409 2743 651 
Q 3003 894 3003 1313 
Q 3003 1734 2745 1975 
Q 2488 2216 2034 2216 
z
M 1403 2484 
Q 997 2584 770 2862 
Q 544 3141 544 3541 
Q 544 4100 942 4425 
Q 1341 4750 2034 4750 
Q 2731 4750 3128 4425 
Q 3525 4100 3525 3541 
Q 3525 3141 3298 2862 
Q 3072 2584 2669 2484 
Q 3125 2378 3379 2068 
Q 3634 1759 3634 1313 
Q 3634 634 3220 271 
Q 2806 -91 2034 -91 
Q 1263 -91 848 271 
Q 434 634 434 1313 
Q 434 1759 690 2068 
Q 947 2378 1403 2484 
z
M 1172 3481 
Q 1172 3119 1398 2916 
Q 1625 2713 2034 2713 
Q 2441 2713 2670 2916 
Q 2900 3119 2900 3481 
Q 2900 3844 2670 4047 
Q 2441 4250 2034 4250 
Q 1625 4250 1398 4047 
Q 1172 3844 1172 3481 
z
" transform="scale(0.015625)"/>
       </defs>
       <use xlink:href="#DejaVuSans-2212"/>
       <use xlink:href="#DejaVuSans-38" transform="translate(83.789062 0)"/>
      </g>
     </g>
    </g>
    <g id="ytick_11">
     <g id="line2d_49">
      <path d="M 82.19 413.333533 
L 724.442839 413.333533 
" clip-path="url(#p3109c23ef3)" style="fill: none; stroke: #b0b0b0; stroke-width: 0.8; stroke-linecap: square"/>
     </g>
     <g id="line2d_50">
      <g>
       <use xlink:href="#m6586431f6f" x="82.19" y="413.333533" style="stroke: #000000; stroke-width: 0.8"/>
      </g>
     </g>
     <g id="text_22">
      <!-- −6 -->
      <g transform="translate(54.550938 418.652439) scale(0.14 -0.14)">
       <defs>
        <path id="DejaVuSans-36" d="M 2113 2584 
Q 1688 2584 1439 2293 
Q 1191 2003 1191 1497 
Q 1191 994 1439 701 
Q 1688 409 2113 409 
Q 2538 409 2786 701 
Q 3034 994 3034 1497 
Q 3034 2003 2786 2293 
Q 2538 2584 2113 2584 
z
M 3366 4563 
L 3366 3988 
Q 3128 4100 2886 4159 
Q 2644 4219 2406 4219 
Q 1781 4219 1451 3797 
Q 1122 3375 1075 2522 
Q 1259 2794 1537 2939 
Q 1816 3084 2150 3084 
Q 2853 3084 3261 2657 
Q 3669 2231 3669 1497 
Q 3669 778 3244 343 
Q 2819 -91 2113 -91 
Q 1303 -91 875 529 
Q 447 1150 447 2328 
Q 447 3434 972 4092 
Q 1497 4750 2381 4750 
Q 2619 4750 2861 4703 
Q 3103 4656 3366 4563 
z
" transform="scale(0.015625)"/>
       </defs>
       <use xlink:href="#DejaVuSans-2212"/>
       <use xlink:href="#DejaVuSans-36" transform="translate(83.789062 0)"/>
      </g>
     </g>
    </g>
    <g id="ytick_12">
     <g id="line2d_51">
      <path d="M 82.19 384.011372 
L 724.442839 384.011372 
" clip-path="url(#p3109c23ef3)" style="fill: none; stroke: #b0b0b0; stroke-width: 0.8; stroke-linecap: square"/>
     </g>
     <g id="line2d_52">
      <g>
       <use xlink:href="#m6586431f6f" x="82.19" y="384.011372" style="stroke: #000000; stroke-width: 0.8"/>
      </g>
     </g>
     <g id="text_23">
      <!-- −4 -->
      <g transform="translate(54.550938 389.330278) scale(0.14 -0.14)">
       <use xlink:href="#DejaVuSans-2212"/>
       <use xlink:href="#DejaVuSans-34" transform="translate(83.789062 0)"/>
      </g>
     </g>
    </g>
    <g id="ytick_13">
     <g id="line2d_53">
      <path d="M 82.19 354.68921 
L 724.442839 354.68921 
" clip-path="url(#p3109c23ef3)" style="fill: none; stroke: #b0b0b0; stroke-width: 0.8; stroke-linecap: square"/>
     </g>
     <g id="line2d_54">
      <g>
       <use xlink:href="#m6586431f6f" x="82.19" y="354.68921" style="stroke: #000000; stroke-width: 0.8"/>
      </g>
     </g>
     <g id="text_24">
      <!-- −2 -->
      <g transform="translate(54.550938 360.008116) scale(0.14 -0.14)">
       <use xlink:href="#DejaVuSans-2212"/>
       <use xlink:href="#DejaVuSans-32" transform="translate(83.789062 0)"/>
      </g>
     </g>
    </g>
    <g id="ytick_14">
     <g id="line2d_55">
      <path d="M 82.19 325.367049 
L 724.442839 325.367049 
" clip-path="url(#p3109c23ef3)" style="fill: none; stroke: #b0b0b0; stroke-width: 0.8; stroke-linecap: square"/>
     </g>
     <g id="line2d_56">
      <g>
       <use xlink:href="#m6586431f6f" x="82.19" y="325.367049" style="stroke: #000000; stroke-width: 0.8"/>
      </g>
     </g>
     <g id="text_25">
      <!-- 0 -->
      <g transform="translate(66.2825 330.685955) scale(0.14 -0.14)">
       <use xlink:href="#DejaVuSans-30"/>
      </g>
     </g>
    </g>
    <g id="text_26">
     <!-- Unwrapped Phase (rad) -->
     <g transform="translate(37.9 524.85961) rotate(-90) scale(0.18 -0.18)">
      <defs>
       <path id="DejaVuSans-55" d="M 556 4666 
L 1191 4666 
L 1191 1831 
Q 1191 1081 1462 751 
Q 1734 422 2344 422 
Q 2950 422 3222 751 
Q 3494 1081 3494 1831 
L 3494 4666 
L 4128 4666 
L 4128 1753 
Q 4128 841 3676 375 
Q 3225 -91 2344 -91 
Q 1459 -91 1007 375 
Q 556 841 556 1753 
L 556 4666 
z
" transform="scale(0.015625)"/>
       <path id="DejaVuSans-77" d="M 269 3500 
L 844 3500 
L 1563 769 
L 2278 3500 
L 2956 3500 
L 3675 769 
L 4391 3500 
L 4966 3500 
L 4050 0 
L 3372 0 
L 2619 2869 
L 1863 0 
L 1184 0 
L 269 3500 
z
" transform="scale(0.015625)"/>
      </defs>
      <use xlink:href="#DejaVuSans-55"/>
      <use xlink:href="#DejaVuSans-6e" transform="translate(73.193359 0)"/>
      <use xlink:href="#DejaVuSans-77" transform="translate(136.572266 0)"/>
      <use xlink:href="#DejaVuSans-72" transform="translate(218.359375 0)"/>
      <use xlink:href="#DejaVuSans-61" transform="translate(259.472656 0)"/>
      <use xlink:href="#DejaVuSans-70" transform="translate(320.751953 0)"/>
      <use xlink:href="#DejaVuSans-70" transform="translate(384.228516 0)"/>
      <use xlink:href="#DejaVuSans-65" transform="translate(447.705078 0)"/>
      <use xlink:href="#DejaVuSans-64" transform="translate(509.228516 0)"/>
      <use xlink:href="#DejaVuSans-20" transform="translate(572.705078 0)"/>
      <use xlink:href="#DejaVuSans-50" transform="translate(604.492188 0)"/>
      <use xlink:href="#DejaVuSans-68" transform="translate(664.794922 0)"/>
      <use xlink:href="#DejaVuSans-61" transform="translate(728.173828 0)"/>
      <use xlink:href="#DejaVuSans-73" transform="translate(789.453125 0)"/>
      <use xlink:href="#DejaVuSans-65" transform="translate(841.552734 0)"/>
      <use xlink:href="#DejaVuSans-20" transform="translate(903.076172 0)"/>
      <use xlink:href="#DejaVuSans-28" transform="translate(934.863281 0)"/>
      <use xlink:href="#DejaVuSans-72" transform="translate(973.876953 0)"/>
      <use xlink:href="#DejaVuSans-61" transform="translate(1014.990234 0)"/>
      <use xlink:href="#DejaVuSans-64" transform="translate(1076.269531 0)"/>
      <use xlink:href="#DejaVuSans-29" transform="translate(1139.746094 0)"/>
     </g>
    </g>
   </g>
   <g id="line2d_57">
    <path d="M 111.383311 312.712915 
L 147.874949 326.441897 
L 184.366588 339.574699 
L 220.858227 351.072882 
L 257.349865 363.324824 
L 293.841504 378.804406 
L 330.333142 392.051293 
L 403.31642 418.375246 
L 439.808058 431.211545 
L 476.299697 443.361549 
L 512.791335 457.470725 
L 549.282974 470.442961 
L 585.774613 484.819188 
L 622.266251 498.507389 
L 658.75789 512.671825 
L 695.249528 524.828493 
" clip-path="url(#p3109c23ef3)" style="fill: none; stroke-dasharray: 9.6,2.4,1.5,2.4; stroke-dashoffset: 0; stroke: #008000; stroke-width: 1.5"/>
    <defs>
     <path id="m3c5c274354" d="M 0 -3 
L -3 3 
L 3 3 
z
" style="stroke: #008000; stroke-linejoin: miter"/>
    </defs>
    <g clip-path="url(#p3109c23ef3)">
     <use xlink:href="#m3c5c274354" x="111.383311" y="312.712915" style="fill: #008000; stroke: #008000; stroke-linejoin: miter"/>
     <use xlink:href="#m3c5c274354" x="147.874949" y="326.441897" style="fill: #008000; stroke: #008000; stroke-linejoin: miter"/>
     <use xlink:href="#m3c5c274354" x="184.366588" y="339.574699" style="fill: #008000; stroke: #008000; stroke-linejoin: miter"/>
     <use xlink:href="#m3c5c274354" x="220.858227" y="351.072882" style="fill: #008000; stroke: #008000; stroke-linejoin: miter"/>
     <use xlink:href="#m3c5c274354" x="257.349865" y="363.324824" style="fill: #008000; stroke: #008000; stroke-linejoin: miter"/>
     <use xlink:href="#m3c5c274354" x="293.841504" y="378.804406" style="fill: #008000; stroke: #008000; stroke-linejoin: miter"/>
     <use xlink:href="#m3c5c274354" x="330.333142" y="392.051293" style="fill: #008000; stroke: #008000; stroke-linejoin: miter"/>
     <use xlink:href="#m3c5c274354" x="403.31642" y="418.375246" style="fill: #008000; stroke: #008000; stroke-linejoin: miter"/>
     <use xlink:href="#m3c5c274354" x="439.808058" y="431.211545" style="fill: #008000; stroke: #008000; stroke-linejoin: miter"/>
     <use xlink:href="#m3c5c274354" x="476.299697" y="443.361549" style="fill: #008000; stroke: #008000; stroke-linejoin: miter"/>
     <use xlink:href="#m3c5c274354" x="512.791335" y="457.470725" style="fill: #008000; stroke: #008000; stroke-linejoin: miter"/>
     <use xlink:href="#m3c5c274354" x="549.282974" y="470.442961" style="fill: #008000; stroke: #008000; stroke-linejoin: miter"/>
     <use xlink:href="#m3c5c274354" x="585.774613" y="484.819188" style="fill: #008000; stroke: #008000; stroke-linejoin: miter"/>
     <use xlink:href="#m3c5c274354" x="622.266251" y="498.507389" style="fill: #008000; stroke: #008000; stroke-linejoin: miter"/>
     <use xlink:href="#m3c5c274354" x="658.75789" y="512.671825" style="fill: #008000; stroke: #008000; stroke-linejoin: miter"/>
     <use xlink:href="#m3c5c274354" x="695.249528" y="524.828493" style="fill: #008000; stroke: #008000; stroke-linejoin: miter"/>
    </g>
   </g>
   <g id="patch_9">
    <path d="M 82.19 535.434271 
L 82.19 302.107136 
" style="fill: none; stroke: #000000; stroke-width: 0.8; stroke-linejoin: miter; stroke-linecap: square"/>
   </g>
   <g id="patch_10">
    <path d="M 724.442839 535.434271 
L 724.442839 302.107136 
" style="fill: none; stroke: #000000; stroke-width: 0.8; stroke-linejoin: miter; stroke-linecap: square"/>
   </g>
   <g id="patch_11">
    <path d="M 82.19 535.434271 
L 724.442839 535.434271 
" style="fill: none; stroke: #000000; stroke-width: 0.8; stroke-linejoin: miter; stroke-linecap: square"/>
   </g>
   <g id="patch_12">
    <path d="M 82.19 302.107136 
L 724.442839 302.107136 
" style="fill: none; stroke: #000000; stroke-width: 0.8; stroke-linejoin: miter; stroke-linecap: square"/>
   </g>
   <g id="text_27">
    <!-- Subevent 0: Signal Phase (Unwrapped) vs Channel -->
    <g transform="translate(149.164857 296.107136) scale(0.2 -0.2)">
     <defs>
      <path id="DejaVuSans-69" d="M 603 3500 
L 1178 3500 
L 1178 0 
L 603 0 
L 603 3500 
z
M 603 4863 
L 1178 4863 
L 1178 4134 
L 603 4134 
L 603 4863 
z
" transform="scale(0.015625)"/>
      <path id="DejaVuSans-67" d="M 2906 1791 
Q 2906 2416 2648 2759 
Q 2391 3103 1925 3103 
Q 1463 3103 1205 2759 
Q 947 2416 947 1791 
Q 947 1169 1205 825 
Q 1463 481 1925 481 
Q 2391 481 2648 825 
Q 2906 1169 2906 1791 
z
M 3481 434 
Q 3481 -459 3084 -895 
Q 2688 -1331 1869 -1331 
Q 1566 -1331 1297 -1286 
Q 1028 -1241 775 -1147 
L 775 -588 
Q 1028 -725 1275 -790 
Q 1522 -856 1778 -856 
Q 2344 -856 2625 -561 
Q 2906 -266 2906 331 
L 2906 616 
Q 2728 306 2450 153 
Q 2172 0 1784 0 
Q 1141 0 747 490 
Q 353 981 353 1791 
Q 353 2603 747 3093 
Q 1141 3584 1784 3584 
Q 2172 3584 2450 3431 
Q 2728 3278 2906 2969 
L 2906 3500 
L 3481 3500 
L 3481 434 
z
" transform="scale(0.015625)"/>
     </defs>
     <use xlink:href="#DejaVuSans-53"/>
     <use xlink:href="#DejaVuSans-75" transform="translate(63.476562 0)"/>
     <use xlink:href="#DejaVuSans-62" transform="translate(126.855469 0)"/>
     <use xlink:href="#DejaVuSans-65" transform="translate(190.332031 0)"/>
     <use xlink:href="#DejaVuSans-76" transform="translate(251.855469 0)"/>
     <use xlink:href="#DejaVuSans-65" transform="translate(311.035156 0)"/>
     <use xlink:href="#DejaVuSans-6e" transform="translate(372.558594 0)"/>
     <use xlink:href="#DejaVuSans-74" transform="translate(435.9375 0)"/>
     <use xlink:href="#DejaVuSans-20" transform="translate(475.146484 0)"/>
     <use xlink:href="#DejaVuSans-30" transform="translate(506.933594 0)"/>
     <use xlink:href="#DejaVuSans-3a" transform="translate(570.556641 0)"/>
     <use xlink:href="#DejaVuSans-20" transform="translate(604.248047 0)"/>
     <use xlink:href="#DejaVuSans-53" transform="translate(636.035156 0)"/>
     <use xlink:href="#DejaVuSans-69" transform="translate(699.511719 0)"/>
     <use xlink:href="#DejaVuSans-67" transform="translate(727.294922 0)"/>
     <use xlink:href="#DejaVuSans-6e" transform="translate(790.771484 0)"/>
     <use xlink:href="#DejaVuSans-61" transform="translate(854.150391 0)"/>
     <use xlink:href="#DejaVuSans-6c" transform="translate(915.429688 0)"/>
     <use xlink:href="#DejaVuSans-20" transform="translate(943.212891 0)"/>
     <use xlink:href="#DejaVuSans-50" transform="translate(975 0)"/>
     <use xlink:href="#DejaVuSans-68" transform="translate(1035.302734 0)"/>
     <use xlink:href="#DejaVuSans-61" transform="translate(1098.681641 0)"/>
     <use xlink:href="#DejaVuSans-73" transform="translate(1159.960938 0)"/>
     <use xlink:href="#DejaVuSans-65" transform="translate(1212.060547 0)"/>
     <use xlink:href="#DejaVuSans-20" transform="translate(1273.583984 0)"/>
     <use xlink:href="#DejaVuSans-28" transform="translate(1305.371094 0)"/>
     <use xlink:href="#DejaVuSans-55" transform="translate(1344.384766 0)"/>
     <use xlink:href="#DejaVuSans-6e" transform="translate(1417.578125 0)"/>
     <use xlink:href="#DejaVuSans-77" transform="translate(1480.957031 0)"/>
     <use xlink:href="#DejaVuSans-72" transform="translate(1562.744141 0)"/>
     <use xlink:href="#DejaVuSans-61" transform="translate(1603.857422 0)"/>
     <use xlink:href="#DejaVuSans-70" transform="translate(1665.136719 0)"/>
     <use xlink:href="#DejaVuSans-70" transform="translate(1728.613281 0)"/>
     <use xlink:href="#DejaVuSans-65" transform="translate(1792.089844 0)"/>
     <use xlink:href="#DejaVuSans-64" transform="translate(1853.613281 0)"/>
     <use xlink:href="#DejaVuSans-29" transform="translate(1917.089844 0)"/>
     <use xlink:href="#DejaVuSans-20" transform="translate(1956.103516 0)"/>
     <use xlink:href="#DejaVuSans-76" transform="translate(1987.890625 0)"/>
     <use xlink:href="#DejaVuSans-73" transform="translate(2047.070312 0)"/>
     <use xlink:href="#DejaVuSans-20" transform="translate(2099.169922 0)"/>
     <use xlink:href="#DejaVuSans-43" transform="translate(2130.957031 0)"/>
     <use xlink:href="#DejaVuSans-68" transform="translate(2200.78125 0)"/>
     <use xlink:href="#DejaVuSans-61" transform="translate(2264.160156 0)"/>
     <use xlink:href="#DejaVuSans-6e" transform="translate(2325.439453 0)"/>
     <use xlink:href="#DejaVuSans-6e" transform="translate(2388.818359 0)"/>
     <use xlink:href="#DejaVuSans-65" transform="translate(2452.197266 0)"/>
     <use xlink:href="#DejaVuSans-6c" transform="translate(2513.720703 0)"/>
    </g>
   </g>
   <g id="legend_2">
    <g id="patch_13">
     <path d="M 614.715339 338.392136 
L 713.242839 338.392136 
Q 716.442839 338.392136 716.442839 335.192136 
L 716.442839 313.307136 
Q 716.442839 310.107136 713.242839 310.107136 
L 614.715339 310.107136 
Q 611.515339 310.107136 611.515339 313.307136 
L 611.515339 335.192136 
Q 611.515339 338.392136 614.715339 338.392136 
z
" style="fill: #ffffff; opacity: 0.8; stroke: #cccccc; stroke-linejoin: miter"/>
    </g>
    <g id="line2d_58">
     <path d="M 617.915339 323.064636 
L 633.915339 323.064636 
L 649.915339 323.064636 
" style="fill: none; stroke-dasharray: 9.6,2.4,1.5,2.4; stroke-dashoffset: 0; stroke: #008000; stroke-width: 1.5"/>
     <g>
      <use xlink:href="#m3c5c274354" x="633.915339" y="323.064636" style="fill: #008000; stroke: #008000; stroke-linejoin: miter"/>
     </g>
    </g>
    <g id="text_28">
     <!-- signal -->
     <g transform="translate(662.715339 328.664636) scale(0.16 -0.16)">
      <use xlink:href="#DejaVuSans-73"/>
      <use xlink:href="#DejaVuSans-69" transform="translate(52.099609 0)"/>
      <use xlink:href="#DejaVuSans-67" transform="translate(79.882812 0)"/>
      <use xlink:href="#DejaVuSans-6e" transform="translate(143.359375 0)"/>
      <use xlink:href="#DejaVuSans-61" transform="translate(206.738281 0)"/>
      <use xlink:href="#DejaVuSans-6c" transform="translate(268.017578 0)"/>
     </g>
    </g>
   </g>
  </g>
 </g>
 <defs>
  <clipPath id="pd52e7679e1">
   <rect x="82.19" y="32.64" width="642.252839" height="233.327136"/>
  </clipPath>
  <clipPath id="p3109c23ef3">
   <rect x="82.19" y="302.107136" width="642.252839" height="233.327136"/>
  </clipPath>
 </defs>
</svg>
